0
SECTION
2
HEADER
9
$ACADVER
1
AC1032
9
$DWGCODEPAGE
3
ANSI_1252
9
$LASTSAVEDBY
1
Carvajal
9
$HANDSEED
5
1E0E
9
$ANGBASE
50
0.0
9
$ANGDIR
70
0
9
$ATTMODE
70
1
9
$AUNITS
70
0
9
$AUPREC
70
0
9
$CECOLOR
62
256
9
$CELTSCALE
40
1.0
9
$CELTYPE
6
ByLayer
9
$CELWEIGHT
370
-1
9
$CLAYER
8
0
9
$CMLJUST
70
0
9
$CMLSCALE
40
15.0
9
$CMLSTYLE
2
Standard
9
$DIMSTYLE
2
ISO-25
9
$TEXTSIZE
40
7.5
9
$TEXTSTYLE
7
MyTextStyle
9
$LUNITS
70
2
9
$LUPREC
70
4
9
$MIRRTEXT
70
0
9
$EXTNAMES
290
1
9
$INSBASE
10
0.0
20
0.0
30
0.0
9
$INSUNITS
70
4
9
$LTSCALE
40
1.0
9
$LWDISPLAY
290
1
9
$PDMODE
70
66
9
$PDSIZE
40
0.0
9
$PLINEGEN
70
0
9
$PSLTSCALE
70
1
9
$SPLINESEGS
70
6
9
$SURFU
70
6
9
$SURFV
70
6
9
$TDCREATE
40
2456329.17363425
9
$TDUCREATE
40
2456329.131968
9
$TDUPDATE
40
2459995.74512731
9
$TDUUPDATE
40
2459995.70346065
9
$TDINDWG
40
0.126902962962963
9
$UCSORG
10
0.0
20
0.0
30
0.0
9
$UCSXDIR
10
1.0
20
0.0
30
0.0
9
$UCSYDIR
10
0.0
20
1.0
30
0.0
9
$DIMADEC
70
0
9
$DIMALT
70
0
9
$DIMALTD
70
3
9
$DIMALTF
40
0.03937007874016
9
$DIMALTRND
40
0.0
9
$DIMALTTD
70
3
9
$DIMALTTZ
70
0
9
$DIMALTU
70
2
9
$DIMALTZ
70
0
9
$DIMAPOST
1
[]
9
$DIMATFIT
70
3
9
$DIMAUNIT
70
0
9
$DIMASZ
40
2.5
9
$DIMAZIN
70
3
9
$DIMSAH
70
0
9
$DIMBLK
1

9
$DIMLDRBLK
1

9
$DIMCEN
40
2.5
9
$DIMCLRD
70
0
9
$DIMCLRE
70
0
9
$DIMCLRT
70
0
9
$DIMDEC
70
2
9
$DIMDLE
40
0.0
9
$DIMDLI
40
3.75
9
$DIMDSEP
70
44
9
$DIMEXE
40
1.25
9
$DIMEXO
40
0.625
9
$DIMFXLON
70
0
9
$DIMFXL
40
1.0
9
$DIMGAP
40
0.625
9
$DIMJUST
70
0
9
$DIMLFAC
40
1.0
9
$DIMLUNIT
70
2
9
$DIMLWD
70
-2
9
$DIMLWE
70
-2
9
$DIMPOST
1
<>
9
$DIMRND
40
0.0
9
$DIMSCALE
40
1.0
9
$DIMSD1
70
0
9
$DIMSD2
70
0
9
$DIMSE1
70
0
9
$DIMSE2
70
0
9
$DIMSOXD
70
0
9
$DIMTAD
70
1
9
$DIMTDEC
70
2
9
$DIMTFAC
40
1.0
9
$DIMTIH
70
0
9
$DIMTIX
70
0
9
$DIMTM
40
0.0
9
$DIMTMOVE
70
0
9
$DIMTOFL
70
1
9
$DIMTOH
70
0
9
$DIMTOL
70
0
9
$DIMLIM
70
0
9
$DIMTOLJ
70
0
9
$DIMTP
40
0.0
9
$DIMTXT
40
2.5
9
$DIMTXTDIRECTION
70
0
9
$DIMTZIN
70
8
9
$DIMZIN
70
8
9
$DIMFRAC
70
0
9
$DIMLTYPE
6
ByBlock
9
$DIMLTEX1
6
ByBlock
9
$DIMLTEX2
6
ByBlock
9
$REQUIREDVERSIONS
160
0
9
$EXTMIN
10
-0.0000013962340972
20
-450.0
30
-48.6238141881793
9
$EXTMAX
10
1000.0
20
100.0
30
50.0
9
$LIMMIN
10
0.0
20
0.0
9
$LIMMAX
10
420.0
20
297.0
9
$ORTHOMODE
70
0
9
$REGENMODE
70
1
9
$FILLMODE
70
1
9
$QTEXTMODE
70
0
9
$TRACEWID
40
1.0
9
$DISPSILH
70
0
9
$SKETCHINC
40
1.0
9
$FILLETRAD
40
0.0
9
$MENU
1
.
9
$ELEVATION
40
0.0
9
$PELEVATION
40
0.0
9
$THICKNESS
40
0.0
9
$LIMCHECK
70
0
9
$CHAMFERA
40
0.0
9
$CHAMFERB
40
0.0
9
$CHAMFERC
40
0.0
9
$CHAMFERD
40
0.0
9
$SKPOLY
70
0
9
$TDUSRTIMER
40
0.1268912037
9
$USRTIMER
70
1
9
$PLINEWID
40
0.0
9
$SPLFRAME
70
0
9
$SPLINETYPE
70
6
9
$SURFTAB1
70
6
9
$SURFTAB2
70
6
9
$SURFTYPE
70
6
9
$UCSBASE
2

9
$UCSNAME
2

9
$UCSORTHOREF
2

9
$UCSORTHOVIEW
70
0
9
$UCSORGTOP
10
0.0
20
0.0
30
0.0
9
$UCSORGBOTTOM
10
0.0
20
0.0
30
0.0
9
$UCSORGLEFT
10
0.0
20
0.0
30
0.0
9
$UCSORGRIGHT
10
0.0
20
0.0
30
0.0
9
$UCSORGFRONT
10
0.0
20
0.0
30
0.0
9
$UCSORGBACK
10
0.0
20
0.0
30
0.0
9
$PUCSBASE
2

9
$PUCSNAME
2

9
$PUCSORG
10
0.0
20
0.0
30
0.0
9
$PUCSXDIR
10
1.0
20
0.0
30
0.0
9
$PUCSYDIR
10
0.0
20
1.0
30
0.0
9
$PUCSORTHOREF
2

9
$PUCSORTHOVIEW
70
0
9
$PUCSORGTOP
10
0.0
20
0.0
30
0.0
9
$PUCSORGBOTTOM
10
0.0
20
0.0
30
0.0
9
$PUCSORGLEFT
10
0.0
20
0.0
30
0.0
9
$PUCSORGRIGHT
10
0.0
20
0.0
30
0.0
9
$PUCSORGFRONT
10
0.0
20
0.0
30
0.0
9
$PUCSORGBACK
10
0.0
20
0.0
30
0.0
9
$USERI1
70
0
9
$USERI2
70
0
9
$USERI3
70
0
9
$USERI4
70
0
9
$USERI5
70
0
9
$USERR1
40
0.0
9
$USERR2
40
0.0
9
$USERR3
40
0.0
9
$USERR4
40
0.0
9
$USERR5
40
0.0
9
$WORLDVIEW
70
1
9
$SHADEDGE
70
3
9
$SHADEDIF
70
70
9
$TILEMODE
70
1
9
$MAXACTVP
70
64
9
$PINSBASE
10
0.0
20
0.0
30
0.0
9
$PLIMCHECK
70
0
9
$PEXTMIN
10
25.7
20
19.5
30
0.0
9
$PEXTMAX
10
231.3
20
175.5
30
0.0
9
$PLIMMIN
10
-20.0
20
-7.5
9
$PLIMMAX
10
277.0
20
202.5
9
$UNITMODE
70
0
9
$VISRETAIN
70
1
9
$TREEDEPTH
70
3020
9
$PROXYGRAPHICS
70
1
9
$MEASUREMENT
70
1
9
$ENDCAPS
280
0
9
$JOINSTYLE
280
0
9
$HYPERLINKBASE
1

9
$STYLESHEET
1

9
$XEDIT
290
1
9
$CEPSNTYPE
380
0
9
$PSTYLEMODE
290
1
9
$FINGERPRINTGUID
2
{793054A7-5D0C-48A4-B97F-D5B57990BBCD}
9
$VERSIONGUID
2
{FE8F9029-5490-3841-AE71-E0C057164B1D}
9
$PSVPSCALE
40
0.0
9
$OLESTARTUP
290
0
9
$SORTENTS
280
127
9
$INDEXCTL
280
0
9
$HIDETEXT
280
0
9
$XCLIPFRAME
280
2
9
$HALOGAP
280
0
9
$OBSCOLOR
70
257
9
$OBSLTYPE
280
0
9
$INTERSECTIONDISPLAY
280
0
9
$INTERSECTIONCOLOR
70
257
9
$PROJECTNAME
1

9
$CAMERADISPLAY
290
0
9
$LENSLENGTH
40
50.0
9
$CAMERAHEIGHT
40
0.0
9
$STEPSPERSEC
40
2.0
9
$STEPSIZE
40
6.0
9
$3DDWFPREC
40
2.0
9
$PSOLWIDTH
40
0.25
9
$PSOLHEIGHT
40
4.0
9
$LOFTANG1
40
1.5707963267949
9
$LOFTANG2
40
1.5707963267949
9
$LOFTMAG1
40
0.0
9
$LOFTMAG2
40
0.0
9
$LOFTPARAM
70
7
9
$LOFTNORMALS
280
1
9
$LATITUDE
40
37.795
9
$LONGITUDE
40
-122.394
9
$NORTHDIRECTION
40
0.0
9
$TIMEZONE
70
-8000
9
$LIGHTGLYPHDISPLAY
280
1
9
$TILEMODELIGHTSYNCH
280
1
9
$CMATERIAL
347
EC
9
$SOLIDHIST
280
0
9
$SHOWHIST
280
1
9
$DWFFRAME
280
2
9
$DGNFRAME
280
0
9
$REALWORLDSCALE
290
1
9
$INTERFERECOLOR
62
1
9
$CSHADOW
280
0
9
$SHADOWPLANELOCATION
40
0.0
0
ENDSEC
0
SECTION
2
CLASSES
0
CLASS
1
RASTERVARIABLES
2
AcDbRasterVariables
3
ISM
90
0
91
1
280
0
281
0
0
CLASS
1
IMAGEDEF
2
AcDbRasterImageDef
3
ISM
90
0
91
1
280
0
281
0
0
CLASS
1
IMAGEDEF_REACTOR
2
AcDbRasterImageDefReactor
3
ISM
90
1
91
1
280
0
281
0
0
CLASS
1
IMAGE
2
AcDbRasterImage
3
ISM
90
127
91
1
280
0
281
1
0
ENDSEC
0
SECTION
2
TABLES
0
TABLE
2
APPID
5
9
330
0
100
AcDbSymbolTable
70
20
0
APPID
5
12
330
9
100
AcDbSymbolTableRecord
100
AcDbRegAppTableRecord
2
ACAD
70
0
0
APPID
5
9E
330
9
100
AcDbSymbolTableRecord
100
AcDbRegAppTableRecord
2
ACAD_PSEXT
70
0
0
APPID
5
133
330
9
100
AcDbSymbolTableRecord
100
AcDbRegAppTableRecord
2
AcadAnnoPO
70
0
0
APPID
5
134
330
9
100
AcDbSymbolTableRecord
100
AcDbRegAppTableRecord
2
AcadAnnotative
70
0
0
APPID
5
135
330
9
100
AcDbSymbolTableRecord
100
AcDbRegAppTableRecord
2
ACAD_DSTYLE_DIMJAG
70
0
0
APPID
5
136
330
9
100
AcDbSymbolTableRecord
100
AcDbRegAppTableRecord
2
ACAD_DSTYLE_DIMTALN
70
0
0
APPID
5
165
330
9
100
AcDbSymbolTableRecord
100
AcDbRegAppTableRecord
2
ACAD_MLEADERVER
70
0
0
APPID
5
217
330
9
100
AcDbSymbolTableRecord
100
AcDbRegAppTableRecord
2
ACAD_NAV_VCDISPLAY
70
0
0
APPID
5
23D
330
9
100
AcDbSymbolTableRecord
100
AcDbRegAppTableRecord
2
GradientColor1ACI
70
0
0
APPID
5
23E
330
9
100
AcDbSymbolTableRecord
100
AcDbRegAppTableRecord
2
GradientColor2ACI
70
0
0
APPID
5
25B
330
9
100
AcDbSymbolTableRecord
100
AcDbRegAppTableRecord
2
ACAUTHENVIRON
70
0
0
APPID
5
260
330
9
100
AcDbSymbolTableRecord
100
AcDbRegAppTableRecord
2
AcDbDynamicBlockTrueName
70
0
0
APPID
5
261
330
9
100
AcDbSymbolTableRecord
100
AcDbRegAppTableRecord
2
AcDbDynamicBlockGUID
70
0
0
APPID
5
271
330
9
100
AcDbSymbolTableRecord
100
AcDbRegAppTableRecord
2
ACAD_EXEMPT_FROM_CAD_STANDARDS
70
0
0
APPID
5
29E
330
9
100
AcDbSymbolTableRecord
100
AcDbRegAppTableRecord
2
AcAecLayerStandard
70
0
0
APPID
5
29F
330
9
100
AcDbSymbolTableRecord
100
AcDbRegAppTableRecord
2
AcCmTransparency
70
0
0
APPID
5
42D
330
9
100
AcDbSymbolTableRecord
100
AcDbRegAppTableRecord
2
NETDXF
70
0
0
APPID
5
623
330
9
100
AcDbSymbolTableRecord
100
AcDbRegAppTableRecord
2
AdeskUnderlayLayerOverrideData
70
0
0
APPID
5
AB1
330
9
100
AcDbSymbolTableRecord
100
AcDbRegAppTableRecord
2
ACAD_DSTYLE_DIMRADIAL_EXTENSION
70
0
0
APPID
5
BB2
330
9
100
AcDbSymbolTableRecord
100
AcDbRegAppTableRecord
2
AcDbAttr
70
0
0
ENDTAB
0
TABLE
2
VPORT
5
8
330
0
100
AcDbSymbolTable
70
1
0
VPORT
5
1CDA
330
8
100
AcDbSymbolTableRecord
100
AcDbViewportTableRecord
2
*Active
70
0
10
0.0
20
0.0
11
1.0
21
1.0
12
0.0
22
0.0
13
0.0
23
0.0
14
0.5
24
0.5
15
10.0
25
10.0
16
0.0
26
0.0
36
1.0
17
0.0
27
0.0
37
0.0
40
10.0
41
1.0
75
0
76
1
0
ENDTAB
0
TABLE
2
LTYPE
5
5
330
0
100
AcDbSymbolTable
70
7
0
LTYPE
5
14
330
5
100
AcDbSymbolTableRecord
100
AcDbLinetypeTableRecord
2
ByBlock
70
0
3

72
65
73
0
40
0.0
0
LTYPE
5
15
330
5
100
AcDbSymbolTableRecord
100
AcDbLinetypeTableRecord
2
ByLayer
70
0
3

72
65
73
0
40
0.0
0
LTYPE
5
16
330
5
100
AcDbSymbolTableRecord
100
AcDbLinetypeTableRecord
2
Continuous
70
0
3
Solid line
72
65
73
0
40
0.0
0
LTYPE
5
2AF
330
5
100
AcDbSymbolTableRecord
100
AcDbLinetypeTableRecord
2
DASHED
70
0
3
Dashed __ __ __ __ __ __ __ __ __ __ __ __ __ _
72
65
73
2
40
19.05
49
12.7
74
0
49
-6.35
74
0
0
LTYPE
5
452
330
5
100
AcDbSymbolTableRecord
100
AcDbLinetypeTableRecord
2
DOT
70
0
3
Dot . . . . . . . . . . . . . . . . . . . . . .
72
65
73
2
40
6.35
49
0.0
74
0
49
-6.35
74
0
0
LTYPE
5
1866
330
5
100
AcDbSymbolTableRecord
100
AcDbLinetypeTableRecord
2
GAS_LINE
70
0
3
Gas line ----GAS----GAS----GAS----GAS----GAS---
72
65
73
3
40
24.13
49
12.7
74
0
49
-5.08
74
2
75
0
340
11
46
2.54
50
0.0
44
-2.54
45
-1.27
9
GAS
49
-6.35
74
0
0
LTYPE
5
1867
330
5
100
AcDbSymbolTableRecord
100
AcDbLinetypeTableRecord
2
BATTING
70
0
3
Batting SSSSSSSSSSSSSSSSSSSSSSSSSSSSSSSSSSSSSSS
72
65
73
2
40
2.54254
49
0.00254
74
0
49
-2.54
74
0
0
ENDTAB
0
TABLE
2
LAYER
5
2
102
{ACAD_XDICTIONARY
360
1CDB
102
}
330
0
100
AcDbSymbolTable
70
7
0
LAYER
5
10
330
2
100
AcDbSymbolTableRecord
100
AcDbLayerTableRecord
2
0
70
0
62
7
6
Continuous
290
1
370
-3
390
0
0
LAYER
5
22D
330
2
100
AcDbSymbolTableRecord
100
AcDbLayerTableRecord
2
Defpoints
70
0
62
7
6
Continuous
290
0
370
-3
390
0
0
LAYER
5
29D
330
2
100
AcDbSymbolTableRecord
100
AcDbLayerTableRecord
2
Layer1
70
0
62
40
6
Continuous
290
1
370
-3
390
0
1001
AcAecLayerStandard
1000

1000

1001
AcCmTransparency
1071
16777216
0
LAYER
5
2A0
330
2
100
AcDbSymbolTableRecord
100
AcDbLayerTableRecord
2
Layer2
70
0
62
65
6
Continuous
290
1
370
-3
390
0
1001
AcAecLayerStandard
1000

1000

1001
AcCmTransparency
1071
16777216
0
LAYER
5
2B0
330
2
100
AcDbSymbolTableRecord
100
AcDbLayerTableRecord
2
EntityProperties
70
0
62
161
6
Continuous
290
1
370
-3
390
0
1001
AcAecLayerStandard
1000

1000

1001
AcCmTransparency
1071
16777216
0
LAYER
5
3D2
330
2
100
AcDbSymbolTableRecord
100
AcDbLayerTableRecord
2
Groups
70
0
62
132
6
Continuous
290
1
370
-3
390
0
1001
AcAecLayerStandard
1000

1000

1001
AcCmTransparency
1071
16777216
0
LAYER
5
451
330
2
100
AcDbSymbolTableRecord
100
AcDbLayerTableRecord
2
ConstructionLines
70
0
62
252
6
DOT
290
1
370
35
390
0
1001
AcAecLayerStandard
1000

1000

1001
AcCmTransparency
1071
16777216
0
ENDTAB
0
TABLE
2
STYLE
5
3
330
0
100
AcDbSymbolTable
70
2
0
STYLE
5
11
330
3
100
AcDbSymbolTableRecord
100
AcDbTextStyleTableRecord
2
Standard
3
simplex.shx
70
0
71
0
40
0.0
41
1.0
42
0.0
50
0.0
0
STYLE
5
38E
330
3
100
AcDbSymbolTableRecord
100
AcDbTextStyleTableRecord
2
MyTextStyle
3

70
0
71
0
40
0.0
41
1.0
42
0.0
50
0.0
1001
ACAD
1000
Arial
1071
0
0
STYLE
5
2AE
330
1CDC
100
AcDbSymbolTableRecord
100
AcDbTextStyleTableRecord
2

3
ltypeshp.shx
70
1
40
0.0
41
1.0
42
0.0
50
0.0
0
STYLE
5
18C9
330
1CDC
100
AcDbSymbolTableRecord
100
AcDbTextStyleTableRecord
2

3
shape.shx
70
1
40
0.0
41
1.0
42
0.0
50
0.0
0
ENDTAB
0
TABLE
2
DIMSTYLE
5
A
330
0
100
AcDbSymbolTable
70
3
100
AcDbDimStyleTable
0
DIMSTYLE
105
1B0
330
A
100
AcDbSymbolTableRecord
100
AcDbDimStyleTableRecord
2
Standard
3
<>
4
[]
40
1.0
41
0.18
42
0.0625
43
0.38
44
0.18
45
0.0
46
0.0
47
0.0
48
0.0
49
1.0
70
0
71
0
72
0
73
0
74
0
75
0
76
0
77
0
78
0
79
3
140
0.18
141
0.09
143
25.4
144
1.0
146
1.0
147
0.09
148
0.0
170
0
171
2
172
0
174
0
175
0
176
0
177
0
178
0
179
0
271
4
272
4
273
2
274
2
275
0
276
0
277
2
278
46
279
0
280
0
281
0
282
0
283
1
284
0
285
0
286
0
289
3
290
0
294
0
340
11
173
0
345
14
346
14
347
14
371
-2
372
-2
0
DIMSTYLE
105
137
330
A
100
AcDbSymbolTableRecord
100
AcDbDimStyleTableRecord
2
Annotative
3
<>
4
[]
40
1.0
41
2.5
42
0.625
43
3.75
44
1.25
45
0.0
46
0.0
47
0.0
48
0.0
49
1.0
70
0
71
0
72
0
73
0
74
0
75
0
76
0
77
1
78
8
79
3
140
2.5
141
2.5
143
0.03937007874016
144
1.0
146
1.0
147
0.625
148
0.0
170
0
171
3
172
1
174
0
175
0
176
0
177
0
178
0
179
0
271
2
272
2
273
2
274
3
275
0
276
0
277
2
278
44
279
0
280
0
281
0
282
0
283
0
284
8
285
0
286
0
289
3
290
0
294
0
340
11
173
0
345
14
346
14
347
14
371
-2
372
-2
1001
AcadAnnotative
1000
AnnotativeData
1002
{
1070
1
1070
1
1002
}
1001
ACAD_DSTYLE_DIMJAG
1070
388
1040
1.5
1001
ACAD_DSTYLE_DIMTALN
1070
392
1070
0
0
DIMSTYLE
105
27
330
A
100
AcDbSymbolTableRecord
100
AcDbDimStyleTableRecord
2
ISO-25
3
<>
4
[]
40
1.0
41
2.5
42
0.625
43
3.75
44
1.25
45
0.0
46
0.0
47
0.0
48
0.0
49
1.0
70
0
71
0
72
0
73
0
74
0
75
0
76
0
77
1
78
8
79
3
140
2.5
141
2.5
143
0.03937007874016
144
1.0
146
1.0
147
0.625
148
0.0
170
0
171
3
172
1
174
0
175
0
176
0
177
0
178
0
179
0
271
2
272
2
273
2
274
3
275
0
276
0
277
2
278
44
279
0
280
0
281
0
282
0
283
0
284
8
285
0
286
0
289
3
290
0
294
0
340
11
173
0
345
14
346
14
347
14
371
-2
372
-2
0
ENDTAB
0
TABLE
2
VIEW
5
6
330
0
100
AcDbSymbolTable
70
0
0
ENDTAB
0
TABLE
2
UCS
5
7
330
0
100
AcDbSymbolTable
70
1
0
UCS
5
467
330
7
100
AcDbSymbolTableRecord
100
AcDbUCSTableRecord
2
MyUCS
70
0
10
0.0
20
0.0
30
0.0
11
0.707106781186548
21
-0.707106781186547
31
-0.0000000000000005
12
0.408248290463863
22
0.408248290463863
32
0.816496580927726
79
0
0
ENDTAB
0
TABLE
2
BLOCK_RECORD
5
1
330
0
100
AcDbSymbolTable
70
19
0
BLOCK_RECORD
5
1F
330
1
100
AcDbSymbolTableRecord
100
AcDbBlockTableRecord
2
*Model_Space
340
22
0
BLOCK_RECORD
5
D2
330
1
100
AcDbSymbolTableRecord
100
AcDbBlockTableRecord
2
*Paper_Space
340
D3
0
BLOCK_RECORD
5
22E
330
1
100
AcDbSymbolTableRecord
100
AcDbBlockTableRecord
2
*D0
340
0
0
BLOCK_RECORD
5
24E
330
1
100
AcDbSymbolTableRecord
100
AcDbBlockTableRecord
2
MyBlock
340
0
70
4
280
1
281
0
1001
AcDbDynamicBlockGUID
1000
{AF4CD1DE-22F5-46CB-967C-41B95DEED31F}
1001
ACAD
1000
DesignCenter Data
1002
{
1070
1
1070
4
1002
}
0
BLOCK_RECORD
5
9E7
330
1
100
AcDbSymbolTableRecord
100
AcDbBlockTableRecord
2
*D18
340
0
0
BLOCK_RECORD
5
A35
330
1
100
AcDbSymbolTableRecord
100
AcDbBlockTableRecord
2
*D19
340
0
0
BLOCK_RECORD
5
A6D
330
1
100
AcDbSymbolTableRecord
100
AcDbBlockTableRecord
2
*D20
340
0
0
BLOCK_RECORD
5
AB3
330
1
100
AcDbSymbolTableRecord
100
AcDbBlockTableRecord
2
*D21
340
0
0
BLOCK_RECORD
5
AC5
330
1
100
AcDbSymbolTableRecord
100
AcDbBlockTableRecord
2
*D22
340
0
0
BLOCK_RECORD
5
AEB
330
1
100
AcDbSymbolTableRecord
100
AcDbBlockTableRecord
2
*D23
340
0
0
BLOCK_RECORD
5
AF6
330
1
100
AcDbSymbolTableRecord
100
AcDbBlockTableRecord
2
*D24
340
0
0
BLOCK_RECORD
5
1163
330
1
100
AcDbSymbolTableRecord
100
AcDbBlockTableRecord
2
_Small
340
0
70
0
280
1
281
0
1001
ACAD
1000
DesignCenter Data
1002
{
1070
1
1070
0
1002
}
0
BLOCK_RECORD
5
11FC
330
1
100
AcDbSymbolTableRecord
100
AcDbBlockTableRecord
2
_ArchTick
340
0
70
0
280
1
281
0
1001
ACAD
1000
DesignCenter Data
1002
{
1070
1
1070
0
1002
}
0
BLOCK_RECORD
5
13E6
330
1
100
AcDbSymbolTableRecord
100
AcDbBlockTableRecord
2
*D25
340
0
0
BLOCK_RECORD
5
1788
330
1
100
AcDbSymbolTableRecord
100
AcDbBlockTableRecord
2
*T12
340
0
0
BLOCK_RECORD
5
1C01
330
1
100
AcDbSymbolTableRecord
100
AcDbBlockTableRecord
2
*D13
340
0
0
BLOCK_RECORD
5
1C50
330
1
100
AcDbSymbolTableRecord
100
AcDbBlockTableRecord
2
*D15
340
0
0
BLOCK_RECORD
5
1C5F
330
1
100
AcDbSymbolTableRecord
100
AcDbBlockTableRecord
2
*D16
340
0
0
BLOCK_RECORD
5
1CA5
330
1
100
AcDbSymbolTableRecord
100
AcDbBlockTableRecord
2
*D17
340
0
0
ENDTAB
0
ENDSEC
0
SECTION
2
BLOCKS
0
BLOCK
5
20
330
1F
100
AcDbEntity
67
0
8
0
100
AcDbBlockBegin
2
*Model_Space
70
0
10
0.0
20
0.0
30
0.0
3
*Model_Space
4

0
ENDBLK
5
21
330
1F
100
AcDbEntity
8
0
100
AcDbBlockEnd
0
BLOCK
5
D4
330
D2
100
AcDbEntity
67
1
8
0
100
AcDbBlockBegin
2
*Paper_Space
70
0
10
0.0
20
0.0
30
0.0
3
*Paper_Space
4

0
ENDBLK
5
D5
330
D2
100
AcDbEntity
8
0
100
AcDbBlockEnd
0
BLOCK
5
22F
330
22E
100
AcDbEntity
8
0
100
AcDbBlockBegin
2
*D0
70
1
10
0.0
20
0.0
30
0.0
3
*D0
4

0
LINE
5
1389
330
22E
100
AcDbEntity
8
Layer1
62
0
440
16777216
6
ByLayer
370
-2
48
1.0
60
0
100
AcDbLine
10
119.558058261758
20
-179.558058261758
30
0.0
11
109.116116523517
21
-169.116116523517
31
0.0
39
0.0
210
0.0
220
0.0
230
1.0
0
LINE
5
138A
330
22E
100
AcDbEntity
8
Layer1
62
0
440
16777216
6
ByLayer
370
-2
48
1.0
60
0
100
AcDbLine
10
179.558058261758
20
-119.558058261758
30
0.0
11
169.116116523517
21
-109.116116523517
31
0.0
39
0.0
210
0.0
220
0.0
230
1.0
0
LINE
5
138B
330
22E
100
AcDbEntity
8
Layer1
62
1
440
16777216
6
ByLayer
370
-2
48
1.0
60
0
100
AcDbLine
10
108.585786437627
20
-171.414213562373
30
0.0
11
171.414213562373
21
-108.585786437627
31
0.0
39
0.0
210
0.0
220
0.0
230
1.0
0
INSERT
5
138C
330
22E
100
AcDbEntity
8
Layer1
62
1
440
16777216
6
ByLayer
370
-2
48
1.0
60
0
100
AcDbBlockReference
2
_ArchTick
10
110.0
20
-170.0
30
0.0
41
2.5
42
2.5
43
2.5
50
225.0
210
0.0
220
0.0
230
1.0
0
INSERT
5
138D
330
22E
100
AcDbEntity
8
Layer1
62
1
440
16777216
6
ByLayer
370
-2
48
1.0
60
0
100
AcDbBlockReference
2
_ArchTick
10
170.0
20
-110.0
30
0.0
41
2.5
42
2.5
43
2.5
50
45.0
210
0.0
220
0.0
230
1.0
0
MTEXT
5
138E
330
22E
100
AcDbEntity
8
Layer1
62
0
440
16777216
6
ByLayer
370
-1
48
1.0
60
0
100
AcDbMText
10
137.495663483298
20
-137.495663483298
30
0.0
210
0.0
220
0.0
230
1.0
1
7'-0{\H1.000000x;\S3/4;}"
40
2.5
41
0.0
44
1.0
11
0.707106781186548
21
0.707106781186547
31
0.0
71
5
72
1
73
1
7
Standard
0
POINT
5
138F
330
22E
100
AcDbEntity
8
Defpoints
62
0
440
16777216
6
ByLayer
370
-1
48
1.0
60
0
100
AcDbPoint
10
120.0
20
-180.0
30
0.0
39
0.0
210
0.0
220
0.0
230
1.0
50
360.0
0
POINT
5
1390
330
22E
100
AcDbEntity
8
Defpoints
62
0
440
16777216
6
ByLayer
370
-1
48
1.0
60
0
100
AcDbPoint
10
180.0
20
-120.0
30
0.0
39
0.0
210
0.0
220
0.0
230
1.0
50
360.0
0
POINT
5
1391
330
22E
100
AcDbEntity
8
Defpoints
62
0
440
16777216
6
ByLayer
370
-1
48
1.0
60
0
100
AcDbPoint
10
170.0
20
-110.0
30
0.0
39
0.0
210
0.0
220
0.0
230
1.0
50
360.0
0
ENDBLK
5
230
330
22E
100
AcDbEntity
8
0
100
AcDbBlockEnd
0
BLOCK
5
24F
330
24E
100
AcDbEntity
8
0
100
AcDbBlockBegin
2
MyBlock
70
2
10
0.0
20
0.0
30
0.0
3
MyBlock
4

0
ATTDEF
5
25F
330
24E
100
AcDbEntity
8
0
62
256
6
ByLayer
370
-1
48
1.0
60
0
100
AcDbText
10
0.0
20
0.0
30
0.0
40
5.0
1
1
50
0.0
51
0.0
41
1.0
7
Standard
11
0.0
21
0.0
31
0.0
210
0.0
220
0.0
230
1.0
71
0
72
0
100
AcDbAttributeDefinition
74
0
2
ATTINFO
3
Enter number:
70
0
0
LINE
5
258
330
24E
100
AcDbEntity
8
0
62
256
6
ByLayer
370
-1
48
1.0
60
0
100
AcDbLine
10
-40.0
20
-40.0
30
0.0
11
40.0
21
40.0
31
0.0
39
0.0
210
0.0
220
0.0
230
1.0
0
LINE
5
259
330
24E
100
AcDbEntity
8
0
62
256
6
ByLayer
370
-1
48
1.0
60
0
100
AcDbLine
10
-40.0
20
40.0
30
0.0
11
40.0
21
-40.0
31
0.0
39
0.0
210
0.0
220
0.0
230
1.0
0
CIRCLE
5
25A
330
24E
100
AcDbEntity
8
0
62
256
6
ByLayer
370
-1
48
1.0
60
0
100
AcDbCircle
10
0.0
20
0.0
30
0.0
40
30.0
39
0.0
210
0.0
220
0.0
230
1.0
0
ENDBLK
5
250
330
24E
100
AcDbEntity
8
0
100
AcDbBlockEnd
0
BLOCK
5
9E8
330
9E7
100
AcDbEntity
8
0
100
AcDbBlockBegin
2
*D18
70
1
10
0.0
20
0.0
30
0.0
3
*D18
4

0
LINE
5
A2B
330
9E7
100
AcDbEntity
8
Layer1
62
0
440
16777216
6
ByLayer
370
-2
48
1.0
60
0
100
AcDbLine
10
29.6875
20
-189.458734122635
30
0.0
11
11.149709939048
21
-157.350339877021
31
0.0
39
0.0
210
0.0
220
0.0
230
1.0
0
LINE
5
A2C
330
9E7
100
AcDbEntity
8
Layer1
62
0
440
16777216
6
ByLayer
370
-2
48
1.0
60
0
100
AcDbLine
10
89.6875
20
-129.458734122635
30
0.0
11
82.1304720525812
21
-116.369577763487
31
0.0
39
0.0
210
0.0
220
0.0
230
1.0
0
LINE
5
A2D
330
9E7
100
AcDbEntity
8
Layer1
62
0
440
16777216
6
ByLayer
370
-2
48
1.0
60
0
100
AcDbLine
10
13.9397734485091
20
-157.182871631751
30
0.0
11
80.5904085431201
21
-118.702109518218
31
0.0
39
0.0
210
0.0
220
0.0
230
1.0
0
SOLID
5
A2E
330
9E7
100
AcDbEntity
8
Layer1
62
0
440
16777216
6
ByLayer
370
-1
48
1.0
60
0
100
AcDbTrace
10
13.7314401151758
20
-156.822027713508
30
0.0
11
14.1481067818425
21
-157.543715549995
31
0.0
12
11.774709939048
22
-158.432871631751
32
0.0
13
11.774709939048
23
-158.432871631751
33
0.0
39
0.0
210
0.0
220
0.0
230
1.0
0
SOLID
5
A2F
330
9E7
100
AcDbEntity
8
Layer1
62
0
440
16777216
6
ByLayer
370
-1
48
1.0
60
0
100
AcDbTrace
10
80.3820752097868
20
-118.341265599974
30
0.0
11
80.7987418764534
21
-119.062953436461
31
0.0
12
82.7554720525812
22
-117.452109518218
32
0.0
13
82.7554720525812
23
-117.452109518218
33
0.0
39
0.0
210
0.0
220
0.0
230
1.0
0
MTEXT
5
A30
330
9E7
100
AcDbEntity
8
Layer1
62
0
440
16777216
6
ByLayer
370
-1
48
1.0
60
0
100
AcDbMText
10
46.2085433767669
20
-136.112496418178
30
0.0
210
0.0
220
0.0
230
1.0
1
81,96
40
2.5
41
0.0
44
1.0
11
0.866025403784439
21
0.5
31
0.0
71
5
72
1
73
1
7
Standard
1001
ACAD
1000
MTEXTBEGIN
1070
73
1070
1
1070
44
1040
1.0
1070
74
1070
0
1000
MTEXTEND
0
POINT
5
A31
330
9E7
100
AcDbEntity
8
Defpoints
62
0
440
16777216
6
ByLayer
370
-1
48
1.0
60
0
100
AcDbPoint
10
30.0
20
-190.0
30
0.0
39
0.0
210
0.0
220
0.0
230
1.0
50
360.0
0
POINT
5
A32
330
9E7
100
AcDbEntity
8
Defpoints
62
0
440
16777216
6
ByLayer
370
-1
48
1.0
60
0
100
AcDbPoint
10
90.0
20
-130.0
30
0.0
39
0.0
210
0.0
220
0.0
230
1.0
50
360.0
0
POINT
5
A33
330
9E7
100
AcDbEntity
8
Defpoints
62
0
440
16777216
6
ByLayer
370
-1
48
1.0
60
0
100
AcDbPoint
10
82.7554720525812
20
-117.452109518218
30
0.0
39
0.0
210
0.0
220
0.0
230
1.0
50
360.0
0
ENDBLK
5
9E9
330
9E7
100
AcDbEntity
8
0
100
AcDbBlockEnd
0
BLOCK
5
A36
330
A35
100
AcDbEntity
8
0
100
AcDbBlockBegin
2
*D19
70
1
10
0.0
20
0.0
30
0.0
3
*D19
4

0
LINE
5
1C3A
330
A35
100
AcDbEntity
8
Layer1
62
0
440
16777216
6
ByLayer
370
-2
48
1.0
60
0
100
AcDbLine
10
250.592927061282
20
-180.197642353761
30
0.0
11
278.892006307577
21
-189.630668769192
31
0.0
39
0.0
210
0.0
220
0.0
230
1.0
0
LINE
5
1C3B
330
A35
100
AcDbEntity
8
Layer1
62
0
440
16777216
6
ByLayer
370
-2
48
1.0
60
0
100
AcDbLine
10
230.151584765648
20
-129.393660937409
30
0.0
11
235.05603565363
21
-109.77585738548
31
0.0
39
0.0
210
0.0
220
0.0
230
1.0
0
ARC
5
1C3C
330
A35
100
AcDbEntity
8
Layer1
62
0
440
16777216
6
ByLayer
370
-2
48
1.0
60
0
100
AcDbCircle
39
0.0
10
220.0
20
-170.0
30
0.0
40
60.8276253029821
210
0.0
220
0.0
230
1.0
100
AcDbArc
50
343.920058981359
51
73.6087487277929
0
SOLID
5
1C3D
330
A35
100
AcDbEntity
8
Layer1
62
0
440
16777216
6
ByLayer
370
-1
48
1.0
60
0
100
AcDbTrace
10
278.845725268998
20
-186.97154124527
30
0.0
11
278.049907432112
21
-186.724319856757
31
0.0
12
277.706152185014
22
-189.235384061671
32
0.0
13
277.706152185014
23
-189.235384061671
33
0.0
39
0.0
210
0.0
220
0.0
230
1.0
0
SOLID
5
1C3E
330
A35
100
AcDbEntity
8
Layer1
62
0
440
16777216
6
ByLayer
370
-1
48
1.0
60
0
100
AcDbTrace
10
237.055908052724
20
-112.046651278421
30
0.0
11
237.274591981165
21
-111.242523313551
31
0.0
12
234.752866122335
22
-110.988535510662
32
0.0
13
234.752866122335
23
-110.988535510662
33
0.0
39
0.0
210
0.0
220
0.0
230
1.0
0
MTEXT
5
1C3F
330
A35
100
AcDbEntity
8
Layer1
62
0
440
16777216
6
ByLayer
370
-1
48
1.0
60
0
100
AcDbMText
10
274.965485641804
20
-139.826922463115
30
0.0
210
0.0
220
0.0
230
1.0
1
94°
40
2.5
41
0.0
44
1.0
11
0.481209158166612
21
-0.876605809983359
31
0.0
71
5
72
1
73
1
7
Standard
0
POINT
5
1C40
330
A35
100
AcDbEntity
8
Defpoints
62
0
440
16777216
6
ByLayer
370
-1
48
1.0
60
0
100
AcDbPoint
10
220.0
20
-170.0
30
0.0
39
0.0
210
0.0
220
0.0
230
1.0
50
360.0
0
POINT
5
1C41
330
A35
100
AcDbEntity
8
Defpoints
62
0
440
16777216
6
ByLayer
370
-1
48
1.0
60
0
100
AcDbPoint
10
250.0
20
-180.0
30
0.0
39
0.0
210
0.0
220
0.0
230
1.0
50
360.0
0
POINT
5
1C42
330
A35
100
AcDbEntity
8
Defpoints
62
0
440
16777216
6
ByLayer
370
-1
48
1.0
60
0
100
AcDbPoint
10
230.0
20
-130.0
30
0.0
39
0.0
210
0.0
220
0.0
230
1.0
50
360.0
0
POINT
5
1C43
330
A35
100
AcDbEntity
8
Defpoints
62
0
440
16777216
6
ByLayer
370
-1
48
1.0
60
0
100
AcDbPoint
10
279.261136654696
20
-156.284400035235
30
0.0
39
0.0
210
0.0
220
0.0
230
1.0
50
360.0
0
ENDBLK
5
A37
330
A35
100
AcDbEntity
8
0
100
AcDbBlockEnd
0
BLOCK
5
A6E
330
A6D
100
AcDbEntity
8
0
100
AcDbBlockBegin
2
*D20
70
1
10
0.0
20
0.0
30
0.0
3
*D20
4

0
LINE
5
A9E
330
A6D
100
AcDbEntity
8
Layer1
62
0
440
16777216
6
ByLayer
370
-2
48
1.0
60
0
100
AcDbLine
10
350.592927061282
20
-180.197642353761
30
0.0
11
377.67903354139
21
-189.226344513797
31
0.0
39
0.0
210
0.0
220
0.0
230
1.0
0
LINE
5
A9F
330
A6D
100
AcDbEntity
8
Layer1
62
0
440
16777216
6
ByLayer
370
-2
48
1.0
60
0
100
AcDbLine
10
330.151584765648
20
-129.393660937409
30
0.0
11
334.7459331056
21
-111.016267577601
31
0.0
39
0.0
210
0.0
220
0.0
230
1.0
0
ARC
5
AA0
330
A6D
100
AcDbEntity
8
Layer1
62
0
440
16777216
6
ByLayer
370
-2
48
1.0
60
0
100
AcDbCircle
39
0.0
10
320.0
20
-170.0
30
0.0
40
59.5490397426797
210
0.0
220
0.0
230
1.0
100
AcDbArc
50
343.970631026361
51
73.5581766827908
0
SOLID
5
AA1
330
A6D
100
AcDbEntity
8
Layer1
62
0
440
16777216
6
ByLayer
370
-1
48
1.0
60
0
100
AcDbTrace
10
377.631753302914
20
-186.566714289004
30
0.0
11
376.835826438713
21
-186.319844138342
31
0.0
12
376.493179418827
22
-188.831059806275
32
0.0
13
376.493179418827
23
-188.831059806275
33
0.0
39
0.0
210
0.0
220
0.0
230
1.0
0
SOLID
5
AA2
330
A6D
100
AcDbEntity
8
Layer1
62
0
440
16777216
6
ByLayer
370
-1
48
1.0
60
0
100
AcDbTrace
10
336.745338308179
20
-113.288077755943
30
0.0
11
336.964377096562
21
-112.484046379921
31
0.0
12
334.442763574304
22
-112.228945702783
32
0.0
13
334.442763574304
23
-112.228945702783
33
0.0
39
0.0
210
0.0
220
0.0
230
1.0
0
MTEXT
5
AA3
330
A6D
100
AcDbEntity
8
Layer1
62
0
440
16777216
6
ByLayer
370
-1
48
1.0
60
0
100
AcDbMText
10
373.844670111082
20
-140.442189544232
30
0.0
210
0.0
220
0.0
230
1.0
1
94°
40
2.5
41
0.0
44
1.0
11
0.481209158166612
21
-0.876605809983359
31
0.0
71
5
72
1
73
1
7
Standard
1001
ACAD
1000
MTEXTBEGIN
1070
73
1070
1
1070
44
1040
1.0
1070
74
1070
0
1000
MTEXTEND
0
POINT
5
AA4
330
A6D
100
AcDbEntity
8
Defpoints
62
0
440
16777216
6
ByLayer
370
-1
48
1.0
60
0
100
AcDbPoint
10
378.015478399316
20
-156.572699438319
30
0.0
39
0.0
210
0.0
220
0.0
230
1.0
50
360.0
0
POINT
5
AA5
330
A6D
100
AcDbEntity
8
Defpoints
62
0
440
16777216
6
ByLayer
370
-1
48
1.0
60
0
100
AcDbPoint
10
320.0
20
-170.0
30
0.0
39
0.0
210
0.0
220
0.0
230
1.0
50
360.0
0
POINT
5
AA6
330
A6D
100
AcDbEntity
8
Defpoints
62
0
440
16777216
6
ByLayer
370
-1
48
1.0
60
0
100
AcDbPoint
10
320.0
20
-170.0
30
0.0
39
0.0
210
0.0
220
0.0
230
1.0
50
360.0
0
POINT
5
AA7
330
A6D
100
AcDbEntity
8
Defpoints
62
0
440
16777216
6
ByLayer
370
-1
48
1.0
60
0
100
AcDbPoint
10
330.0
20
-130.0
30
0.0
39
0.0
210
0.0
220
0.0
230
1.0
50
360.0
0
POINT
5
AA8
330
A6D
100
AcDbEntity
8
Defpoints
62
0
440
16777216
6
ByLayer
370
-1
48
1.0
60
0
100
AcDbPoint
10
350.0
20
-180.0
30
0.0
39
0.0
210
0.0
220
0.0
230
1.0
50
360.0
0
ENDBLK
5
A6F
330
A6D
100
AcDbEntity
8
0
100
AcDbBlockEnd
0
BLOCK
5
AB4
330
AB3
100
AcDbEntity
8
0
100
AcDbBlockBegin
2
*D21
70
1
10
0.0
20
0.0
30
0.0
3
*D21
4

0
LINE
5
ADF
330
AB3
100
AcDbEntity
8
Layer1
62
0
440
16777216
6
ByLayer
370
-2
48
1.0
60
0
100
AcDbLine
10
473.191418835344
20
-126.808581164655
30
0.0
11
465.909902576697
21
-134.090097423303
31
0.0
39
0.0
210
0.0
220
0.0
230
1.0
0
MTEXT
5
AE0
330
AB3
100
AcDbEntity
8
Layer1
62
0
440
16777216
6
ByLayer
370
-1
48
1.0
60
0
100
AcDbMText
10
469.108718967779
20
-128.239630602771
30
0.0
210
0.0
220
0.0
230
1.0
1
R20
40
2.5
41
0.0
44
1.0
11
0.707106781186548
21
0.707106781186547
31
0.0
71
5
72
1
73
1
7
Standard
1001
ACAD
1000
MTEXTBEGIN
1070
73
1070
1
1070
44
1040
1.0
1070
74
1070
0
1000
MTEXTEND
0
LINE
5
AE1
330
AB3
100
AcDbEntity
8
Layer1
62
0
440
16777216
6
ByLayer
370
-2
48
1.0
60
0
100
AcDbLine
10
450.0
20
-150.0
30
0.0
11
464.142135623731
21
-135.857864376269
31
0.0
39
0.0
210
0.0
220
0.0
230
1.0
0
SOLID
5
AE2
330
AB3
100
AcDbEntity
8
Layer1
62
0
440
16777216
6
ByLayer
370
-1
48
1.0
60
0
100
AcDbTrace
10
465.615274751203
20
-133.795469597808
30
0.0
11
466.204530402192
21
-134.384725248797
31
0.0
12
464.142135623731
22
-135.857864376269
32
0.0
13
464.142135623731
23
-135.857864376269
33
0.0
39
0.0
210
0.0
220
0.0
230
1.0
0
POINT
5
AE3
330
AB3
100
AcDbEntity
8
Defpoints
62
0
440
16777216
6
ByLayer
370
-1
48
1.0
60
0
100
AcDbPoint
10
464.142135623731
20
-135.857864376269
30
0.0
39
0.0
210
0.0
220
0.0
230
1.0
50
360.0
0
POINT
5
AE4
330
AB3
100
AcDbEntity
8
Defpoints
62
0
440
16777216
6
ByLayer
370
-1
48
1.0
60
0
100
AcDbPoint
10
450.0
20
-150.0
30
0.0
39
0.0
210
0.0
220
0.0
230
1.0
50
360.0
0
ENDBLK
5
AB5
330
AB3
100
AcDbEntity
8
0
100
AcDbBlockEnd
0
BLOCK
5
AC6
330
AC5
100
AcDbEntity
8
0
100
AcDbBlockBegin
2
*D22
70
1
10
0.0
20
0.0
30
0.0
3
*D22
4

0
LINE
5
AE5
330
AC5
100
AcDbEntity
8
Layer1
62
0
440
16777216
6
ByLayer
370
-2
48
1.0
60
0
100
AcDbLine
10
546.220238095238
20
-150.0
30
0.0
11
587.5
21
-150.0
31
0.0
39
0.0
210
0.0
220
0.0
230
1.0
0
MTEXT
5
AE6
330
AC5
100
AcDbEntity
8
Layer1
62
0
440
16777216
6
ByLayer
370
-1
48
1.0
60
0
100
AcDbMText
10
550.0
20
-148.125
30
0.0
210
0.0
220
0.0
230
1.0
1
∅80
40
2.5
41
0.0
44
1.0
11
1.0
21
0.0
31
0.0
71
5
72
1
73
1
7
Standard
1001
ACAD
1000
MTEXTBEGIN
1070
73
1070
1
1070
44
1040
1.0
1070
74
1070
0
1000
MTEXTEND
0
SOLID
5
AE7
330
AC5
100
AcDbEntity
8
Layer1
62
0
440
16777216
6
ByLayer
370
-1
48
1.0
60
0
100
AcDbTrace
10
587.5
20
-149.583333333333
30
0.0
11
587.5
21
-150.416666666667
31
0.0
12
590.0
22
-150.0
32
0.0
13
590.0
23
-150.0
33
0.0
39
0.0
210
0.0
220
0.0
230
1.0
0
POINT
5
AE8
330
AC5
100
AcDbEntity
8
Defpoints
62
0
440
16777216
6
ByLayer
370
-1
48
1.0
60
0
100
AcDbPoint
10
590.0
20
-150.0
30
0.0
39
0.0
210
0.0
220
0.0
230
1.0
50
360.0
0
POINT
5
AE9
330
AC5
100
AcDbEntity
8
Defpoints
62
0
440
16777216
6
ByLayer
370
-1
48
1.0
60
0
100
AcDbPoint
10
510.0
20
-150.0
30
0.0
39
0.0
210
0.0
220
0.0
230
1.0
50
360.0
0
ENDBLK
5
AC7
330
AC5
100
AcDbEntity
8
0
100
AcDbBlockEnd
0
BLOCK
5
AEC
330
AEB
100
AcDbEntity
8
0
100
AcDbBlockBegin
2
*D23
70
1
10
0.0
20
0.0
30
0.0
3
*D23
4

0
LINE
5
B2A
330
AEB
100
AcDbEntity
8
Layer1
62
0
440
16777216
6
ByLayer
370
-2
48
1.0
60
0
100
AcDbLine
10
610.625
20
-180.0
30
0.0
11
670.0
21
-180.0
31
0.0
39
0.0
210
0.0
220
0.0
230
1.0
0
LINE
5
B2B
330
AEB
100
AcDbEntity
8
Layer1
62
0
440
16777216
6
ByLayer
370
-2
48
1.0
60
0
100
AcDbLine
10
670.0
20
-180.0
30
0.0
11
675.0
21
-170.0
31
0.0
39
0.0
210
0.0
220
0.0
230
1.0
0
LINE
5
B2C
330
AEB
100
AcDbEntity
8
Layer1
62
0
440
16777216
6
ByLayer
370
-2
48
1.0
60
0
100
AcDbLine
10
675.0
20
-170.0
30
0.0
11
686.577380952381
21
-170.0
31
0.0
39
0.0
210
0.0
220
0.0
230
1.0
0
MTEXT
5
B2D
330
AEB
100
AcDbEntity
8
Layer1
62
0
440
16777216
6
ByLayer
370
-1
48
1.0
60
0
100
AcDbMText
10
683.60119047619
20
-168.125
30
0.0
210
0.0
220
0.0
230
1.0
1
180
40
2.5
41
0.0
44
1.0
11
1.0
21
0.0
31
0.0
71
5
72
1
73
1
7
Standard
1001
ACAD
1000
MTEXTBEGIN
1070
73
1070
1
1070
44
1040
1.0
1070
74
1070
0
1000
MTEXTEND
0
POINT
5
B2E
330
AEB
100
AcDbEntity
8
Defpoints
62
0
440
16777216
6
ByLayer
370
-1
48
1.0
60
0
100
AcDbPoint
10
610.0
20
-180.0
30
0.0
39
0.0
210
0.0
220
0.0
230
1.0
50
360.0
0
POINT
5
B2F
330
AEB
100
AcDbEntity
8
Defpoints
62
0
440
16777216
6
ByLayer
370
-1
48
1.0
60
0
100
AcDbPoint
10
680.0
20
-170.0
30
0.0
39
0.0
210
0.0
220
0.0
230
1.0
50
360.0
0
POINT
5
B30
330
AEB
100
AcDbEntity
8
Defpoints
62
0
440
16777216
6
ByLayer
370
-1
48
1.0
60
0
100
AcDbPoint
10
0.0
20
0.0
30
0.0
39
0.0
210
0.0
220
0.0
230
1.0
50
360.0
0
ENDBLK
5
AED
330
AEB
100
AcDbEntity
8
0
100
AcDbBlockEnd
0
BLOCK
5
AF7
330
AF6
100
AcDbEntity
8
0
100
AcDbBlockBegin
2
*D24
70
1
10
0.0
20
0.0
30
0.0
3
*D24
4

0
LINE
5
B23
330
AF6
100
AcDbEntity
8
Layer1
62
0
440
16777216
6
ByLayer
370
-2
48
1.0
60
0
100
AcDbLine
10
620.0
20
-189.375
30
0.0
11
620.0
21
-130.0
31
0.0
39
0.0
210
0.0
220
0.0
230
1.0
0
LINE
5
B24
330
AF6
100
AcDbEntity
8
Layer1
62
0
440
16777216
6
ByLayer
370
-2
48
1.0
60
0
100
AcDbLine
10
620.0
20
-130.0
30
0.0
11
640.0
21
-125.0
31
0.0
39
0.0
210
0.0
220
0.0
230
1.0
0
LINE
5
B25
330
AF6
100
AcDbEntity
8
Layer1
62
0
440
16777216
6
ByLayer
370
-2
48
1.0
60
0
100
AcDbLine
10
640.0
20
-125.0
30
0.0
11
640.0
21
-112.946428571429
31
0.0
39
0.0
210
0.0
220
0.0
230
1.0
0
MTEXT
5
B26
330
AF6
100
AcDbEntity
8
Layer1
62
0
440
16777216
6
ByLayer
370
-1
48
1.0
60
0
100
AcDbMText
10
638.125
20
-116.160714285714
30
0.0
210
0.0
220
0.0
230
1.0
1
620
40
2.5
41
0.0
44
1.0
11
0.0000000000000001
21
1.0
31
0.0
71
5
72
1
73
1
7
Standard
1001
ACAD
1000
MTEXTBEGIN
1070
73
1070
1
1070
44
1040
1.0
1070
74
1070
0
1000
MTEXTEND
0
POINT
5
B27
330
AF6
100
AcDbEntity
8
Defpoints
62
0
440
16777216
6
ByLayer
370
-1
48
1.0
60
0
100
AcDbPoint
10
620.0
20
-190.0
30
0.0
39
0.0
210
0.0
220
0.0
230
1.0
50
360.0
0
POINT
5
B28
330
AF6
100
AcDbEntity
8
Defpoints
62
0
440
16777216
6
ByLayer
370
-1
48
1.0
60
0
100
AcDbPoint
10
640.0
20
-120.0
30
0.0
39
0.0
210
0.0
220
0.0
230
1.0
50
360.0
0
POINT
5
B29
330
AF6
100
AcDbEntity
8
Defpoints
62
0
440
16777216
6
ByLayer
370
-1
48
1.0
60
0
100
AcDbPoint
10
0.0
20
0.0
30
0.0
39
0.0
210
0.0
220
0.0
230
1.0
50
360.0
0
ENDBLK
5
AF8
330
AF6
100
AcDbEntity
8
0
100
AcDbBlockEnd
0
BLOCK
5
1165
330
1163
100
AcDbEntity
8
0
100
AcDbBlockBegin
2
_Small
70
0
10
0.0
20
0.0
30
0.0
3
_Small
4

0
CIRCLE
5
1164
330
1163
100
AcDbEntity
8
0
62
0
6
ByBlock
370
-2
48
1.0
60
0
100
AcDbCircle
10
0.0
20
0.0
30
0.0
40
0.25
39
0.0
210
0.0
220
0.0
230
1.0
0
ENDBLK
5
1166
330
1163
100
AcDbEntity
8
0
100
AcDbBlockEnd
0
BLOCK
5
11FE
330
11FC
100
AcDbEntity
8
0
100
AcDbBlockBegin
2
_ArchTick
70
0
10
0.0
20
0.0
30
0.0
3
_ArchTick
4

0
LWPOLYLINE
5
11FD
330
11FC
100
AcDbEntity
8
0
62
0
6
ByBlock
370
-1
48
1.0
60
0
100
AcDbPolyline
90
2
70
0
38
0.0
39
0.0
10
-0.5
20
-0.5
40
0.15
41
0.15
42
0.0
10
0.5
20
0.5
40
0.15
41
0.15
42
0.0
210
0.0
220
0.0
230
1.0
0
ENDBLK
5
11FF
330
11FC
100
AcDbEntity
8
0
100
AcDbBlockEnd
0
BLOCK
5
13E7
330
13E6
100
AcDbEntity
8
0
100
AcDbBlockBegin
2
*D25
70
1
10
0.0
20
0.0
30
0.0
3
*D25
4

0
LINE
5
16C2
330
13E6
100
AcDbEntity
8
Layer1
62
0
440
16777216
6
ByLayer
370
-2
48
1.0
60
0
100
AcDbLine
10
119.558058261758
20
-179.558058261758
30
0.0
11
108.585786437627
21
-168.585786437627
31
0.0
39
0.0
210
0.0
220
0.0
230
1.0
0
LINE
5
16C3
330
13E6
100
AcDbEntity
8
Layer1
62
0
440
16777216
6
ByLayer
370
-2
48
1.0
60
0
100
AcDbLine
10
179.558058261758
20
-119.558058261758
30
0.0
11
168.585786437627
21
-108.585786437627
31
0.0
39
0.0
210
0.0
220
0.0
230
1.0
0
LINE
5
16C4
330
13E6
100
AcDbEntity
8
Layer1
62
1
440
16777216
6
ByLayer
370
-2
48
1.0
60
0
100
AcDbLine
10
108.585786437627
20
-171.414213562373
30
0.0
11
171.414213562373
21
-108.585786437627
31
0.0
39
0.0
210
0.0
220
0.0
230
1.0
0
INSERT
5
16C5
330
13E6
100
AcDbEntity
8
Layer1
62
1
440
16777216
6
ByLayer
370
-2
48
1.0
60
0
100
AcDbBlockReference
2
_ArchTick
10
110.0
20
-170.0
30
0.0
41
2.5
42
2.5
43
2.5
50
225.0
210
0.0
220
0.0
230
1.0
0
INSERT
5
16C6
330
13E6
100
AcDbEntity
8
Layer1
62
1
440
16777216
6
ByLayer
370
-2
48
1.0
60
0
100
AcDbBlockReference
2
_ArchTick
10
170.0
20
-110.0
30
0.0
41
2.5
42
2.5
43
2.5
50
45.0
210
0.0
220
0.0
230
1.0
0
MTEXT
5
16C7
330
13E6
100
AcDbEntity
8
Layer1
62
0
440
16777216
6
ByLayer
370
-1
48
1.0
60
0
100
AcDbMText
10
137.790291308792
20
-137.790291308792
30
0.0
210
0.0
220
0.0
230
1.0
1
7'-0{\H1.000000x;\S3#4;}"
40
2.5
41
0.0
44
1.0
11
0.707106781186548
21
0.707106781186547
31
0.0
71
5
72
1
73
1
7
Standard
0
POINT
5
16C8
330
13E6
100
AcDbEntity
8
Defpoints
62
0
440
16777216
6
ByLayer
370
-1
48
1.0
60
0
100
AcDbPoint
10
120.0
20
-180.0
30
0.0
39
0.0
210
0.0
220
0.0
230
1.0
50
360.0
0
POINT
5
16C9
330
13E6
100
AcDbEntity
8
Defpoints
62
0
440
16777216
6
ByLayer
370
-1
48
1.0
60
0
100
AcDbPoint
10
180.0
20
-120.0
30
0.0
39
0.0
210
0.0
220
0.0
230
1.0
50
360.0
0
POINT
5
16CA
330
13E6
100
AcDbEntity
8
Defpoints
62
0
440
16777216
6
ByLayer
370
-1
48
1.0
60
0
100
AcDbPoint
10
170.0
20
-110.0
30
0.0
39
0.0
210
0.0
220
0.0
230
1.0
50
360.0
0
ENDBLK
5
13E8
330
13E6
100
AcDbEntity
8
0
100
AcDbBlockEnd
0
BLOCK
5
1796
330
1788
100
AcDbEntity
8
0
100
AcDbBlockBegin
2
*T12
70
1
10
0.0
20
0.0
30
0.0
3
*T12
4

0
SOLID
5
17B8
330
1788
100
AcDbEntity
8
Layer1
62
165
440
16777216
6
ByLayer
370
-1
48
1.0
60
0
100
AcDbTrace
10
0.0
20
-46.5714285714287
30
0.0
11
0.0
21
-69.0714285714287
31
0.0
12
180.0
22
-46.5714285714287
32
0.0
13
180.0
23
-69.0714285714287
33
0.0
39
0.0
210
0.0
220
0.0
230
1.0
0
MTEXT
5
1798
330
1788
100
AcDbEntity
8
Layer1
62
0
440
16777216
6
ByLayer
370
-1
48
1.0
60
0
100
AcDbMText
10
90.0
20
-6.57142857142856
30
0.0
210
0.0
220
0.0
230
1.0
1
Table sample
40
6.0
41
177.0
44
1.0
11
1.0
21
0.0
31
0.0
71
5
72
5
73
1
7
Standard
0
MTEXT
5
1799
330
1788
100
AcDbEntity
8
Layer1
62
0
440
16777216
6
ByLayer
370
-1
48
1.0
60
0
100
AcDbMText
10
30.0
20
-18.7142857142857
30
0.0
210
0.0
220
0.0
230
1.0
1
Text
40
4.5
41
57.0
44
1.0
11
1.0
21
0.0
31
0.0
71
5
72
5
73
1
7
Standard
0
MTEXT
5
179A
330
1788
100
AcDbEntity
8
Layer1
62
0
440
16777216
6
ByLayer
370
-1
48
1.0
60
0
100
AcDbMText
10
90.0
20
-18.7142857142857
30
0.0
210
0.0
220
0.0
230
1.0
1
Text
40
4.5
41
57.0
44
1.0
11
1.0
21
0.0
31
0.0
71
5
72
5
73
1
7
Standard
0
MTEXT
5
179B
330
1788
100
AcDbEntity
8
Layer1
62
0
440
16777216
6
ByLayer
370
-1
48
1.0
60
0
100
AcDbMText
10
150.0
20
-18.7142857142857
30
0.0
210
0.0
220
0.0
230
1.0
1
Text
40
4.5
41
57.0
44
1.0
11
1.0
21
0.0
31
0.0
71
5
72
5
73
1
7
Standard
0
MTEXT
5
179E
330
1788
100
AcDbEntity
8
Layer1
62
7
440
16777216
6
ByLayer
370
-1
48
1.0
60
0
100
AcDbMText
10
90.0
20
-57.8214285714287
30
0.0
210
0.0
220
0.0
230
1.0
1
This table will be imported as an           Insert entity
40
4.5
41
177.0
44
1.0
11
1.0
21
0.0
31
0.0
71
5
72
5
73
1
7
Standard
0
MTEXT
5
17A0
330
1788
100
AcDbEntity
8
Layer1
62
0
440
16777216
6
ByLayer
370
-1
48
1.0
60
0
100
AcDbMText
10
30.0
20
-70.5714285714287
30
0.0
210
0.0
220
0.0
230
1.0
1
cell text
40
4.5
41
57.0
44
1.0
11
1.0
21
0.0
31
0.0
71
2
72
5
73
1
7
Standard
0
MTEXT
5
17B3
330
1788
100
AcDbEntity
8
Layer1
62
0
440
16777216
6
ByLayer
370
-1
48
1.0
60
0
100
AcDbMText
10
90.0
20
-70.5714285714287
30
0.0
210
0.0
220
0.0
230
1.0
1
cell text
40
4.5
41
57.0
44
1.0
11
1.0
21
0.0
31
0.0
71
2
72
5
73
1
7
Standard
0
MTEXT
5
17B4
330
1788
100
AcDbEntity
8
Layer1
62
0
440
16777216
6
ByLayer
370
-1
48
1.0
60
0
100
AcDbMText
10
150.0
20
-70.5714285714287
30
0.0
210
0.0
220
0.0
230
1.0
1
cell text
40
4.5
41
57.0
44
1.0
11
1.0
21
0.0
31
0.0
71
2
72
5
73
1
7
Standard
0
LINE
5
1789
330
1788
100
AcDbEntity
8
Layer1
62
0
440
16777216
6
ByBlock
370
-2
48
1.0
60
0
100
AcDbLine
10
0.0
20
0.0
30
0.0
11
180.0
21
0.0
31
0.0
39
0.0
210
0.0
220
0.0
230
1.0
0
LINE
5
178A
330
1788
100
AcDbEntity
8
Layer1
62
0
440
16777216
6
ByBlock
370
-2
48
1.0
60
0
100
AcDbLine
10
0.0
20
-13.1428571428572
30
0.0
11
180.0
21
-13.1428571428572
31
0.0
39
0.0
210
0.0
220
0.0
230
1.0
0
LINE
5
178B
330
1788
100
AcDbEntity
8
Layer1
62
0
440
16777216
6
ByBlock
370
-2
48
1.0
60
0
100
AcDbLine
10
0.0
20
-24.2857142857143
30
0.0
11
180.0
21
-24.2857142857143
31
0.0
39
0.0
210
0.0
220
0.0
230
1.0
0
LINE
5
178C
330
1788
100
AcDbEntity
8
Layer1
62
0
440
16777216
6
ByBlock
370
-2
48
1.0
60
0
100
AcDbLine
10
0.0
20
-35.4285714285715
30
0.0
11
180.0
21
-35.4285714285715
31
0.0
39
0.0
210
0.0
220
0.0
230
1.0
0
LINE
5
178D
330
1788
100
AcDbEntity
8
Layer1
62
63
440
16777216
6
ByBlock
370
40
48
1.0
60
0
100
AcDbLine
10
0.0
20
-46.5714285714287
30
0.0
11
180.0
21
-46.5714285714287
31
0.0
39
0.0
210
0.0
220
0.0
230
1.0
0
LINE
5
178E
330
1788
100
AcDbEntity
8
Layer1
62
63
440
16777216
6
ByBlock
370
40
48
1.0
60
0
100
AcDbLine
10
0.0
20
-69.0714285714287
30
0.0
11
180.0
21
-69.0714285714287
31
0.0
39
0.0
210
0.0
220
0.0
230
1.0
0
LINE
5
178F
330
1788
100
AcDbEntity
8
Layer1
62
0
440
16777216
6
ByBlock
370
-2
48
1.0
60
0
100
AcDbLine
10
0.0
20
-80.2142857142858
30
0.0
11
180.0
21
-80.2142857142858
31
0.0
39
0.0
210
0.0
220
0.0
230
1.0
0
LINE
5
1790
330
1788
100
AcDbEntity
8
Layer1
62
0
440
16777216
6
ByBlock
370
-2
48
1.0
60
0
100
AcDbLine
10
0.0
20
0.0
30
0.0
11
0.0
21
-46.5714285714287
31
0.0
39
0.0
210
0.0
220
0.0
230
1.0
0
LINE
5
1791
330
1788
100
AcDbEntity
8
Layer1
62
63
440
16777216
6
ByBlock
370
40
48
1.0
60
0
100
AcDbLine
10
0.0
20
-46.5714285714287
30
0.0
11
0.0
21
-69.0714285714287
31
0.0
39
0.0
210
0.0
220
0.0
230
1.0
0
LINE
5
1792
330
1788
100
AcDbEntity
8
Layer1
62
0
440
16777216
6
ByBlock
370
-2
48
1.0
60
0
100
AcDbLine
10
0.0
20
-69.0714285714287
30
0.0
11
0.0
21
-80.2142857142858
31
0.0
39
0.0
210
0.0
220
0.0
230
1.0
0
LINE
5
1793
330
1788
100
AcDbEntity
8
Layer1
62
0
440
16777216
6
ByBlock
370
-2
48
1.0
60
0
100
AcDbLine
10
60.0
20
-13.1428571428572
30
0.0
11
60.0
21
-46.5714285714287
31
0.0
39
0.0
210
0.0
220
0.0
230
1.0
0
LINE
5
1794
330
1788
100
AcDbEntity
8
Layer1
62
0
440
16777216
6
ByBlock
370
-2
48
1.0
60
0
100
AcDbLine
10
60.0
20
-69.0714285714287
30
0.0
11
60.0
21
-80.2142857142858
31
0.0
39
0.0
210
0.0
220
0.0
230
1.0
0
LINE
5
17A2
330
1788
100
AcDbEntity
8
Layer1
62
0
440
16777216
6
ByBlock
370
-2
48
1.0
60
0
100
AcDbLine
10
120.0
20
-13.1428571428572
30
0.0
11
120.0
21
-46.5714285714287
31
0.0
39
0.0
210
0.0
220
0.0
230
1.0
0
LINE
5
17A3
330
1788
100
AcDbEntity
8
Layer1
62
0
440
16777216
6
ByBlock
370
-2
48
1.0
60
0
100
AcDbLine
10
120.0
20
-69.0714285714287
30
0.0
11
120.0
21
-80.2142857142858
31
0.0
39
0.0
210
0.0
220
0.0
230
1.0
0
LINE
5
17B9
330
1788
100
AcDbEntity
8
Layer1
62
0
440
16777216
6
ByBlock
370
-2
48
1.0
60
0
100
AcDbLine
10
180.0
20
0.0
30
0.0
11
180.0
21
-46.5714285714287
31
0.0
39
0.0
210
0.0
220
0.0
230
1.0
0
LINE
5
17BA
330
1788
100
AcDbEntity
8
Layer1
62
63
440
16777216
6
ByBlock
370
40
48
1.0
60
0
100
AcDbLine
10
180.0
20
-46.5714285714287
30
0.0
11
180.0
21
-69.0714285714287
31
0.0
39
0.0
210
0.0
220
0.0
230
1.0
0
LINE
5
17BB
330
1788
100
AcDbEntity
8
Layer1
62
0
440
16777216
6
ByBlock
370
-2
48
1.0
60
0
100
AcDbLine
10
180.0
20
-69.0714285714287
30
0.0
11
180.0
21
-80.2142857142858
31
0.0
39
0.0
210
0.0
220
0.0
230
1.0
0
LINE
5
17BC
330
1788
100
AcDbEntity
8
Defpoints
62
8
440
16777216
6
ByLayer
370
0
48
1.0
60
1
100
AcDbLine
10
0.0
20
0.0
30
0.0
11
0.0
21
0.0
31
0.0
39
0.0
210
0.0
220
0.0
230
1.0
0
ENDBLK
5
1797
330
1788
100
AcDbEntity
8
0
100
AcDbBlockEnd
0
BLOCK
5
1C02
330
1C01
100
AcDbEntity
8
0
100
AcDbBlockBegin
2
*D13
70
1
10
0.0
20
0.0
30
0.0
3
*D13
4

0
LINE
5
1C25
330
1C01
100
AcDbEntity
8
Layer1
62
0
440
16777216
6
ByLayer
370
-2
48
1.0
60
0
100
AcDbLine
10
869.950299204842
20
-182.089367064763
30
0.0
11
882.312872153364
21
-168.085264253307
31
0.0
39
0.0
210
0.0
220
0.0
230
1.0
0
LINE
5
1C26
330
1C01
100
AcDbEntity
8
Layer1
62
0
440
16777216
6
ByLayer
370
-2
48
1.0
60
0
100
AcDbLine
10
810.413626602022
20
-129.531451140115
30
0.0
11
822.776199550544
21
-115.52734832866
31
0.0
39
0.0
210
0.0
220
0.0
230
1.0
0
ARC
5
1C27
330
1C01
100
AcDbEntity
8
Layer1
62
0
440
16777216
6
ByLayer
370
-2
48
1.0
60
0
100
AcDbCircle
39
0.0
10
810.0
20
-190.0
30
0.0
40
74.5000336493608
210
0.0
220
0.0
230
1.0
100
AcDbArc
50
18.2772279377632
51
78.8477884111388
0
SOLID
5
1C28
330
1C01
100
AcDbEntity
8
Layer1
62
0
440
16777216
6
ByLayer
370
-1
48
1.0
60
0
100
AcDbTrace
10
881.139304433721
20
-166.511649451222
30
0.0
11
880.343738995044
21
-166.759681862867
31
0.0
12
881.485618949319
22
-169.022361973077
32
0.0
13
881.485618949319
23
-169.022361973077
33
0.0
39
0.0
210
0.0
220
0.0
230
1.0
0
SOLID
5
1C29
330
1C01
100
AcDbEntity
8
Layer1
62
0
440
16777216
6
ByLayer
370
-1
48
1.0
60
0
100
AcDbTrace
10
824.335786539001
20
-117.316857337989
30
0.0
11
824.48322586575
21
-116.496670719364
31
0.0
12
821.948946346499
22
-116.464446048429
32
0.0
13
821.948946346499
23
-116.464446048429
33
0.0
39
0.0
210
0.0
220
0.0
230
1.0
0
MTEXT
5
1C2A
330
1C01
100
AcDbEntity
8
Layer1
62
0
440
16777216
6
ByLayer
370
-1
48
1.0
60
0
100
AcDbMText
10
860.702765075228
20
-132.564809292106
30
0.0
210
0.0
220
0.0
230
1.0
1
86,79
40
2.5
41
0.0
44
1.0
11
0.749678175815866
21
-0.66180256323574
31
0.0
71
5
72
1
73
1
7
Standard
0
ARC
5
1C2B
330
1C01
100
AcDbEntity
8
Layer1
62
0
440
16777216
6
Continuous
370
-2
48
1.0
60
0
100
AcDbCircle
39
0.0
10
853.979952655691
20
-128.218013018652
30
0.0
40
2.38095238095241
210
0.0
220
0.0
230
1.0
100
AcDbArc
50
318.562508174449
51
138.562508174452
0
POINT
5
1C2C
330
1C01
100
AcDbEntity
8
Defpoints
62
0
440
16777216
6
ByLayer
370
-1
48
1.0
60
0
100
AcDbPoint
10
810.0
20
-190.0
30
0.0
39
0.0
210
0.0
220
0.0
230
1.0
50
360.0
0
POINT
5
1C2D
330
1C01
100
AcDbEntity
8
Defpoints
62
0
440
16777216
6
ByLayer
370
-1
48
1.0
60
0
100
AcDbPoint
10
869.53667260282
20
-182.557915924647
30
0.0
39
0.0
210
0.0
220
0.0
230
1.0
50
360.0
0
POINT
5
1C2E
330
1C01
100
AcDbEntity
8
Defpoints
62
0
440
16777216
6
ByLayer
370
-1
48
1.0
60
0
100
AcDbPoint
10
810.0
20
-130.0
30
0.0
39
0.0
210
0.0
220
0.0
230
1.0
50
360.0
0
POINT
5
1C2F
330
1C01
100
AcDbEntity
8
Defpoints
62
0
440
16777216
6
ByLayer
370
-1
48
1.0
60
0
100
AcDbPoint
10
868.845455576626
20
-144.311189862996
30
0.0
39
0.0
210
0.0
220
0.0
230
1.0
50
360.0
0
ENDBLK
5
1C03
330
1C01
100
AcDbEntity
8
0
100
AcDbBlockEnd
0
BLOCK
5
1C51
330
1C50
100
AcDbEntity
8
0
100
AcDbBlockBegin
2
*D15
70
1
10
0.0
20
0.0
30
0.0
3
*D15
4

0
LINE
5
1C53
330
1C50
100
AcDbEntity
8
0
62
0
440
16777216
6
ByLayer
370
-2
48
1.0
60
0
100
AcDbLine
10
903.262928214014
20
-193.122253251078
30
0.0
11
918.335545930078
21
-188.418124341248
31
0.0
39
0.0
210
0.0
220
0.0
230
1.0
0
LINE
5
1C54
330
1C50
100
AcDbEntity
8
0
62
0
440
16777216
6
ByLayer
370
-2
48
1.0
60
0
100
AcDbLine
10
804.015848748182
20
-163.422124614225
30
0.0
11
794.00499909047
21
-151.211656861287
31
0.0
39
0.0
210
0.0
220
0.0
230
1.0
0
ARC
5
1C55
330
1C50
100
AcDbEntity
8
0
62
0
440
16777216
6
ByLayer
370
-2
48
1.0
60
0
100
AcDbCircle
39
0.0
10
843.625507839343
20
-211.734953352482
30
0.0
40
77.0140677875749
210
0.0
220
0.0
230
1.0
100
AcDbArc
50
19.1930158814998
51
127.486892934851
0
SOLID
5
1C56
330
1C50
100
AcDbEntity
8
0
62
0
440
16777216
6
ByLayer
370
-1
48
1.0
60
0
100
AcDbTrace
10
916.754538704106
20
-186.285886006017
30
0.0
11
915.963182083187
21
-186.547035662293
31
0.0
12
917.142309362475
22
-188.79053069691
32
0.0
13
917.142309362475
23
-188.79053069691
33
0.0
39
0.0
210
0.0
220
0.0
230
1.0
0
SOLID
5
1C57
330
1C50
100
AcDbEntity
8
0
62
0
440
16777216
6
ByLayer
370
-1
48
1.0
60
0
100
AcDbTrace
10
797.015200109268
20
-150.951324587131
30
0.0
11
796.497384461419
21
-150.29839932396
31
0.0
12
794.797516495832
22
-152.178308899094
32
0.0
13
794.797516495832
23
-152.178308899094
33
0.0
39
0.0
210
0.0
220
0.0
230
1.0
0
MTEXT
5
1C58
330
1C50
100
AcDbEntity
8
0
62
0
440
16777216
6
ByLayer
370
-1
48
1.0
60
0
100
AcDbMText
10
866.310674078718
20
-135.929339040724
30
0.0
210
0.0
220
0.0
230
1.0
1
120,92
40
2.5
41
0.0
44
1.0
11
0.95802264877315
21
-0.286692525953639
31
0.0
71
5
72
1
73
1
7
Standard
0
ARC
5
1C59
330
1C50
100
AcDbEntity
8
0
62
0
440
16777216
6
Continuous
370
-2
48
1.0
60
0
100
AcDbCircle
39
0.0
10
857.415599802822
20
-134.510087498011
30
0.0
40
2.38095238095252
210
0.0
220
0.0
230
1.0
100
AcDbArc
50
343.339954408175
51
163.339954408176
0
POINT
5
1C5A
330
1C50
100
AcDbEntity
8
Defpoints
62
0
440
16777216
6
ByLayer
370
-1
48
1.0
60
0
100
AcDbPoint
10
843.625507839343
20
-211.734953352482
30
0.0
39
0.0
210
0.0
220
0.0
230
1.0
50
360.0
0
POINT
5
1C5B
330
1C50
100
AcDbEntity
8
Defpoints
62
0
440
16777216
6
ByLayer
370
-1
48
1.0
60
0
100
AcDbPoint
10
902.666309930213
20
-193.308456428909
30
0.0
39
0.0
210
0.0
220
0.0
230
1.0
50
360.0
0
POINT
5
1C5C
330
1C50
100
AcDbEntity
8
Defpoints
62
0
440
16777216
6
ByLayer
370
-1
48
1.0
60
0
100
AcDbPoint
10
804.412107450863
20
-163.905450633129
30
0.0
39
0.0
210
0.0
220
0.0
230
1.0
50
360.0
0
POINT
5
1C5D
330
1C50
100
AcDbEntity
8
Defpoints
62
0
440
16777216
6
ByLayer
370
-1
48
1.0
60
0
100
AcDbPoint
10
888.160507197033
20
-148.903428865169
30
0.0
39
0.0
210
0.0
220
0.0
230
1.0
50
360.0
0
ENDBLK
5
1C52
330
1C50
100
AcDbEntity
8
0
100
AcDbBlockEnd
0
BLOCK
5
1C60
330
1C5F
100
AcDbEntity
8
0
100
AcDbBlockBegin
2
*D16
70
1
10
0.0
20
0.0
30
0.0
3
*D16
4

0
LINE
5
1C99
330
1C5F
100
AcDbEntity
8
Layer1
62
0
440
16777216
6
ByLayer
370
-2
48
1.0
60
0
100
AcDbLine
10
881.904497783115
20
-176.036275214593
30
0.0
11
892.069003702852
21
-173.301746044579
31
0.0
39
0.0
210
0.0
220
0.0
230
1.0
0
LINE
5
1C9A
330
1C5F
100
AcDbEntity
8
Layer1
62
0
440
16777216
6
ByLayer
370
-2
48
1.0
60
0
100
AcDbLine
10
805.706821605034
20
-142.053112890717
30
0.0
11
800.94946595858
21
-132.663629538201
31
0.0
39
0.0
210
0.0
220
0.0
230
1.0
0
ARC
5
1C9B
330
1C5F
100
AcDbEntity
8
Layer1
62
0
440
16777216
6
ByLayer
370
-2
48
1.0
60
0
100
AcDbCircle
39
0.0
10
830.0
20
-190.0
30
0.0
40
63.0259123297708
210
0.0
220
0.0
230
1.0
100
AcDbArc
50
17.3304717046396
51
114.597041359508
0
SOLID
5
1C9C
330
1C5F
100
AcDbEntity
8
Layer1
62
0
440
16777216
6
ByLayer
370
-1
48
1.0
60
0
100
AcDbTrace
10
890.564828628544
20
-171.109472422605
30
0.0
11
889.764559724999
21
-171.3418818167
31
0.0
12
890.861922359059
22
-173.626483830286
32
0.0
13
890.861922359059
23
-173.626483830286
33
0.0
39
0.0
210
0.0
220
0.0
230
1.0
0
SOLID
5
1C9D
330
1C5F
100
AcDbEntity
8
Layer1
62
0
440
16777216
6
ByLayer
370
-1
48
1.0
60
0
100
AcDbTrace
10
803.947393030434
20
-133.068553124356
30
0.0
11
803.585571882575
21
-132.317866837412
31
0.0
12
801.514423595672
22
-133.778673424463
32
0.0
13
801.514423595672
23
-133.778673424463
33
0.0
39
0.0
210
0.0
220
0.0
230
1.0
0
MTEXT
5
1C9E
330
1C5F
100
AcDbEntity
8
Layer1
62
0
440
16777216
6
ByLayer
370
-1
48
1.0
60
0
100
AcDbMText
10
856.53205846424
20
-130.509326944666
30
0.0
210
0.0
220
0.0
230
1.0
1
94,4
40
2.5
41
0.0
44
1.0
11
0.913287986362902
21
-0.407314441144917
31
0.0
71
5
72
1
73
1
7
Standard
0
ARC
5
1C9F
330
1C5F
100
AcDbEntity
8
Layer1
62
0
440
16777216
6
Continuous
370
-2
48
1.0
60
0
100
AcDbCircle
39
0.0
10
849.795486603845
20
-128.808410218213
30
0.0
40
2.38095238095241
210
0.0
220
0.0
230
1.0
100
AcDbArc
50
335.963756532074
51
155.963756532074
0
POINT
5
1CA0
330
1C5F
100
AcDbEntity
8
Defpoints
62
0
440
16777216
6
ByLayer
370
-1
48
1.0
60
0
100
AcDbPoint
10
830.0
20
-190.0
30
0.0
39
0.0
210
0.0
220
0.0
230
1.0
50
360.0
0
POINT
5
1CA1
330
1C5F
100
AcDbEntity
8
Defpoints
62
0
440
16777216
6
ByLayer
370
-1
48
1.0
60
0
100
AcDbPoint
10
881.300957111218
20
-176.198644107447
30
0.0
39
0.0
210
0.0
220
0.0
230
1.0
50
360.0
0
POINT
5
1CA2
330
1C5F
100
AcDbEntity
8
Defpoints
62
0
440
16777216
6
ByLayer
370
-1
48
1.0
60
0
100
AcDbPoint
10
805.98930042358
20
-142.610634833848
30
0.0
39
0.0
210
0.0
220
0.0
230
1.0
50
360.0
0
POINT
5
1CA3
330
1C5F
100
AcDbEntity
8
Defpoints
62
0
440
16777216
6
ByLayer
370
-1
48
1.0
60
0
100
AcDbPoint
10
871.352834073925
20
-142.437317789528
30
0.0
39
0.0
210
0.0
220
0.0
230
1.0
50
360.0
0
ENDBLK
5
1C61
330
1C5F
100
AcDbEntity
8
0
100
AcDbBlockEnd
0
BLOCK
5
1CA6
330
1CA5
100
AcDbEntity
8
0
100
AcDbBlockBegin
2
*D17
70
1
10
0.0
20
0.0
30
0.0
3
*D17
4

0
LINE
5
1CC9
330
1CA5
100
AcDbEntity
8
Layer1
62
0
440
16777216
6
ByLayer
370
-2
48
1.0
60
0
100
AcDbLine
10
890.212747967904
20
-161.001349382874
30
0.0
11
901.148836521594
21
-154.685586475632
31
0.0
39
0.0
210
0.0
220
0.0
230
1.0
0
LINE
5
1CCA
330
1CA5
100
AcDbEntity
8
Layer1
62
0
440
16777216
6
ByLayer
370
-2
48
1.0
60
0
100
AcDbLine
10
809.341057965791
20
-140.783426882346
30
0.0
11
802.663691786532
21
-130.064300291866
31
0.0
39
0.0
210
0.0
220
0.0
230
1.0
0
ARC
5
1CCB
330
1CA5
100
AcDbEntity
8
Layer1
62
0
440
16777216
6
ByLayer
370
-2
48
1.0
60
0
100
AcDbCircle
39
0.0
10
840.0
20
-190.0
30
0.0
40
69.3636531452288
210
0.0
220
0.0
230
1.0
100
AcDbArc
50
32.0722709550489
51
119.855242109098
0
SOLID
5
1CCC
330
1CA5
100
AcDbEntity
8
Layer1
62
0
440
16777216
6
ByLayer
370
-1
48
1.0
60
0
100
AcDbTrace
10
899.134307302595
20
-152.953848429142
30
0.0
11
898.420298703318
21
-153.38354153428
31
0.0
12
900.066382318371
22
-155.310720779541
32
0.0
13
900.066382318371
23
-155.310720779541
33
0.0
39
0.0
210
0.0
220
0.0
230
1.0
0
SOLID
5
1CCD
330
1CA5
100
AcDbEntity
8
Layer1
62
0
440
16777216
6
ByLayer
370
-1
48
1.0
60
0
100
AcDbTrace
10
805.683952186823
20
-130.199454905156
30
0.0
11
805.256153119291
21
-129.484309883316
31
0.0
12
803.324617587536
22
-131.125279596833
32
0.0
13
803.324617587536
23
-131.125279596833
33
0.0
39
0.0
210
0.0
220
0.0
230
1.0
0
MTEXT
5
1CCE
330
1CA5
100
AcDbEntity
8
Layer1
62
0
440
16777216
6
ByLayer
370
-1
48
1.0
60
0
100
AcDbMText
10
857.335657844714
20
-120.657368621143
30
0.0
210
0.0
220
0.0
230
1.0
1
92,02
40
2.5
41
0.0
44
1.0
11
0.970142500145332
21
-0.242535625036332
31
0.0
71
5
72
1
73
1
7
Standard
0
ARC
5
1CCF
330
1CA5
100
AcDbEntity
8
Layer1
62
0
440
16777216
6
Continuous
370
-2
48
1.0
60
0
100
AcDbCircle
39
0.0
10
849.308883587559
20
-119.877789826384
30
0.0
40
2.38095238095241
210
0.0
220
0.0
230
1.0
100
AcDbArc
50
345.963756532075
51
165.963756532072
0
POINT
5
1CD0
330
1CA5
100
AcDbEntity
8
Defpoints
62
0
440
16777216
6
ByLayer
370
-1
48
1.0
60
0
100
AcDbPoint
10
840.0
20
-190.0
30
0.0
39
0.0
210
0.0
220
0.0
230
1.0
50
360.0
0
POINT
5
1CD1
330
1CA5
100
AcDbEntity
8
Defpoints
62
0
440
16777216
6
ByLayer
370
-1
48
1.0
60
0
100
AcDbPoint
10
889.671520866293
20
-161.313916534829
30
0.0
39
0.0
210
0.0
220
0.0
230
1.0
50
360.0
0
POINT
5
1CD2
330
1CA5
100
AcDbEntity
8
Defpoints
62
0
440
16777216
6
ByLayer
370
-1
48
1.0
60
0
100
AcDbPoint
10
809.671520866293
20
-141.313916534829
30
0.0
39
0.0
210
0.0
220
0.0
230
1.0
50
360.0
0
POINT
5
1CD3
330
1CA5
100
AcDbEntity
8
Defpoints
62
0
440
16777216
6
ByLayer
370
-1
48
1.0
60
0
100
AcDbPoint
10
874.003538193815
20
-129.542777371489
30
0.0
39
0.0
210
0.0
220
0.0
230
1.0
50
360.0
0
ENDBLK
5
1CA7
330
1CA5
100
AcDbEntity
8
0
100
AcDbBlockEnd
0
ENDSEC
0
SECTION
2
ENTITIES
0
VIEWPORT
5
4A4
330
D2
100
AcDbEntity
67
1
8
0
62
256
6
ByLayer
370
-1
48
1.0
60
0
100
AcDbViewport
10
128.5
20
97.5
30
0.0
40
458.559473684211
41
222.18
68
1
69
1
12
128.5
22
97.5
13
0.0
23
0.0
14
10.0
24
10.0
15
10.0
25
10.0
16
0.0
26
0.0
36
1.0
17
0.0
27
0.0
37
0.0
42
50.0
43
0.0
44
0.0
45
222.18
50
0.0
51
0.0
72
1000
90
819232
110
0.0
120
0.0
130
0.0
111
1.0
121
0.0
131
0.0
112
0.0
122
1.0
132
0.0
0
VIEWPORT
5
4A8
330
D2
100
AcDbEntity
67
1
8
0
62
256
6
ByLayer
370
-1
48
1.0
60
0
100
AcDbViewport
10
128.5
20
97.5
30
0.0
40
205.6
41
156.0
68
2
69
2
12
-0.0000016465823478
22
-80.9045257568359
13
0.0
23
0.0
14
10.0
24
10.0
15
10.0
25
10.0
16
-0.0000000000004547
26
0.0
36
2078.05793717309
17
450.000001646582
27
-44.0954742431641
37
25.0
42
50.0
43
0.0
44
0.0
45
688.431242289077
50
0.0
51
0.0
72
1000
90
820064
110
0.0
120
0.0
130
0.0
111
1.0
121
0.0
131
0.0
112
0.0
122
1.0
132
0.0
0
ARC
5
229
330
1F
100
AcDbEntity
67
0
8
Layer1
62
256
6
ByLayer
370
-1
48
1.0
60
0
100
AcDbCircle
39
0.0
10
50.0
20
0.0
30
0.0
40
50.0
210
0.0
220
0.0
230
1.0
100
AcDbArc
50
0.0
51
180.0
0
CIRCLE
5
22A
330
1F
100
AcDbEntity
67
0
8
Layer1
62
256
6
ByLayer
370
-1
48
1.0
60
0
100
AcDbCircle
10
150.0
20
50.0
30
0.0
40
50.0
39
0.0
210
0.0
220
0.0
230
1.0
0
ELLIPSE
5
23A
330
1F
100
AcDbEntity
67
0
8
Layer1
62
256
6
ByLayer
370
-1
48
1.0
60
0
100
AcDbEllipse
10
350.0
20
50.0
30
0.0
11
-50.0
21
0.0000000000000061
31
0.0
210
0.0
220
0.0
230
1.0
40
0.6
41
0.0
42
6.28318530717959
0
3DFACE
5
23B
330
1F
100
AcDbEntity
67
0
8
Layer1
62
256
6
ByLayer
370
-1
48
1.0
60
0
100
AcDbFace
10
220.0
20
20.0
30
0.0
11
290.0
21
30.0
31
0.0
12
260.0
22
90.0
32
0.0
13
220.0
23
60.0
33
0.0
70
0
0
LWPOLYLINE
5
23C
330
1F
100
AcDbEntity
67
0
8
Layer2
62
256
6
ByLayer
370
-1
48
1.0
60
0
100
AcDbPolyline
90
4
70
1
38
0.0
39
0.0
10
20.0
20
-80.0
40
0.0
41
5.0
42
0.0
10
90.0
20
-70.0
40
5.0
41
0.0
42
0.0
10
60.0
20
-10.0
40
0.0
41
5.0
42
0.0
10
20.0
20
-40.0
40
5.0
41
0.0
42
0.0
210
0.0
220
0.0
230
1.0
0
HATCH
5
240
330
1F
100
AcDbEntity
67
0
8
Layer1
62
256
6
ByLayer
370
-1
48
1.0
60
0
100
AcDbHatch
10
0.0
20
0.0
30
0.0
210
0.0
220
0.0
230
1.0
2
LINE
70
0
71
0
91
1
92
5
93
4
72
1
10
420.0
20
20.0
11
490.0
21
30.0
72
1
10
490.0
20
30.0
11
460.0
21
90.0
72
1
10
460.0
20
90.0
11
420.0
21
60.0
72
1
10
420.0
20
60.0
11
420.0
21
20.0
97
0
75
1
76
1
52
45.0
41
1.0
77
0
78
1
53
45.0
43
-100.0
44
0.0
45
-2.24506403026729
46
2.24506403026729
79
0
47
0.0
98
1
10
0.0
20
0.0
1001
GradientColor1ACI
1070
5
1001
GradientColor2ACI
1070
2
1001
ACAD
1010
0.0
1020
0.0
1030
0.0
0
IMAGE
5
249
330
1F
100
AcDbEntity
67
0
8
Layer1
62
256
6
ByLayer
370
-1
48
1.0
60
0
100
AcDbRasterImage
10
510.0
20
10.0
30
0.0
11
0.307692307692308
21
0.0
31
0.0
12
0.0
22
0.307692307692308
32
0.0
13
260.0
23
260.0
340
247
70
7
280
0
281
50
282
50
283
0
360
1E0B
71
1
91
2
14
-0.5
24
-0.5
14
259.5
24
259.5
0
LINE
5
24A
330
1F
100
AcDbEntity
67
0
8
Layer1
62
256
6
ByLayer
370
-1
48
1.0
60
0
100
AcDbLine
10
700.0
20
0.0
30
0.0
11
800.0
21
100.0
31
0.0
39
0.0
210
0.0
220
0.0
230
1.0
1001
NETDXF
1002
{
1011
-98.80207075219
1021
0.0704664263417644
1031
0.0
1040
3.1416
1070
5
1000
sample xData entry
1002
}
0
INSERT
5
263
330
1F
100
AcDbEntity
67
0
8
Layer1
62
256
6
ByLayer
370
-1
48
1.0
60
0
100
AcDbBlockReference
2
MyBlock
10
650.0
20
50.0
30
0.0
41
1.0
42
1.0
43
1.0
50
0.0
210
0.0
220
0.0
230
1.0
66
1
0
ATTRIB
5
264
330
263
100
AcDbEntity
8
0
62
256
6
ByLayer
370
-1
48
1.0
60
0
100
AcDbText
10
650.0
20
50.0
30
0.0
40
5.0
41
1.0
7
Standard
1
17
11
650.0
21
50.0
31
0.0
50
0.0
51
0.0
210
0.0
220
0.0
230
1.0
71
0
72
0
100
AcDbAttribute
74
0
2
ATTINFO
70
0
0
SEQEND
5
1CE1
100
AcDbEntity
8
Layer1
0
MTEXT
5
273
330
1F
100
AcDbEntity
67
0
8
Layer2
62
256
6
ByLayer
370
-1
48
1.0
60
0
100
AcDbMText
10
210.0
20
-10.0
30
0.0
210
0.0
220
0.0
230
1.0
1
This is a sample multiline text. This is a sample multiline text.
40
7.5
41
80.0
44
1.0
11
1.0
21
0.0
31
0.0
71
1
72
5
73
1
7
Standard
1001
ACAD
1000
MTEXTBEGIN
1070
73
1070
1
1070
44
1040
1.0
1070
74
1070
0
1000
MTEXTEND
0
POINT
5
274
330
1F
100
AcDbEntity
67
0
8
Layer2
62
256
6
ByLayer
370
-1
48
1.0
60
0
100
AcDbPoint
10
350.0
20
-50.0
30
0.0
39
0.0
210
0.0
220
0.0
230
1.0
50
360.0
0
POLYLINE
5
275
330
1F
100
AcDbEntity
67
0
8
Layer2
62
256
6
ByLayer
370
-1
48
1.0
60
0
100
AcDbPolyFaceMesh
10
0.0
20
0.0
30
0.0
70
64
75
0
210
0.0
220
0.0
230
1.0
0
VERTEX
5
1CE2
330
275
100
AcDbEntity
8
Layer2
62
256
100
AcDbVertex
100
AcDbPolyFaceMeshVertex
10
410.0
20
-90.0
30
0.0
70
192
40
0.0
41
0.0
0
VERTEX
5
1CE3
330
275
100
AcDbEntity
8
Layer2
62
256
100
AcDbVertex
100
AcDbPolyFaceMeshVertex
10
490.0
20
-80.0
30
0.0
70
192
40
0.0
41
0.0
0
VERTEX
5
1CE4
330
275
100
AcDbEntity
8
Layer2
62
256
100
AcDbVertex
100
AcDbPolyFaceMeshVertex
10
470.0
20
-50.0
30
0.0
70
192
40
0.0
41
0.0
0
VERTEX
5
1CE5
330
275
100
AcDbEntity
8
Layer2
62
256
100
AcDbVertex
100
AcDbPolyFaceMeshVertex
10
490.0
20
-10.0
30
0.0
70
192
40
0.0
41
0.0
0
VERTEX
5
1CE6
330
275
100
AcDbEntity
8
Layer2
62
256
100
AcDbVertex
100
AcDbPolyFaceMeshVertex
10
420.0
20
-30.0
30
0.0
70
192
40
0.0
41
0.0
0
VERTEX
5
1CE7
330
275
100
AcDbEntity
8
Layer2
100
AcDbFaceRecord
71
1
72
2
73
3
74
-4
10
0.0
20
0.0
30
0.0
70
128
40
0.0
41
0.0
0
VERTEX
5
1CE8
330
275
100
AcDbEntity
8
Layer2
100
AcDbFaceRecord
71
-1
72
4
73
5
10
0.0
20
0.0
30
0.0
70
128
40
0.0
41
0.0
0
SEQEND
5
1CE9
330
275
100
AcDbEntity
8
Layer2
0
POLYLINE
5
27E
330
1F
100
AcDbEntity
67
0
8
Layer2
62
256
6
ByLayer
370
-1
48
1.0
60
0
100
AcDb3dPolyline
10
0.0
20
0.0
30
0.0
70
8
75
0
210
0.0
220
0.0
230
1.0
0
VERTEX
5
1CEA
330
27E
100
AcDbEntity
8
Layer2
62
256
100
AcDbVertex
100
AcDb3dPolylineVertex
10
510.0
20
-90.0
30
0.0
70
32
40
0.0
41
0.0
0
VERTEX
5
1CEB
330
27E
100
AcDbEntity
8
Layer2
62
256
100
AcDbVertex
100
AcDb3dPolylineVertex
10
590.0
20
-80.0
30
50.0
70
32
40
0.0
41
0.0
0
VERTEX
5
1CEC
330
27E
100
AcDbEntity
8
Layer2
62
256
100
AcDbVertex
100
AcDb3dPolylineVertex
10
550.0
20
-50.0
30
0.0
70
32
40
0.0
41
0.0
0
VERTEX
5
1CED
330
27E
100
AcDbEntity
8
Layer2
62
256
100
AcDbVertex
100
AcDb3dPolylineVertex
10
590.0
20
-10.0
30
50.0
70
32
40
0.0
41
0.0
0
VERTEX
5
1CEE
330
27E
100
AcDbEntity
8
Layer2
62
256
100
AcDbVertex
100
AcDb3dPolylineVertex
10
520.0
20
-20.0
30
0.0
70
32
40
0.0
41
0.0
0
SEQEND
5
1CEF
330
27E
100
AcDbEntity
8
Layer2
0
SOLID
5
28D
330
1F
100
AcDbEntity
67
0
8
Layer2
62
256
440
33554534
6
ByLayer
370
-1
48
1.0
60
0
100
AcDbTrace
10
610.0
20
-90.0
30
0.0
11
690.0
21
-80.0
31
0.0
12
620.0
22
-30.0
32
0.0
13
680.0
23
-10.0
33
0.0
39
0.0
210
0.0
220
0.0
230
1.0
0
SPLINE
5
28E
330
1F
100
AcDbEntity
67
0
8
Layer2
62
256
6
ByLayer
370
-1
48
1.0
60
0
100
AcDbSpline
70
37
71
3
42
0.000000001
43
0.0000000001
44
0.0000000001
40
0.0
40
0.0
40
0.0
40
0.0
40
1.0
40
1.0
40
1.0
40
1.0
10
710.0
20
-100.0
30
0.0
41
1.0
10
730.0
20
-20.0
30
0.0
41
1.0
10
770.0
20
-90.0
30
0.0
41
1.0
10
790.0
20
-10.0
30
0.0
41
1.0
0
TEXT
5
28F
330
1F
100
AcDbEntity
67
0
8
Layer2
62
256
6
ByLayer
370
-1
48
1.0
60
0
100
AcDbText
1
This is a single line text
10
850.0
20
-50.0
30
0.0
40
5.0
41
1.0
50
0.0
51
0.0
7
MyTextStyle
11
850.0
21
-50.0
31
0.0
210
0.0
220
0.0
230
1.0
71
0
72
1
100
AcDbText
73
2
0
LINE
5
2AA
330
1F
100
AcDbEntity
67
0
8
EntityProperties
62
256
6
DASHED
370
-1
48
1.25
60
0
100
AcDbLine
10
0.0
20
-300.0
30
0.0
11
100.0
21
-200.0
31
0.0
39
0.0
210
0.0
220
0.0
230
1.0
0
LINE
5
2AB
330
1F
100
AcDbEntity
67
0
8
EntityProperties
62
1
6
BATTING
370
-1
48
1.0
60
0
100
AcDbLine
10
100.0
20
-300.0
30
0.0
11
200.0
21
-200.0
31
0.0
39
0.0
210
0.0
220
0.0
230
1.0
0
LINE
5
2AC
330
1F
100
AcDbEntity
67
0
8
EntityProperties
62
256
6
ByLayer
370
50
48
1.0
60
0
100
AcDbLine
10
300.0
20
-300.0
30
0.0
11
400.0
21
-200.0
31
0.0
39
0.0
210
0.0
220
0.0
230
1.0
0
LINE
5
2B1
330
1F
100
AcDbEntity
67
0
8
EntityProperties
62
200
6
GAS_LINE
370
-1
48
1.5
60
0
100
AcDbLine
10
200.0
20
-300.0
30
0.0
11
300.0
21
-200.0
31
0.0
39
0.0
210
0.0
220
0.0
230
1.0
0
MLINE
5
3A8
330
1F
100
AcDbEntity
67
0
8
Layer2
62
256
6
ByLayer
370
-1
48
1.0
60
0
100
AcDbMline
2
STANDARD
340
18
40
20.0
70
0
71
1
72
2
73
2
10
110.0
20
-90.0
30
0.0
210
0.0
220
0.0
230
1.0
11
110.0
21
-90.0
31
0.0
12
0.0
22
1.0
32
0.0
13
-1.0
23
0.0000000000000001
33
0.0
74
2
41
0.0
41
0.0
75
0
74
4
41
-20.0
41
0.0
41
32.5
41
47.5
75
0
11
110.0
21
-10.0
31
0.0
12
0.0
22
1.0
32
0.0
13
-1.0
23
0.0000000000000001
33
0.0
74
2
41
0.0
41
0.0
75
0
74
2
41
-20.0
41
0.0
75
0
0
MLINE
5
3A9
330
1F
100
AcDbEntity
67
0
8
Layer2
62
256
6
ByLayer
370
-1
48
1.0
60
0
100
AcDbMline
2
STANDARD
340
18
40
15.0
70
1
71
5
72
2
73
2
10
110.0
20
-50.0
30
0.0
210
0.0
220
0.0
230
1.0
11
110.0
21
-50.0
31
0.0
12
1.0
22
0.0
32
0.0
13
0.0000000000000002
23
1.0
33
0.0
74
2
41
7.5
41
20.0
75
0
74
2
41
-7.5
41
20.0
75
0
11
190.0
21
-50.0
31
0.0
12
1.0
22
0.0
32
0.0
13
0.0000000000000002
23
1.0
33
0.0
74
2
41
7.5
41
0.0
75
0
74
2
41
-7.5
41
0.0
75
0
0
LINE
5
3CD
102
{ACAD_REACTORS
330
3D3
102
}
330
1F
100
AcDbEntity
67
0
8
Groups
62
256
6
ByLayer
370
-1
48
1.0
60
0
100
AcDbLine
10
500.0
20
-300.0
30
0.0
11
600.0
21
-200.0
31
0.0
39
0.0
210
0.0
220
0.0
230
1.0
0
LINE
5
3CE
102
{ACAD_REACTORS
330
3D3
102
}
330
1F
100
AcDbEntity
67
0
8
Groups
62
256
6
ByLayer
370
-1
48
1.0
60
0
100
AcDbLine
10
600.0
20
-300.0
30
0.0
11
700.0
21
-200.0
31
0.0
39
0.0
210
0.0
220
0.0
230
1.0
0
LINE
5
3CF
102
{ACAD_REACTORS
330
3D3
102
}
330
1F
100
AcDbEntity
67
0
8
Groups
62
256
6
ByLayer
370
-1
48
1.0
60
0
100
AcDbLine
10
700.0
20
-300.0
30
0.0
11
800.0
21
-200.0
31
0.0
39
0.0
210
0.0
220
0.0
230
1.0
0
LINE
5
3D0
102
{ACAD_REACTORS
330
3D4
102
}
330
1F
100
AcDbEntity
67
0
8
Groups
62
2
6
ByLayer
370
-1
48
1.0
60
0
100
AcDbLine
10
800.0
20
-300.0
30
0.0
11
900.0
21
-200.0
31
0.0
39
0.0
210
0.0
220
0.0
230
1.0
0
LINE
5
3D1
102
{ACAD_REACTORS
330
3D4
102
}
330
1F
100
AcDbEntity
67
0
8
Groups
62
2
6
ByLayer
370
-1
48
1.0
60
0
100
AcDbLine
10
900.0
20
-300.0
30
0.0
11
1000.0
21
-200.0
31
0.0
39
0.0
210
0.0
220
0.0
230
1.0
0
RAY
5
44F
330
1F
100
AcDbEntity
67
0
8
ConstructionLines
62
256
6
ByLayer
370
-1
48
1.0
60
0
100
AcDbRay
10
0.0
20
100.0
30
0.0
11
0.707106781186548
21
0.707106781186548
31
0.0
0
XLINE
5
450
330
1F
100
AcDbEntity
67
0
8
ConstructionLines
62
256
6
ByLayer
370
-1
48
1.0
60
0
100
AcDbXline
10
150.0
20
150.0
30
0.0
11
1.0
21
0.0
31
0.0
0
MESH
5
504
330
1F
100
AcDbEntity
67
0
8
Layer1
62
256
6
ByLayer
370
-1
48
1.0
60
0
100
AcDbSubDMesh
71
2
72
0
91
2
92
62
10
875.0
20
50.0
30
-43.3012701892219
10
871.650635094611
20
62.5
30
-43.3012701892219
10
862.5
20
71.6506350946109
30
-43.3012701892219
10
850.0
20
75.0
30
-43.3012701892219
10
837.5
20
71.6506350946109
30
-43.3012701892219
10
828.349364905389
20
62.5
30
-43.3012701892219
10
825.0
20
50.0
30
-43.3012701892219
10
828.349364905389
20
37.5
30
-43.3012701892219
10
837.5
20
28.349364905389
30
-43.3012701892219
10
850.0
20
25.0
30
-43.3012701892219
10
862.5
20
28.349364905389
30
-43.3012701892219
10
871.650635094611
20
37.5
30
-43.3012701892219
10
893.301270189222
20
50.0
30
-25.0
10
887.5
20
71.6506350946109
30
-25.0
10
871.650635094611
20
87.5
30
-25.0
10
850.0
20
93.3012701892219
30
-25.0
10
828.349364905389
20
87.5
30
-25.0
10
812.5
20
71.6506350946109
30
-25.0
10
806.698729810778
20
50.0
30
-25.0
10
812.5
20
28.349364905389
30
-25.0
10
828.349364905389
20
12.5
30
-25.0
10
850.0
20
6.69872981077807
30
-25.0
10
871.650635094611
20
12.5
30
-25.0
10
887.5
20
28.349364905389
30
-25.0
10
900.0
20
50.0
30
0.0
10
893.301270189222
20
75.0
30
0.0
10
875.0
20
93.3012701892219
30
0.0
10
850.0
20
100.0
30
0.0
10
825.0
20
93.3012701892219
30
0.0
10
806.698729810778
20
75.0
30
0.0
10
800.0
20
50.0
30
0.0
10
806.698729810778
20
25.0
30
0.0
10
825.0
20
6.69872981077808
30
0.0
10
850.0
20
0.0
30
0.0
10
875.0
20
6.69872981077807
30
0.0
10
893.301270189222
20
25.0
30
0.0
10
893.301270189222
20
50.0
30
25.0
10
887.5
20
71.6506350946109
30
25.0
10
871.650635094611
20
87.5
30
25.0
10
850.0
20
93.3012701892219
30
25.0
10
828.349364905389
20
87.5
30
25.0
10
812.5
20
71.6506350946109
30
25.0
10
806.698729810778
20
50.0
30
25.0
10
812.5
20
28.349364905389
30
25.0
10
828.349364905389
20
12.5
30
25.0
10
850.0
20
6.69872981077806
30
25.0
10
871.650635094611
20
12.5
30
25.0
10
887.5
20
28.349364905389
30
25.0
10
875.0
20
50.0
30
43.3012701892219
10
871.650635094611
20
62.5
30
43.3012701892219
10
862.5
20
71.6506350946109
30
43.3012701892219
10
850.0
20
75.0
30
43.3012701892219
10
837.5
20
71.6506350946109
30
43.3012701892219
10
828.349364905389
20
62.5
30
43.3012701892219
10
825.0
20
50.0
30
43.3012701892219
10
828.349364905389
20
37.5
30
43.3012701892219
10
837.5
20
28.349364905389
30
43.3012701892219
10
850.0
20
25.0
30
43.3012701892219
10
862.5
20
28.349364905389
30
43.3012701892219
10
871.650635094611
20
37.5
30
43.3012701892219
10
850.0
20
50.0
30
-50.0
10
850.0
20
50.0
30
50.0
93
336
90
3
90
60
90
1
90
0
90
3
90
60
90
2
90
1
90
3
90
60
90
3
90
2
90
3
90
60
90
4
90
3
90
3
90
60
90
5
90
4
90
3
90
60
90
6
90
5
90
3
90
60
90
7
90
6
90
3
90
60
90
8
90
7
90
3
90
60
90
9
90
8
90
3
90
60
90
10
90
9
90
3
90
60
90
11
90
10
90
3
90
60
90
0
90
11
90
4
90
13
90
12
90
0
90
1
90
4
90
14
90
13
90
1
90
2
90
4
90
15
90
14
90
2
90
3
90
4
90
16
90
15
90
3
90
4
90
4
90
17
90
16
90
4
90
5
90
4
90
18
90
17
90
5
90
6
90
4
90
19
90
18
90
6
90
7
90
4
90
20
90
19
90
7
90
8
90
4
90
21
90
20
90
8
90
9
90
4
90
22
90
21
90
9
90
10
90
4
90
23
90
22
90
10
90
11
90
4
90
12
90
23
90
11
90
0
90
4
90
25
90
24
90
12
90
13
90
4
90
26
90
25
90
13
90
14
90
4
90
27
90
26
90
14
90
15
90
4
90
28
90
27
90
15
90
16
90
4
90
29
90
28
90
16
90
17
90
4
90
30
90
29
90
17
90
18
90
4
90
31
90
30
90
18
90
19
90
4
90
32
90
31
90
19
90
20
90
4
90
33
90
32
90
20
90
21
90
4
90
34
90
33
90
21
90
22
90
4
90
35
90
34
90
22
90
23
90
4
90
24
90
35
90
23
90
12
90
4
90
37
90
36
90
24
90
25
90
4
90
38
90
37
90
25
90
26
90
4
90
39
90
38
90
26
90
27
90
4
90
40
90
39
90
27
90
28
90
4
90
41
90
40
90
28
90
29
90
4
90
42
90
41
90
29
90
30
90
4
90
43
90
42
90
30
90
31
90
4
90
44
90
43
90
31
90
32
90
4
90
45
90
44
90
32
90
33
90
4
90
46
90
45
90
33
90
34
90
4
90
47
90
46
90
34
90
35
90
4
90
36
90
47
90
35
90
24
90
4
90
49
90
48
90
36
90
37
90
4
90
50
90
49
90
37
90
38
90
4
90
51
90
50
90
38
90
39
90
4
90
52
90
51
90
39
90
40
90
4
90
53
90
52
90
40
90
41
90
4
90
54
90
53
90
41
90
42
90
4
90
55
90
54
90
42
90
43
90
4
90
56
90
55
90
43
90
44
90
4
90
57
90
56
90
44
90
45
90
4
90
58
90
57
90
45
90
46
90
4
90
59
90
58
90
46
90
47
90
4
90
48
90
59
90
47
90
36
90
3
90
48
90
49
90
61
90
3
90
49
90
50
90
61
90
3
90
50
90
51
90
61
90
3
90
51
90
52
90
61
90
3
90
52
90
53
90
61
90
3
90
53
90
54
90
61
90
3
90
54
90
55
90
61
90
3
90
55
90
56
90
61
90
3
90
56
90
57
90
61
90
3
90
57
90
58
90
61
90
3
90
58
90
59
90
61
90
3
90
59
90
48
90
61
94
132
90
1
90
60
90
0
90
1
90
0
90
60
90
2
90
60
90
1
90
2
90
3
90
60
90
2
90
3
90
4
90
60
90
3
90
4
90
5
90
60
90
4
90
5
90
6
90
60
90
5
90
6
90
7
90
60
90
6
90
7
90
8
90
60
90
7
90
8
90
9
90
60
90
8
90
9
90
10
90
60
90
9
90
10
90
11
90
60
90
10
90
11
90
0
90
11
90
12
90
13
90
0
90
12
90
1
90
13
90
13
90
14
90
2
90
14
90
14
90
15
90
3
90
15
90
15
90
16
90
4
90
16
90
16
90
17
90
5
90
17
90
17
90
18
90
6
90
18
90
18
90
19
90
7
90
19
90
19
90
20
90
8
90
20
90
20
90
21
90
9
90
21
90
21
90
22
90
10
90
22
90
22
90
23
90
11
90
23
90
12
90
23
90
24
90
25
90
12
90
24
90
13
90
25
90
25
90
26
90
14
90
26
90
26
90
27
90
15
90
27
90
27
90
28
90
16
90
28
90
28
90
29
90
17
90
29
90
29
90
30
90
18
90
30
90
30
90
31
90
19
90
31
90
31
90
32
90
20
90
32
90
32
90
33
90
21
90
33
90
33
90
34
90
22
90
34
90
34
90
35
90
23
90
35
90
24
90
35
90
36
90
37
90
24
90
36
90
25
90
37
90
37
90
38
90
26
90
38
90
38
90
39
90
27
90
39
90
39
90
40
90
28
90
40
90
40
90
41
90
29
90
41
90
41
90
42
90
30
90
42
90
42
90
43
90
31
90
43
90
43
90
44
90
32
90
44
90
44
90
45
90
33
90
45
90
45
90
46
90
34
90
46
90
46
90
47
90
35
90
47
90
36
90
47
90
48
90
49
90
36
90
48
90
37
90
49
90
49
90
50
90
38
90
50
90
50
90
51
90
39
90
51
90
51
90
52
90
40
90
52
90
52
90
53
90
41
90
53
90
53
90
54
90
42
90
54
90
54
90
55
90
43
90
55
90
55
90
56
90
44
90
56
90
56
90
57
90
45
90
57
90
57
90
58
90
46
90
58
90
58
90
59
90
47
90
59
90
48
90
59
90
49
90
61
90
48
90
61
90
50
90
61
90
51
90
61
90
52
90
61
90
53
90
61
90
54
90
61
90
55
90
61
90
56
90
61
90
57
90
61
90
58
90
61
90
59
90
61
95
132
140
0.0
140
0.0
140
0.0
140
0.0
140
0.0
140
0.0
140
0.0
140
0.0
140
0.0
140
0.0
140
0.0
140
0.0
140
0.0
140
0.0
140
0.0
140
0.0
140
0.0
140
0.0
140
0.0
140
0.0
140
0.0
140
0.0
140
0.0
140
0.0
140
0.0
140
0.0
140
0.0
140
0.0
140
0.0
140
0.0
140
0.0
140
0.0
140
0.0
140
0.0
140
0.0
140
0.0
140
0.0
140
0.0
140
0.0
140
0.0
140
0.0
140
0.0
140
0.0
140
0.0
140
0.0
140
0.0
140
0.0
140
0.0
140
0.0
140
0.0
140
0.0
140
0.0
140
0.0
140
0.0
140
0.0
140
0.0
140
0.0
140
0.0
140
0.0
140
0.0
140
0.0
140
0.0
140
0.0
140
0.0
140
0.0
140
0.0
140
0.0
140
0.0
140
0.0
140
0.0
140
0.0
140
0.0
140
0.0
140
0.0
140
0.0
140
0.0
140
0.0
140
0.0
140
0.0
140
0.0
140
0.0
140
0.0
140
0.0
140
0.0
140
0.0
140
0.0
140
0.0
140
0.0
140
0.0
140
0.0
140
0.0
140
0.0
140
0.0
140
0.0
140
0.0
140
0.0
140
0.0
140
0.0
140
0.0
140
0.0
140
0.0
140
0.0
140
0.0
140
0.0
140
0.0
140
0.0
140
0.0
140
0.0
140
0.0
140
0.0
140
0.0
140
0.0
140
0.0
140
0.0
140
0.0
140
0.0
140
0.0
140
0.0
140
0.0
140
0.0
140
0.0
140
0.0
140
0.0
140
0.0
140
0.0
140
0.0
140
0.0
140
0.0
140
0.0
140
0.0
140
0.0
140
0.0
90
0
0
WIPEOUT
5
5DB
330
1F
100
AcDbEntity
67
0
8
Layer2
62
256
6
ByLayer
370
-1
48
1.0
60
0
100
AcDbWipeout
10
910.0
20
-90.0
30
0.0
11
80.0
21
0.0
31
0.0
12
0.0
22
80.0
32
0.0
13
1.0
23
1.0
280
1
281
50
282
50
283
0
71
2
91
6
14
-0.5
24
0.5
14
0.5
24
0.375
14
0.0
24
0.0
14
0.5
24
-0.5
14
-0.375
24
-0.375
14
-0.5
24
0.5
0
PDFUNDERLAY
5
622
330
1F
100
AcDbEntity
67
0
8
Layer1
62
256
6
ByLayer
370
-1
48
1.0
60
0
100
AcDbUnderlayReference
340
621
10
910.0
20
10.0
30
0.0
41
6.84085510688783
42
6.84085510688837
43
1.0
50
0.0
210
0.0
220
0.0
230
1.0
280
2
281
100
282
0
0
LEADER
5
980
330
1F
100
AcDbEntity
67
0
8
Layer1
62
256
6
ByLayer
370
-1
48
1.0
60
0
100
AcDbLeader
3
ISO-25
71
1
72
0
73
0
74
0
75
1
76
4
10
710.0
20
-190.0
30
0.0
10
730.0
20
-110.0
30
0.0
10
747.5
20
-170.0
30
0.0
10
750.0
20
-170.0
30
0.0
77
256
340
981
210
0.0
220
0.0
230
1.0
211
1.0
221
0.0
231
0.0
213
0.0
223
0.0
233
0.0
0
MTEXT
5
981
102
{ACAD_REACTORS
330
980
102
}
330
1F
100
AcDbEntity
67
0
8
Layer1
62
256
6
ByLayer
370
-1
48
1.0
60
0
100
AcDbMText
10
750.625
20
-169.375
30
0.0
210
0.0
220
0.0
230
1.0
1
Sample annotation
40
2.5
41
0.0
44
1.0
11
1.0
21
0.0
31
0.0
71
7
72
1
73
1
7
Standard
1001
ACAD
1000
MTEXTBEGIN
1070
73
1070
1
1070
44
1040
1.0
1070
74
1070
0
1000
MTEXTEND
0
DIMENSION
5
9E6
330
1F
100
AcDbEntity
67
0
8
Layer1
62
256
6
ByLayer
370
-1
48
1.0
60
0
100
AcDbDimension
2
*D18
10
82.7554720525812
20
-117.452109518218
30
0.0
11
46.2085433767669
21
-136.112496418178
31
0.0
53
0.0
70
32
71
5
72
1
41
1.0
1

210
0.0
220
0.0
230
1.0
3
ISO-25
100
AcDbAlignedDimension
13
30.0
23
-190.0
33
0.0
14
90.0
24
-130.0
34
0.0
50
30.0
100
AcDbRotatedDimension
0
DIMENSION
5
A34
330
1F
100
AcDbEntity
67
0
8
Layer1
62
256
6
ByLayer
370
-1
48
1.0
60
0
100
AcDbDimension
2
*D19
10
273.321849748085
20
-140.729189634678
30
0.0
11
274.965485641804
21
-139.826922463115
31
0.0
53
0.0
70
37
71
5
72
1
41
1.0
1

210
0.0
220
0.0
230
1.0
3
ISO-25
100
AcDb3PointAngularDimension
13
250.0
23
-180.0
33
0.0
14
230.0
24
-130.0
34
0.0
15
220.0
25
-170.0
35
0.0
40
0.0
0
DIMENSION
5
A6C
330
1F
100
AcDbEntity
67
0
8
Layer1
62
256
6
ByLayer
370
-1
48
1.0
60
0
100
AcDbDimension
2
*D20
10
330.0
20
-130.0
30
0.0
11
373.844670111082
21
-140.442189544232
31
0.0
53
0.0
70
34
71
5
72
1
41
1.0
1

210
0.0
220
0.0
230
1.0
3
ISO-25
100
AcDb2LineAngularDimension
13
320.0
23
-170.0
33
0.0
14
350.0
24
-180.0
34
0.0
15
320.0
25
-170.0
35
0.0
16
372.201034217363
26
-141.344456715795
36
0.0
40
0.0
0
LINE
5
AA9
330
1F
100
AcDbEntity
67
0
8
Layer2
62
256
6
ByLayer
370
-1
48
1.0
60
0
100
AcDbLine
10
30.0
20
-190.0
30
0.0
11
90.0
21
-130.0
31
0.0
39
0.0
210
0.0
220
0.0
230
1.0
0
LINE
5
AAA
330
1F
100
AcDbEntity
67
0
8
Layer2
62
256
6
ByLayer
370
-1
48
1.0
60
0
100
AcDbLine
10
120.0
20
-180.0
30
0.0
11
180.0
21
-120.0
31
0.0
39
0.0
210
0.0
220
0.0
230
1.0
0
LINE
5
AAB
330
1F
100
AcDbEntity
67
0
8
Layer2
62
256
6
ByLayer
370
-1
48
1.0
60
0
100
AcDbLine
10
220.0
20
-170.0
30
0.0
11
230.0
21
-130.0
31
0.0
39
0.0
210
0.0
220
0.0
230
1.0
0
LINE
5
AAC
330
1F
100
AcDbEntity
67
0
8
Layer2
62
256
6
ByLayer
370
-1
48
1.0
60
0
100
AcDbLine
10
220.0
20
-170.0
30
0.0
11
250.0
21
-180.0
31
0.0
39
0.0
210
0.0
220
0.0
230
1.0
0
LINE
5
AAD
330
1F
100
AcDbEntity
67
0
8
Layer2
62
256
6
ByLayer
370
-1
48
1.0
60
0
100
AcDbLine
10
320.0
20
-170.0
30
0.0
11
330.0
21
-130.0
31
0.0
39
0.0
210
0.0
220
0.0
230
1.0
0
LINE
5
AAE
330
1F
100
AcDbEntity
67
0
8
Layer2
62
256
6
ByLayer
370
-1
48
1.0
60
0
100
AcDbLine
10
320.0
20
-170.0
30
0.0
11
350.0
21
-180.0
31
0.0
39
0.0
210
0.0
220
0.0
230
1.0
0
CIRCLE
5
AAF
330
1F
100
AcDbEntity
67
0
8
Layer2
62
256
6
ByLayer
370
-1
48
1.0
60
0
100
AcDbCircle
10
450.0
20
-150.0
30
0.0
40
20.0
39
0.0
210
0.0
220
0.0
230
1.0
0
CIRCLE
5
AB0
330
1F
100
AcDbEntity
67
0
8
Layer2
62
256
6
ByLayer
370
-1
48
1.0
60
0
100
AcDbCircle
10
550.0
20
-150.0
30
0.0
40
40.0
39
0.0
210
0.0
220
0.0
230
1.0
0
DIMENSION
5
AB2
330
1F
100
AcDbEntity
67
0
8
Layer1
62
256
6
ByLayer
370
-1
48
1.0
60
0
100
AcDbDimension
2
*D21
10
450.0
20
-150.0
30
0.0
11
469.108718967779
21
-128.239630602771
31
0.0
53
0.0
70
36
71
5
72
1
41
1.0
1

210
0.0
220
0.0
230
1.0
3
ISO-25
100
AcDbRadialDimension
15
464.142135623731
25
-135.857864376269
35
0.0
40
0.0
1001
ACAD
1000
DSTYLE
1002
{
1070
288
1070
1
1002
}
1001
ACAD_DSTYLE_DIMRADIAL_EXTENSION
1070
387
1070
1
1070
388
1040
0.0
1070
390
1040
0.0
0
DIMENSION
5
AC4
330
1F
100
AcDbEntity
67
0
8
Layer1
62
256
6
ByLayer
370
-1
48
1.0
60
0
100
AcDbDimension
2
*D22
10
510.0
20
-150.0
30
0.0
11
550.0
21
-150.0
31
0.0
53
0.0
70
163
71
5
72
1
41
1.0
1

210
0.0
220
0.0
230
1.0
3
ISO-25
100
AcDbDiametricDimension
15
590.0
25
-150.0
35
0.0
40
0.0
1001
ACAD
1000
DSTYLE
1002
{
1070
288
1070
1
1002
}
1001
ACAD_DSTYLE_DIMRADIAL_EXTENSION
1070
387
1070
1
1070
388
1040
0.0
1070
390
1040
0.0
0
DIMENSION
5
AEA
330
1F
100
AcDbEntity
67
0
8
Layer1
62
256
6
ByLayer
370
-1
48
1.0
60
0
100
AcDbDimension
2
*D23
10
0.0
20
0.0
30
0.0
11
683.60119047619
21
-168.125
31
0.0
51
360.0
53
0.0
70
38
71
5
72
1
41
1.0
1

210
0.0
220
0.0
230
1.0
3
ISO-25
100
AcDbOrdinateDimension
13
610.0
23
-180.0
33
0.0
14
680.0
24
-170.0
34
0.0
0
DIMENSION
5
AF5
330
1F
100
AcDbEntity
67
0
8
Layer1
62
256
6
ByLayer
370
-1
48
1.0
60
0
100
AcDbDimension
2
*D24
10
0.0
20
0.0
30
0.0
11
638.125
21
-116.160714285714
31
0.0
51
360.0
53
0.0
70
102
71
5
72
1
41
1.0
1

210
0.0
220
0.0
230
1.0
3
ISO-25
100
AcDbOrdinateDimension
13
620.0
23
-190.0
33
0.0
14
640.0
24
-120.0
34
0.0
0
HATCH
5
BD9
330
1F
100
AcDbEntity
67
0
8
0
62
256
6
ByLayer
370
-1
48
1.0
60
0
100
AcDbHatch
10
0.0
20
0.0
30
0.0
210
0.0
220
0.0
230
1.0
2
SOLID
70
1
71
0
91
1
92
5
93
4
72
1
10
-0.0000013962340972
20
-449.999999261885
11
99.9999986037659
21
-449.999999261885
72
1
10
99.9999986037659
20
-449.999999261885
11
99.9999986037659
21
-349.999999261885
72
1
10
99.9999986037659
20
-349.999999261885
11
-0.0000013962340972
21
-349.999999261885
72
1
10
-0.0000013962340972
20
-349.999999261885
11
-0.0000013962340972
21
-449.999999261885
97
0
75
0
76
1
47
0.0
98
1
10
0.0
20
0.0
450
1
451
0
460
0.0
461
1.0
452
0
462
1.0
453
2
463
0.0
63
163
421
-1035182183
463
1.0
63
41
421
-1024143037
470
INVSPHERICAL
1001
GradientColor1ACI
1070
163
1001
ACAD
1010
0.0
1020
0.0
1030
0.0
1001
GradientColor2ACI
1070
41
0
HATCH
5
BDA
330
1F
100
AcDbEntity
67
0
8
0
62
256
6
ByLayer
370
-1
48
1.0
60
0
100
AcDbHatch
10
0.0
20
0.0
30
0.0
210
0.0
220
0.0
230
1.0
2
SOLID
70
1
71
0
91
1
92
5
93
4
72
1
10
149.999998603766
20
-449.999999261885
11
249.999998603766
21
-449.999999261885
72
1
10
249.999998603766
20
-449.999999261885
11
249.999998603766
21
-349.999999261885
72
1
10
249.999998603766
20
-349.999999261885
11
149.999998603766
21
-349.999999261885
72
1
10
149.999998603766
20
-349.999999261885
11
149.999998603766
21
-449.999999261885
97
0
75
0
76
1
47
0.0
98
1
10
0.0
20
0.0
450
1
451
0
460
0.0
461
0.0
452
1
462
0.769999980926514
453
2
463
0.0
63
163
421
-1035182183
463
1.0
63
9
421
-1028539688
470
HEMISPHERICAL
1001
GradientColor1ACI
1070
163
1001
ACAD
1010
0.0
1020
0.0
1030
0.0
1001
GradientColor2ACI
1070
9
0
DIMENSION
5
13E5
330
1F
100
AcDbEntity
67
0
8
Layer1
62
256
6
ByLayer
370
-1
48
1.0
60
0
100
AcDbDimension
2
*D25
10
170.0
20
-110.0
30
0.0
11
137.790291308792
21
-137.790291308792
31
0.0
53
0.0
70
33
71
5
72
1
41
1.0
1

210
0.0
220
0.0
230
1.0
3
ISO-25
100
AcDbAlignedDimension
13
120.0
23
-180.0
33
0.0
14
180.0
24
-120.0
34
0.0
1001
ACAD
1000
DSTYLE
1002
{
1070
276
1070
1
1070
277
1070
4
1070
44
1040
2.0
1070
46
1040
2.0
1070
176
1070
1
1070
343
1005
11FC
1070
344
1005
11FC
1070
173
1070
1
1070
78
1070
8
1002
}
0
INSERT
5
1787
330
1F
100
AcDbEntity
67
0
8
Layer1
62
256
6
ByLayer
370
-1
48
1.0
60
0
100
AcDbBlockReference
2
*T12
10
800.0
20
-360.0
30
0.0
41
1.0
42
1.0
43
1.0
50
0.0
210
0.0
220
0.0
230
1.0
0
POLYLINE
5
1A66
330
1F
100
AcDbEntity
67
0
8
Layer1
62
256
6
ByLayer
370
-1
48
1.0
60
0
100
AcDbPolygonMesh
10
0.0
20
0.0
30
0.0
71
6
72
4
73
20
74
10
70
20
75
5
210
0.0
220
0.0
230
1.0
0
VERTEX
5
1CF1
330
1A66
100
AcDbEntity
8
Layer1
62
256
100
AcDbVertex
100
AcDbPolygonMeshVertex
10
300.0
20
-450.0
30
0.0
70
80
40
0.0
41
0.0
0
VERTEX
5
1CF2
330
1A66
100
AcDbEntity
8
Layer1
62
256
100
AcDbVertex
100
AcDbPolygonMeshVertex
10
300.0
20
-420.0
30
20.0
70
80
40
0.0
41
0.0
0
VERTEX
5
1CF3
330
1A66
100
AcDbEntity
8
Layer1
62
256
100
AcDbVertex
100
AcDbPolygonMeshVertex
10
300.0
20
-380.0
30
20.0
70
80
40
0.0
41
0.0
0
VERTEX
5
1CF4
330
1A66
100
AcDbEntity
8
Layer1
62
256
100
AcDbVertex
100
AcDbPolygonMeshVertex
10
300.0
20
-350.0
30
0.0
70
80
40
0.0
41
0.0
0
VERTEX
5
1CF5
330
1A66
100
AcDbEntity
8
Layer1
62
256
100
AcDbVertex
100
AcDbPolygonMeshVertex
10
330.0
20
-450.0
30
0.0
70
80
40
0.0
41
0.0
0
VERTEX
5
1CF6
330
1A66
100
AcDbEntity
8
Layer1
62
256
100
AcDbVertex
100
AcDbPolygonMeshVertex
10
330.0
20
-420.0
30
0.0
70
80
40
0.0
41
0.0
0
VERTEX
5
1CF7
330
1A66
100
AcDbEntity
8
Layer1
62
256
100
AcDbVertex
100
AcDbPolygonMeshVertex
10
330.0
20
-380.0
30
0.0
70
80
40
0.0
41
0.0
0
VERTEX
5
1CF8
330
1A66
100
AcDbEntity
8
Layer1
62
256
100
AcDbVertex
100
AcDbPolygonMeshVertex
10
330.0
20
-350.0
30
0.0
70
80
40
0.0
41
0.0
0
VERTEX
5
1CF9
330
1A66
100
AcDbEntity
8
Layer1
62
256
100
AcDbVertex
100
AcDbPolygonMeshVertex
10
360.0
20
-450.0
30
0.0
70
80
40
0.0
41
0.0
0
VERTEX
5
1CFA
330
1A66
100
AcDbEntity
8
Layer1
62
256
100
AcDbVertex
100
AcDbPolygonMeshVertex
10
360.0
20
-420.0
30
20.0
70
80
40
0.0
41
0.0
0
VERTEX
5
1CFB
330
1A66
100
AcDbEntity
8
Layer1
62
256
100
AcDbVertex
100
AcDbPolygonMeshVertex
10
360.0
20
-380.0
30
20.0
70
80
40
0.0
41
0.0
0
VERTEX
5
1CFC
330
1A66
100
AcDbEntity
8
Layer1
62
256
100
AcDbVertex
100
AcDbPolygonMeshVertex
10
360.0
20
-350.0
30
0.0
70
80
40
0.0
41
0.0
0
VERTEX
5
1CFD
330
1A66
100
AcDbEntity
8
Layer1
62
256
100
AcDbVertex
100
AcDbPolygonMeshVertex
10
390.0
20
-450.0
30
0.0
70
80
40
0.0
41
0.0
0
VERTEX
5
1CFE
330
1A66
100
AcDbEntity
8
Layer1
62
256
100
AcDbVertex
100
AcDbPolygonMeshVertex
10
390.0
20
-420.0
30
0.0
70
80
40
0.0
41
0.0
0
VERTEX
5
1CFF
330
1A66
100
AcDbEntity
8
Layer1
62
256
100
AcDbVertex
100
AcDbPolygonMeshVertex
10
390.0
20
-380.0
30
0.0
70
80
40
0.0
41
0.0
0
VERTEX
5
1D00
330
1A66
100
AcDbEntity
8
Layer1
62
256
100
AcDbVertex
100
AcDbPolygonMeshVertex
10
390.0
20
-350.0
30
0.0
70
80
40
0.0
41
0.0
0
VERTEX
5
1D01
330
1A66
100
AcDbEntity
8
Layer1
62
256
100
AcDbVertex
100
AcDbPolygonMeshVertex
10
420.0
20
-450.0
30
0.0
70
80
40
0.0
41
0.0
0
VERTEX
5
1D02
330
1A66
100
AcDbEntity
8
Layer1
62
256
100
AcDbVertex
100
AcDbPolygonMeshVertex
10
420.0
20
-420.0
30
20.0
70
80
40
0.0
41
0.0
0
VERTEX
5
1D03
330
1A66
100
AcDbEntity
8
Layer1
62
256
100
AcDbVertex
100
AcDbPolygonMeshVertex
10
420.0
20
-380.0
30
20.0
70
80
40
0.0
41
0.0
0
VERTEX
5
1D04
330
1A66
100
AcDbEntity
8
Layer1
62
256
100
AcDbVertex
100
AcDbPolygonMeshVertex
10
420.0
20
-350.0
30
0.0
70
80
40
0.0
41
0.0
0
VERTEX
5
1D05
330
1A66
100
AcDbEntity
8
Layer1
62
256
100
AcDbVertex
100
AcDbPolygonMeshVertex
10
450.0
20
-450.0
30
0.0
70
80
40
0.0
41
0.0
0
VERTEX
5
1D06
330
1A66
100
AcDbEntity
8
Layer1
62
256
100
AcDbVertex
100
AcDbPolygonMeshVertex
10
450.0
20
-420.0
30
-20.0
70
80
40
0.0
41
0.0
0
VERTEX
5
1D07
330
1A66
100
AcDbEntity
8
Layer1
62
256
100
AcDbVertex
100
AcDbPolygonMeshVertex
10
450.0
20
-380.0
30
-20.0
70
80
40
0.0
41
0.0
0
VERTEX
5
1D08
330
1A66
100
AcDbEntity
8
Layer1
62
256
100
AcDbVertex
100
AcDbPolygonMeshVertex
10
450.0
20
-350.0
30
0.0
70
80
40
0.0
41
0.0
0
VERTEX
5
1D09
330
1A66
100
AcDbEntity
8
Layer1
62
256
100
AcDbVertex
100
AcDbPolygonMeshVertex
10
300.0
20
-450.0
30
0.0
70
72
40
0.0
41
0.0
0
VERTEX
5
1D0A
330
1A66
100
AcDbEntity
8
Layer1
62
256
100
AcDbVertex
100
AcDbPolygonMeshVertex
10
300.0
20
-437.160493827161
30
7.90123456790123
70
72
40
0.0
41
0.0
0
VERTEX
5
1D0B
330
1A66
100
AcDbEntity
8
Layer1
62
256
100
AcDbVertex
100
AcDbPolygonMeshVertex
10
300.0
20
-425.308641975309
30
13.8271604938272
70
72
40
0.0
41
0.0
0
VERTEX
5
1D0C
330
1A66
100
AcDbEntity
8
Layer1
62
256
100
AcDbVertex
100
AcDbPolygonMeshVertex
10
300.0
20
-414.444444444445
30
17.7777777777778
70
72
40
0.0
41
0.0
0
VERTEX
5
1D0D
330
1A66
100
AcDbEntity
8
Layer1
62
256
100
AcDbVertex
100
AcDbPolygonMeshVertex
10
300.0
20
-404.567901234568
30
19.7530864197531
70
72
40
0.0
41
0.0
0
VERTEX
5
1D0E
330
1A66
100
AcDbEntity
8
Layer1
62
256
100
AcDbVertex
100
AcDbPolygonMeshVertex
10
300.0
20
-395.432098765432
30
19.7530864197531
70
72
40
0.0
41
0.0
0
VERTEX
5
1D0F
330
1A66
100
AcDbEntity
8
Layer1
62
256
100
AcDbVertex
100
AcDbPolygonMeshVertex
10
300.0
20
-385.555555555556
30
17.7777777777778
70
72
40
0.0
41
0.0
0
VERTEX
5
1D10
330
1A66
100
AcDbEntity
8
Layer1
62
256
100
AcDbVertex
100
AcDbPolygonMeshVertex
10
300.0
20
-374.691358024691
30
13.8271604938272
70
72
40
0.0
41
0.0
0
VERTEX
5
1D11
330
1A66
100
AcDbEntity
8
Layer1
62
256
100
AcDbVertex
100
AcDbPolygonMeshVertex
10
300.0
20
-362.839506172839
30
7.90123456790122
70
72
40
0.0
41
0.0
0
VERTEX
5
1D12
330
1A66
100
AcDbEntity
8
Layer1
62
256
100
AcDbVertex
100
AcDbPolygonMeshVertex
10
300.0
20
-350.0
30
0.0
70
72
40
0.0
41
0.0
0
VERTEX
5
1D13
330
1A66
100
AcDbEntity
8
Layer1
62
256
100
AcDbVertex
100
AcDbPolygonMeshVertex
10
311.96675900277
20
-450.0
30
0.0
70
72
40
0.0
41
0.0
0
VERTEX
5
1D14
330
1A66
100
AcDbEntity
8
Layer1
62
256
100
AcDbVertex
100
AcDbPolygonMeshVertex
10
311.96675900277
20
-437.160493827161
30
5.09968879313293
70
72
40
0.0
41
0.0
0
VERTEX
5
1D15
330
1A66
100
AcDbEntity
8
Layer1
62
256
100
AcDbVertex
100
AcDbPolygonMeshVertex
10
311.96675900277
20
-425.308641975309
30
8.92445538798263
70
72
40
0.0
41
0.0
0
VERTEX
5
1D16
330
1A66
100
AcDbEntity
8
Layer1
62
256
100
AcDbVertex
100
AcDbPolygonMeshVertex
10
311.96675900277
20
-414.444444444445
30
11.4742997845491
70
72
40
0.0
41
0.0
0
VERTEX
5
1D17
330
1A66
100
AcDbEntity
8
Layer1
62
256
100
AcDbVertex
100
AcDbPolygonMeshVertex
10
311.96675900277
20
-404.567901234568
30
12.7492219828323
70
72
40
0.0
41
0.0
0
VERTEX
5
1D18
330
1A66
100
AcDbEntity
8
Layer1
62
256
100
AcDbVertex
100
AcDbPolygonMeshVertex
10
311.96675900277
20
-395.432098765432
30
12.7492219828323
70
72
40
0.0
41
0.0
0
VERTEX
5
1D19
330
1A66
100
AcDbEntity
8
Layer1
62
256
100
AcDbVertex
100
AcDbPolygonMeshVertex
10
311.96675900277
20
-385.555555555556
30
11.4742997845491
70
72
40
0.0
41
0.0
0
VERTEX
5
1D1A
330
1A66
100
AcDbEntity
8
Layer1
62
256
100
AcDbVertex
100
AcDbPolygonMeshVertex
10
311.96675900277
20
-374.691358024691
30
8.92445538798263
70
72
40
0.0
41
0.0
0
VERTEX
5
1D1B
330
1A66
100
AcDbEntity
8
Layer1
62
256
100
AcDbVertex
100
AcDbPolygonMeshVertex
10
311.96675900277
20
-362.839506172839
30
5.09968879313292
70
72
40
0.0
41
0.0
0
VERTEX
5
1D1C
330
1A66
100
AcDbEntity
8
Layer1
62
256
100
AcDbVertex
100
AcDbPolygonMeshVertex
10
311.96675900277
20
-350.0
30
0.0
70
72
40
0.0
41
0.0
0
VERTEX
5
1D1D
330
1A66
100
AcDbEntity
8
Layer1
62
256
100
AcDbVertex
100
AcDbPolygonMeshVertex
10
322.603878116343
20
-450.0
30
0.0
70
72
40
0.0
41
0.0
0
VERTEX
5
1D1E
330
1A66
100
AcDbEntity
8
Layer1
62
256
100
AcDbVertex
100
AcDbPolygonMeshVertex
10
322.603878116343
20
-437.160493827161
30
3.34872268390274
70
72
40
0.0
41
0.0
0
VERTEX
5
1D1F
330
1A66
100
AcDbEntity
8
Layer1
62
256
100
AcDbVertex
100
AcDbPolygonMeshVertex
10
322.603878116344
20
-425.308641975309
30
5.86026469682979
70
72
40
0.0
41
0.0
0
VERTEX
5
1D20
330
1A66
100
AcDbEntity
8
Layer1
62
256
100
AcDbVertex
100
AcDbPolygonMeshVertex
10
322.603878116343
20
-414.444444444445
30
7.53462603878116
70
72
40
0.0
41
0.0
0
VERTEX
5
1D21
330
1A66
100
AcDbEntity
8
Layer1
62
256
100
AcDbVertex
100
AcDbPolygonMeshVertex
10
322.603878116343
20
-404.567901234568
30
8.37180670975685
70
72
40
0.0
41
0.0
0
VERTEX
5
1D22
330
1A66
100
AcDbEntity
8
Layer1
62
256
100
AcDbVertex
100
AcDbPolygonMeshVertex
10
322.603878116343
20
-395.432098765432
30
8.37180670975685
70
72
40
0.0
41
0.0
0
VERTEX
5
1D23
330
1A66
100
AcDbEntity
8
Layer1
62
256
100
AcDbVertex
100
AcDbPolygonMeshVertex
10
322.603878116344
20
-385.555555555556
30
7.53462603878116
70
72
40
0.0
41
0.0
0
VERTEX
5
1D24
330
1A66
100
AcDbEntity
8
Layer1
62
256
100
AcDbVertex
100
AcDbPolygonMeshVertex
10
322.603878116343
20
-374.691358024691
30
5.86026469682979
70
72
40
0.0
41
0.0
0
VERTEX
5
1D25
330
1A66
100
AcDbEntity
8
Layer1
62
256
100
AcDbVertex
100
AcDbPolygonMeshVertex
10
322.603878116343
20
-362.839506172839
30
3.34872268390273
70
72
40
0.0
41
0.0
0
VERTEX
5
1D26
330
1A66
100
AcDbEntity
8
Layer1
62
256
100
AcDbVertex
100
AcDbPolygonMeshVertex
10
322.603878116343
20
-350.0
30
0.0
70
72
40
0.0
41
0.0
0
VERTEX
5
1D27
330
1A66
100
AcDbEntity
8
Layer1
62
256
100
AcDbVertex
100
AcDbPolygonMeshVertex
10
331.91135734072
20
-450.0
30
0.0
70
72
40
0.0
41
0.0
0
VERTEX
5
1D28
330
1A66
100
AcDbEntity
8
Layer1
62
256
100
AcDbVertex
100
AcDbPolygonMeshVertex
10
331.91135734072
20
-437.160493827161
30
2.64833624021066
70
72
40
0.0
41
0.0
0
VERTEX
5
1D29
330
1A66
100
AcDbEntity
8
Layer1
62
256
100
AcDbVertex
100
AcDbPolygonMeshVertex
10
331.91135734072
20
-425.308641975309
30
4.63458842036866
70
72
40
0.0
41
0.0
0
VERTEX
5
1D2A
330
1A66
100
AcDbEntity
8
Layer1
62
256
100
AcDbVertex
100
AcDbPolygonMeshVertex
10
331.91135734072
20
-414.444444444445
30
5.95875654047399
70
72
40
0.0
41
0.0
0
VERTEX
5
1D2B
330
1A66
100
AcDbEntity
8
Layer1
62
256
100
AcDbVertex
100
AcDbPolygonMeshVertex
10
331.91135734072
20
-404.567901234568
30
6.62084060052666
70
72
40
0.0
41
0.0
0
VERTEX
5
1D2C
330
1A66
100
AcDbEntity
8
Layer1
62
256
100
AcDbVertex
100
AcDbPolygonMeshVertex
10
331.91135734072
20
-395.432098765432
30
6.62084060052666
70
72
40
0.0
41
0.0
0
VERTEX
5
1D2D
330
1A66
100
AcDbEntity
8
Layer1
62
256
100
AcDbVertex
100
AcDbPolygonMeshVertex
10
331.91135734072
20
-385.555555555556
30
5.95875654047399
70
72
40
0.0
41
0.0
0
VERTEX
5
1D2E
330
1A66
100
AcDbEntity
8
Layer1
62
256
100
AcDbVertex
100
AcDbPolygonMeshVertex
10
331.91135734072
20
-374.691358024691
30
4.63458842036866
70
72
40
0.0
41
0.0
0
VERTEX
5
1D2F
330
1A66
100
AcDbEntity
8
Layer1
62
256
100
AcDbVertex
100
AcDbPolygonMeshVertex
10
331.91135734072
20
-362.839506172839
30
2.64833624021066
70
72
40
0.0
41
0.0
0
VERTEX
5
1D30
330
1A66
100
AcDbEntity
8
Layer1
62
256
100
AcDbVertex
100
AcDbPolygonMeshVertex
10
331.91135734072
20
-350.0
30
0.0
70
72
40
0.0
41
0.0
0
VERTEX
5
1D31
330
1A66
100
AcDbEntity
8
Layer1
62
256
100
AcDbVertex
100
AcDbPolygonMeshVertex
10
339.8891966759
20
-450.0
30
0.0
70
72
40
0.0
41
0.0
0
VERTEX
5
1D32
330
1A66
100
AcDbEntity
8
Layer1
62
256
100
AcDbVertex
100
AcDbPolygonMeshVertex
10
339.8891966759
20
-437.160493827161
30
2.9985294620567
70
72
40
0.0
41
0.0
0
VERTEX
5
1D33
330
1A66
100
AcDbEntity
8
Layer1
62
256
100
AcDbVertex
100
AcDbPolygonMeshVertex
10
339.8891966759
20
-425.308641975309
30
5.24742655859923
70
72
40
0.0
41
0.0
0
VERTEX
5
1D34
330
1A66
100
AcDbEntity
8
Layer1
62
256
100
AcDbVertex
100
AcDbPolygonMeshVertex
10
339.8891966759
20
-414.444444444445
30
6.74669128962758
70
72
40
0.0
41
0.0
0
VERTEX
5
1D35
330
1A66
100
AcDbEntity
8
Layer1
62
256
100
AcDbVertex
100
AcDbPolygonMeshVertex
10
339.8891966759
20
-404.567901234568
30
7.49632365514175
70
72
40
0.0
41
0.0
0
VERTEX
5
1D36
330
1A66
100
AcDbEntity
8
Layer1
62
256
100
AcDbVertex
100
AcDbPolygonMeshVertex
10
339.8891966759
20
-395.432098765432
30
7.49632365514175
70
72
40
0.0
41
0.0
0
VERTEX
5
1D37
330
1A66
100
AcDbEntity
8
Layer1
62
256
100
AcDbVertex
100
AcDbPolygonMeshVertex
10
339.8891966759
20
-385.555555555556
30
6.74669128962758
70
72
40
0.0
41
0.0
0
VERTEX
5
1D38
330
1A66
100
AcDbEntity
8
Layer1
62
256
100
AcDbVertex
100
AcDbPolygonMeshVertex
10
339.8891966759
20
-374.691358024691
30
5.24742655859922
70
72
40
0.0
41
0.0
0
VERTEX
5
1D39
330
1A66
100
AcDbEntity
8
Layer1
62
256
100
AcDbVertex
100
AcDbPolygonMeshVertex
10
339.8891966759
20
-362.839506172839
30
2.9985294620567
70
72
40
0.0
41
0.0
0
VERTEX
5
1D3A
330
1A66
100
AcDbEntity
8
Layer1
62
256
100
AcDbVertex
100
AcDbPolygonMeshVertex
10
339.8891966759
20
-350.0
30
0.0
70
72
40
0.0
41
0.0
0
VERTEX
5
1D3B
330
1A66
100
AcDbEntity
8
Layer1
62
256
100
AcDbVertex
100
AcDbPolygonMeshVertex
10
346.578947368421
20
-450.0
30
0.0
70
72
40
0.0
41
0.0
0
VERTEX
5
1D3C
330
1A66
100
AcDbEntity
8
Layer1
62
256
100
AcDbVertex
100
AcDbPolygonMeshVertex
10
346.578947368421
20
-437.16049382716
30
4.34458465852741
70
72
40
0.0
41
0.0
0
VERTEX
5
1D3D
330
1A66
100
AcDbEntity
8
Layer1
62
256
100
AcDbVertex
100
AcDbPolygonMeshVertex
10
346.578947368421
20
-425.308641975309
30
7.60302315242297
70
72
40
0.0
41
0.0
0
VERTEX
5
1D3E
330
1A66
100
AcDbEntity
8
Layer1
62
256
100
AcDbVertex
100
AcDbPolygonMeshVertex
10
346.578947368421
20
-414.444444444445
30
9.77531548168667
70
72
40
0.0
41
0.0
0
VERTEX
5
1D3F
330
1A66
100
AcDbEntity
8
Layer1
62
256
100
AcDbVertex
100
AcDbPolygonMeshVertex
10
346.578947368421
20
-404.567901234568
30
10.8614616463185
70
72
40
0.0
41
0.0
0
VERTEX
5
1D40
330
1A66
100
AcDbEntity
8
Layer1
62
256
100
AcDbVertex
100
AcDbPolygonMeshVertex
10
346.578947368421
20
-395.432098765432
30
10.8614616463185
70
72
40
0.0
41
0.0
0
VERTEX
5
1D41
330
1A66
100
AcDbEntity
8
Layer1
62
256
100
AcDbVertex
100
AcDbPolygonMeshVertex
10
346.578947368421
20
-385.555555555556
30
9.77531548168667
70
72
40
0.0
41
0.0
0
VERTEX
5
1D42
330
1A66
100
AcDbEntity
8
Layer1
62
256
100
AcDbVertex
100
AcDbPolygonMeshVertex
10
346.578947368421
20
-374.691358024691
30
7.60302315242297
70
72
40
0.0
41
0.0
0
VERTEX
5
1D43
330
1A66
100
AcDbEntity
8
Layer1
62
256
100
AcDbVertex
100
AcDbPolygonMeshVertex
10
346.578947368421
20
-362.839506172839
30
4.3445846585274
70
72
40
0.0
41
0.0
0
VERTEX
5
1D44
330
1A66
100
AcDbEntity
8
Layer1
62
256
100
AcDbVertex
100
AcDbPolygonMeshVertex
10
346.578947368421
20
-350.0
30
0.0
70
72
40
0.0
41
0.0
0
VERTEX
5
1D45
330
1A66
100
AcDbEntity
8
Layer1
62
256
100
AcDbVertex
100
AcDbPolygonMeshVertex
10
352.894736842105
20
-450.0
30
0.0
70
72
40
0.0
41
0.0
0
VERTEX
5
1D46
330
1A66
100
AcDbEntity
8
Layer1
62
256
100
AcDbVertex
100
AcDbPolygonMeshVertex
10
352.894736842105
20
-437.160493827161
30
5.48271262952703
70
72
40
0.0
41
0.0
0
VERTEX
5
1D47
330
1A66
100
AcDbEntity
8
Layer1
62
256
100
AcDbVertex
100
AcDbPolygonMeshVertex
10
352.894736842105
20
-425.308641975309
30
9.59474710167231
70
72
40
0.0
41
0.0
0
VERTEX
5
1D48
330
1A66
100
AcDbEntity
8
Layer1
62
256
100
AcDbVertex
100
AcDbPolygonMeshVertex
10
352.894736842105
20
-414.444444444445
30
12.3361034164358
70
72
40
0.0
41
0.0
0
VERTEX
5
1D49
330
1A66
100
AcDbEntity
8
Layer1
62
256
100
AcDbVertex
100
AcDbPolygonMeshVertex
10
352.894736842105
20
-404.567901234568
30
13.7067815738176
70
72
40
0.0
41
0.0
0
VERTEX
5
1D4A
330
1A66
100
AcDbEntity
8
Layer1
62
256
100
AcDbVertex
100
AcDbPolygonMeshVertex
10
352.894736842105
20
-395.432098765432
30
13.7067815738176
70
72
40
0.0
41
0.0
0
VERTEX
5
1D4B
330
1A66
100
AcDbEntity
8
Layer1
62
256
100
AcDbVertex
100
AcDbPolygonMeshVertex
10
352.894736842105
20
-385.555555555556
30
12.3361034164358
70
72
40
0.0
41
0.0
0
VERTEX
5
1D4C
330
1A66
100
AcDbEntity
8
Layer1
62
256
100
AcDbVertex
100
AcDbPolygonMeshVertex
10
352.894736842105
20
-374.691358024691
30
9.5947471016723
70
72
40
0.0
41
0.0
0
VERTEX
5
1D4D
330
1A66
100
AcDbEntity
8
Layer1
62
256
100
AcDbVertex
100
AcDbPolygonMeshVertex
10
352.894736842105
20
-362.839506172839
30
5.48271262952703
70
72
40
0.0
41
0.0
0
VERTEX
5
1D4E
330
1A66
100
AcDbEntity
8
Layer1
62
256
100
AcDbVertex
100
AcDbPolygonMeshVertex
10
352.894736842105
20
-350.0
30
0.0
70
72
40
0.0
41
0.0
0
VERTEX
5
1D4F
330
1A66
100
AcDbEntity
8
Layer1
62
256
100
AcDbVertex
100
AcDbPolygonMeshVertex
10
359.210526315789
20
-450.0
30
0.0
70
72
40
0.0
41
0.0
0
VERTEX
5
1D50
330
1A66
100
AcDbEntity
8
Layer1
62
256
100
AcDbVertex
100
AcDbPolygonMeshVertex
10
359.210526315789
20
-437.16049382716
30
5.92045415683458
70
72
40
0.0
41
0.0
0
VERTEX
5
1D51
330
1A66
100
AcDbEntity
8
Layer1
62
256
100
AcDbVertex
100
AcDbPolygonMeshVertex
10
359.210526315789
20
-425.308641975309
30
10.3607947744605
70
72
40
0.0
41
0.0
0
VERTEX
5
1D52
330
1A66
100
AcDbEntity
8
Layer1
62
256
100
AcDbVertex
100
AcDbPolygonMeshVertex
10
359.210526315789
20
-414.444444444444
30
13.3210218528778
70
72
40
0.0
41
0.0
0
VERTEX
5
1D53
330
1A66
100
AcDbEntity
8
Layer1
62
256
100
AcDbVertex
100
AcDbPolygonMeshVertex
10
359.210526315789
20
-404.567901234568
30
14.8011353920865
70
72
40
0.0
41
0.0
0
VERTEX
5
1D54
330
1A66
100
AcDbEntity
8
Layer1
62
256
100
AcDbVertex
100
AcDbPolygonMeshVertex
10
359.210526315789
20
-395.432098765432
30
14.8011353920865
70
72
40
0.0
41
0.0
0
VERTEX
5
1D55
330
1A66
100
AcDbEntity
8
Layer1
62
256
100
AcDbVertex
100
AcDbPolygonMeshVertex
10
359.210526315789
20
-385.555555555556
30
13.3210218528778
70
72
40
0.0
41
0.0
0
VERTEX
5
1D56
330
1A66
100
AcDbEntity
8
Layer1
62
256
100
AcDbVertex
100
AcDbPolygonMeshVertex
10
359.210526315789
20
-374.691358024691
30
10.3607947744605
70
72
40
0.0
41
0.0
0
VERTEX
5
1D57
330
1A66
100
AcDbEntity
8
Layer1
62
256
100
AcDbVertex
100
AcDbPolygonMeshVertex
10
359.210526315789
20
-362.839506172839
30
5.92045415683457
70
72
40
0.0
41
0.0
0
VERTEX
5
1D58
330
1A66
100
AcDbEntity
8
Layer1
62
256
100
AcDbVertex
100
AcDbPolygonMeshVertex
10
359.210526315789
20
-350.0
30
0.0
70
72
40
0.0
41
0.0
0
VERTEX
5
1D59
330
1A66
100
AcDbEntity
8
Layer1
62
256
100
AcDbVertex
100
AcDbPolygonMeshVertex
10
365.526315789474
20
-450.0
30
0.0
70
72
40
0.0
41
0.0
0
VERTEX
5
1D5A
330
1A66
100
AcDbEntity
8
Layer1
62
256
100
AcDbVertex
100
AcDbPolygonMeshVertex
10
365.526315789474
20
-437.160493827161
30
5.65780924045005
70
72
40
0.0
41
0.0
0
VERTEX
5
1D5B
330
1A66
100
AcDbEntity
8
Layer1
62
256
100
AcDbVertex
100
AcDbPolygonMeshVertex
10
365.526315789474
20
-425.308641975309
30
9.90116617078759
70
72
40
0.0
41
0.0
0
VERTEX
5
1D5C
330
1A66
100
AcDbEntity
8
Layer1
62
256
100
AcDbVertex
100
AcDbPolygonMeshVertex
10
365.526315789474
20
-414.444444444444
30
12.7300707910126
70
72
40
0.0
41
0.0
0
VERTEX
5
1D5D
330
1A66
100
AcDbEntity
8
Layer1
62
256
100
AcDbVertex
100
AcDbPolygonMeshVertex
10
365.526315789474
20
-404.567901234568
30
14.1445231011251
70
72
40
0.0
41
0.0
0
VERTEX
5
1D5E
330
1A66
100
AcDbEntity
8
Layer1
62
256
100
AcDbVertex
100
AcDbPolygonMeshVertex
10
365.526315789474
20
-395.432098765432
30
14.1445231011251
70
72
40
0.0
41
0.0
0
VERTEX
5
1D5F
330
1A66
100
AcDbEntity
8
Layer1
62
256
100
AcDbVertex
100
AcDbPolygonMeshVertex
10
365.526315789474
20
-385.555555555556
30
12.7300707910126
70
72
40
0.0
41
0.0
0
VERTEX
5
1D60
330
1A66
100
AcDbEntity
8
Layer1
62
256
100
AcDbVertex
100
AcDbPolygonMeshVertex
10
365.526315789474
20
-374.691358024691
30
9.90116617078759
70
72
40
0.0
41
0.0
0
VERTEX
5
1D61
330
1A66
100
AcDbEntity
8
Layer1
62
256
100
AcDbVertex
100
AcDbPolygonMeshVertex
10
365.526315789474
20
-362.839506172839
30
5.65780924045005
70
72
40
0.0
41
0.0
0
VERTEX
5
1D62
330
1A66
100
AcDbEntity
8
Layer1
62
256
100
AcDbVertex
100
AcDbPolygonMeshVertex
10
365.526315789474
20
-350.0
30
0.0
70
72
40
0.0
41
0.0
0
VERTEX
5
1D63
330
1A66
100
AcDbEntity
8
Layer1
62
256
100
AcDbVertex
100
AcDbPolygonMeshVertex
10
371.842105263158
20
-450.0
30
0.0
70
72
40
0.0
41
0.0
0
VERTEX
5
1D64
330
1A66
100
AcDbEntity
8
Layer1
62
256
100
AcDbVertex
100
AcDbPolygonMeshVertex
10
371.842105263158
20
-437.160493827161
30
4.69477788037345
70
72
40
0.0
41
0.0
0
VERTEX
5
1D65
330
1A66
100
AcDbEntity
8
Layer1
62
256
100
AcDbVertex
100
AcDbPolygonMeshVertex
10
371.842105263158
20
-425.308641975309
30
8.21586129065354
70
72
40
0.0
41
0.0
0
VERTEX
5
1D66
330
1A66
100
AcDbEntity
8
Layer1
62
256
100
AcDbVertex
100
AcDbPolygonMeshVertex
10
371.842105263158
20
-414.444444444444
30
10.5632502308403
70
72
40
0.0
41
0.0
0
VERTEX
5
1D67
330
1A66
100
AcDbEntity
8
Layer1
62
256
100
AcDbVertex
100
AcDbPolygonMeshVertex
10
371.842105263158
20
-404.567901234568
30
11.7369447009336
70
72
40
0.0
41
0.0
0
VERTEX
5
1D68
330
1A66
100
AcDbEntity
8
Layer1
62
256
100
AcDbVertex
100
AcDbPolygonMeshVertex
10
371.842105263158
20
-395.432098765432
30
11.7369447009336
70
72
40
0.0
41
0.0
0
VERTEX
5
1D69
330
1A66
100
AcDbEntity
8
Layer1
62
256
100
AcDbVertex
100
AcDbPolygonMeshVertex
10
371.842105263158
20
-385.555555555556
30
10.5632502308403
70
72
40
0.0
41
0.0
0
VERTEX
5
1D6A
330
1A66
100
AcDbEntity
8
Layer1
62
256
100
AcDbVertex
100
AcDbPolygonMeshVertex
10
371.842105263158
20
-374.691358024691
30
8.21586129065353
70
72
40
0.0
41
0.0
0
VERTEX
5
1D6B
330
1A66
100
AcDbEntity
8
Layer1
62
256
100
AcDbVertex
100
AcDbPolygonMeshVertex
10
371.842105263158
20
-362.839506172839
30
4.69477788037344
70
72
40
0.0
41
0.0
0
VERTEX
5
1D6C
330
1A66
100
AcDbEntity
8
Layer1
62
256
100
AcDbVertex
100
AcDbPolygonMeshVertex
10
371.842105263158
20
-350.0
30
0.0
70
72
40
0.0
41
0.0
0
VERTEX
5
1D6D
330
1A66
100
AcDbEntity
8
Layer1
62
256
100
AcDbVertex
100
AcDbPolygonMeshVertex
10
378.157894736842
20
-450.0
30
0.0
70
72
40
0.0
41
0.0
0
VERTEX
5
1D6E
330
1A66
100
AcDbEntity
8
Layer1
62
256
100
AcDbVertex
100
AcDbPolygonMeshVertex
10
378.157894736842
20
-437.160493827161
30
3.20645668752779
70
72
40
0.0
41
0.0
0
VERTEX
5
1D6F
330
1A66
100
AcDbEntity
8
Layer1
62
256
100
AcDbVertex
100
AcDbPolygonMeshVertex
10
378.157894736842
20
-425.308641975309
30
5.61129920317363
70
72
40
0.0
41
0.0
0
VERTEX
5
1D70
330
1A66
100
AcDbEntity
8
Layer1
62
256
100
AcDbVertex
100
AcDbPolygonMeshVertex
10
378.157894736842
20
-414.444444444445
30
7.21452754693752
70
72
40
0.0
41
0.0
0
VERTEX
5
1D71
330
1A66
100
AcDbEntity
8
Layer1
62
256
100
AcDbVertex
100
AcDbPolygonMeshVertex
10
378.157894736842
20
-404.567901234568
30
8.01614171881947
70
72
40
0.0
41
0.0
0
VERTEX
5
1D72
330
1A66
100
AcDbEntity
8
Layer1
62
256
100
AcDbVertex
100
AcDbPolygonMeshVertex
10
378.157894736842
20
-395.432098765432
30
8.01614171881947
70
72
40
0.0
41
0.0
0
VERTEX
5
1D73
330
1A66
100
AcDbEntity
8
Layer1
62
256
100
AcDbVertex
100
AcDbPolygonMeshVertex
10
378.157894736842
20
-385.555555555556
30
7.21452754693752
70
72
40
0.0
41
0.0
0
VERTEX
5
1D74
330
1A66
100
AcDbEntity
8
Layer1
62
256
100
AcDbVertex
100
AcDbPolygonMeshVertex
10
378.157894736842
20
-374.691358024691
30
5.61129920317363
70
72
40
0.0
41
0.0
0
VERTEX
5
1D75
330
1A66
100
AcDbEntity
8
Layer1
62
256
100
AcDbVertex
100
AcDbPolygonMeshVertex
10
378.157894736842
20
-362.839506172839
30
3.20645668752778
70
72
40
0.0
41
0.0
0
VERTEX
5
1D76
330
1A66
100
AcDbEntity
8
Layer1
62
256
100
AcDbVertex
100
AcDbPolygonMeshVertex
10
378.157894736842
20
-350.0
30
0.0
70
72
40
0.0
41
0.0
0
VERTEX
5
1D77
330
1A66
100
AcDbEntity
8
Layer1
62
256
100
AcDbVertex
100
AcDbPolygonMeshVertex
10
384.473684210526
20
-450.0
30
0.0
70
72
40
0.0
41
0.0
0
VERTEX
5
1D78
330
1A66
100
AcDbEntity
8
Layer1
62
256
100
AcDbVertex
100
AcDbPolygonMeshVertex
10
384.473684210526
20
-437.160493827161
30
2.24342532745118
70
72
40
0.0
41
0.0
0
VERTEX
5
1D79
330
1A66
100
AcDbEntity
8
Layer1
62
256
100
AcDbVertex
100
AcDbPolygonMeshVertex
10
384.473684210526
20
-425.308641975309
30
3.92599432303957
70
72
40
0.0
41
0.0
0
VERTEX
5
1D7A
330
1A66
100
AcDbEntity
8
Layer1
62
256
100
AcDbVertex
100
AcDbPolygonMeshVertex
10
384.473684210526
20
-414.444444444444
30
5.04770698676516
70
72
40
0.0
41
0.0
0
VERTEX
5
1D7B
330
1A66
100
AcDbEntity
8
Layer1
62
256
100
AcDbVertex
100
AcDbPolygonMeshVertex
10
384.473684210526
20
-404.567901234568
30
5.60856331862795
70
72
40
0.0
41
0.0
0
VERTEX
5
1D7C
330
1A66
100
AcDbEntity
8
Layer1
62
256
100
AcDbVertex
100
AcDbPolygonMeshVertex
10
384.473684210526
20
-395.432098765432
30
5.60856331862795
70
72
40
0.0
41
0.0
0
VERTEX
5
1D7D
330
1A66
100
AcDbEntity
8
Layer1
62
256
100
AcDbVertex
100
AcDbPolygonMeshVertex
10
384.473684210526
20
-385.555555555556
30
5.04770698676516
70
72
40
0.0
41
0.0
0
VERTEX
5
1D7E
330
1A66
100
AcDbEntity
8
Layer1
62
256
100
AcDbVertex
100
AcDbPolygonMeshVertex
10
384.473684210526
20
-374.691358024691
30
3.92599432303957
70
72
40
0.0
41
0.0
0
VERTEX
5
1D7F
330
1A66
100
AcDbEntity
8
Layer1
62
256
100
AcDbVertex
100
AcDbPolygonMeshVertex
10
384.473684210526
20
-362.839506172839
30
2.24342532745118
70
72
40
0.0
41
0.0
0
VERTEX
5
1D80
330
1A66
100
AcDbEntity
8
Layer1
62
256
100
AcDbVertex
100
AcDbPolygonMeshVertex
10
384.473684210526
20
-350.0
30
0.0
70
72
40
0.0
41
0.0
0
VERTEX
5
1D81
330
1A66
100
AcDbEntity
8
Layer1
62
256
100
AcDbVertex
100
AcDbPolygonMeshVertex
10
390.789473684211
20
-450.0
30
0.0
70
72
40
0.0
41
0.0
0
VERTEX
5
1D82
330
1A66
100
AcDbEntity
8
Layer1
62
256
100
AcDbVertex
100
AcDbPolygonMeshVertex
10
390.789473684211
20
-437.160493827161
30
1.98078041106665
70
72
40
0.0
41
0.0
0
VERTEX
5
1D83
330
1A66
100
AcDbEntity
8
Layer1
62
256
100
AcDbVertex
100
AcDbPolygonMeshVertex
10
390.789473684211
20
-425.308641975309
30
3.46636571936664
70
72
40
0.0
41
0.0
0
VERTEX
5
1D84
330
1A66
100
AcDbEntity
8
Layer1
62
256
100
AcDbVertex
100
AcDbPolygonMeshVertex
10
390.789473684211
20
-414.444444444444
30
4.45675592489997
70
72
40
0.0
41
0.0
0
VERTEX
5
1D85
330
1A66
100
AcDbEntity
8
Layer1
62
256
100
AcDbVertex
100
AcDbPolygonMeshVertex
10
390.789473684211
20
-404.567901234568
30
4.95195102766663
70
72
40
0.0
41
0.0
0
VERTEX
5
1D86
330
1A66
100
AcDbEntity
8
Layer1
62
256
100
AcDbVertex
100
AcDbPolygonMeshVertex
10
390.789473684211
20
-395.432098765432
30
4.95195102766663
70
72
40
0.0
41
0.0
0
VERTEX
5
1D87
330
1A66
100
AcDbEntity
8
Layer1
62
256
100
AcDbVertex
100
AcDbPolygonMeshVertex
10
390.789473684211
20
-385.555555555556
30
4.45675592489997
70
72
40
0.0
41
0.0
0
VERTEX
5
1D88
330
1A66
100
AcDbEntity
8
Layer1
62
256
100
AcDbVertex
100
AcDbPolygonMeshVertex
10
390.78947368421
20
-374.691358024691
30
3.46636571936664
70
72
40
0.0
41
0.0
0
VERTEX
5
1D89
330
1A66
100
AcDbEntity
8
Layer1
62
256
100
AcDbVertex
100
AcDbPolygonMeshVertex
10
390.789473684211
20
-362.839506172839
30
1.98078041106665
70
72
40
0.0
41
0.0
0
VERTEX
5
1D8A
330
1A66
100
AcDbEntity
8
Layer1
62
256
100
AcDbVertex
100
AcDbPolygonMeshVertex
10
390.789473684211
20
-350.0
30
0.0
70
72
40
0.0
41
0.0
0
VERTEX
5
1D8B
330
1A66
100
AcDbEntity
8
Layer1
62
256
100
AcDbVertex
100
AcDbPolygonMeshVertex
10
397.105263157895
20
-450.0
30
0.0
70
72
40
0.0
41
0.0
0
VERTEX
5
1D8C
330
1A66
100
AcDbEntity
8
Layer1
62
256
100
AcDbVertex
100
AcDbPolygonMeshVertex
10
397.105263157895
20
-437.16049382716
30
2.4185219383742
70
72
40
0.0
41
0.0
0
VERTEX
5
1D8D
330
1A66
100
AcDbEntity
8
Layer1
62
256
100
AcDbVertex
100
AcDbPolygonMeshVertex
10
397.105263157895
20
-425.308641975309
30
4.23241339215485
70
72
40
0.0
41
0.0
0
VERTEX
5
1D8E
330
1A66
100
AcDbEntity
8
Layer1
62
256
100
AcDbVertex
100
AcDbPolygonMeshVertex
10
397.105263157895
20
-414.444444444445
30
5.44167436134195
70
72
40
0.0
41
0.0
0
VERTEX
5
1D8F
330
1A66
100
AcDbEntity
8
Layer1
62
256
100
AcDbVertex
100
AcDbPolygonMeshVertex
10
397.105263157895
20
-404.567901234568
30
6.0463048459355
70
72
40
0.0
41
0.0
0
VERTEX
5
1D90
330
1A66
100
AcDbEntity
8
Layer1
62
256
100
AcDbVertex
100
AcDbPolygonMeshVertex
10
397.105263157895
20
-395.432098765432
30
6.0463048459355
70
72
40
0.0
41
0.0
0
VERTEX
5
1D91
330
1A66
100
AcDbEntity
8
Layer1
62
256
100
AcDbVertex
100
AcDbPolygonMeshVertex
10
397.105263157895
20
-385.555555555556
30
5.44167436134195
70
72
40
0.0
41
0.0
0
VERTEX
5
1D92
330
1A66
100
AcDbEntity
8
Layer1
62
256
100
AcDbVertex
100
AcDbPolygonMeshVertex
10
397.105263157895
20
-374.691358024691
30
4.23241339215485
70
72
40
0.0
41
0.0
0
VERTEX
5
1D93
330
1A66
100
AcDbEntity
8
Layer1
62
256
100
AcDbVertex
100
AcDbPolygonMeshVertex
10
397.105263157895
20
-362.839506172839
30
2.4185219383742
70
72
40
0.0
41
0.0
0
VERTEX
5
1D94
330
1A66
100
AcDbEntity
8
Layer1
62
256
100
AcDbVertex
100
AcDbPolygonMeshVertex
10
397.105263157895
20
-350.0
30
0.0
70
72
40
0.0
41
0.0
0
VERTEX
5
1D95
330
1A66
100
AcDbEntity
8
Layer1
62
256
100
AcDbVertex
100
AcDbPolygonMeshVertex
10
403.421052631579
20
-450.0
30
0.0
70
72
40
0.0
41
0.0
0
VERTEX
5
1D96
330
1A66
100
AcDbEntity
8
Layer1
62
256
100
AcDbVertex
100
AcDbPolygonMeshVertex
10
403.421052631579
20
-437.160493827161
30
3.55664990937382
70
72
40
0.0
41
0.0
0
VERTEX
5
1D97
330
1A66
100
AcDbEntity
8
Layer1
62
256
100
AcDbVertex
100
AcDbPolygonMeshVertex
10
403.421052631579
20
-425.308641975309
30
6.22413734140418
70
72
40
0.0
41
0.0
0
VERTEX
5
1D98
330
1A66
100
AcDbEntity
8
Layer1
62
256
100
AcDbVertex
100
AcDbPolygonMeshVertex
10
403.421052631579
20
-414.444444444444
30
8.0024622960911
70
72
40
0.0
41
0.0
0
VERTEX
5
1D99
330
1A66
100
AcDbEntity
8
Layer1
62
256
100
AcDbVertex
100
AcDbPolygonMeshVertex
10
403.421052631579
20
-404.567901234568
30
8.89162477343455
70
72
40
0.0
41
0.0
0
VERTEX
5
1D9A
330
1A66
100
AcDbEntity
8
Layer1
62
256
100
AcDbVertex
100
AcDbPolygonMeshVertex
10
403.421052631579
20
-395.432098765432
30
8.89162477343455
70
72
40
0.0
41
0.0
0
VERTEX
5
1D9B
330
1A66
100
AcDbEntity
8
Layer1
62
256
100
AcDbVertex
100
AcDbPolygonMeshVertex
10
403.421052631579
20
-385.555555555556
30
8.00246229609109
70
72
40
0.0
41
0.0
0
VERTEX
5
1D9C
330
1A66
100
AcDbEntity
8
Layer1
62
256
100
AcDbVertex
100
AcDbPolygonMeshVertex
10
403.421052631579
20
-374.691358024691
30
6.22413734140418
70
72
40
0.0
41
0.0
0
VERTEX
5
1D9D
330
1A66
100
AcDbEntity
8
Layer1
62
256
100
AcDbVertex
100
AcDbPolygonMeshVertex
10
403.421052631579
20
-362.839506172839
30
3.55664990937382
70
72
40
0.0
41
0.0
0
VERTEX
5
1D9E
330
1A66
100
AcDbEntity
8
Layer1
62
256
100
AcDbVertex
100
AcDbPolygonMeshVertex
10
403.421052631579
20
-350.0
30
0.0
70
72
40
0.0
41
0.0
0
VERTEX
5
1D9F
330
1A66
100
AcDbEntity
8
Layer1
62
256
100
AcDbVertex
100
AcDbPolygonMeshVertex
10
410.1108033241
20
-450.0
30
0.0
70
72
40
0.0
41
0.0
0
VERTEX
5
1DA0
330
1A66
100
AcDbEntity
8
Layer1
62
256
100
AcDbVertex
100
AcDbPolygonMeshVertex
10
410.1108033241
20
-437.160493827161
30
4.70572141855614
70
72
40
0.0
41
0.0
0
VERTEX
5
1DA1
330
1A66
100
AcDbEntity
8
Layer1
62
256
100
AcDbVertex
100
AcDbPolygonMeshVertex
10
410.1108033241
20
-425.308641975309
30
8.23501248247324
70
72
40
0.0
41
0.0
0
VERTEX
5
1DA2
330
1A66
100
AcDbEntity
8
Layer1
62
256
100
AcDbVertex
100
AcDbPolygonMeshVertex
10
410.1108033241
20
-414.444444444445
30
10.5878731917513
70
72
40
0.0
41
0.0
0
VERTEX
5
1DA3
330
1A66
100
AcDbEntity
8
Layer1
62
256
100
AcDbVertex
100
AcDbPolygonMeshVertex
10
410.1108033241
20
-404.567901234568
30
11.7643035463903
70
72
40
0.0
41
0.0
0
VERTEX
5
1DA4
330
1A66
100
AcDbEntity
8
Layer1
62
256
100
AcDbVertex
100
AcDbPolygonMeshVertex
10
410.1108033241
20
-395.432098765432
30
11.7643035463903
70
72
40
0.0
41
0.0
0
VERTEX
5
1DA5
330
1A66
100
AcDbEntity
8
Layer1
62
256
100
AcDbVertex
100
AcDbPolygonMeshVertex
10
410.1108033241
20
-385.555555555556
30
10.5878731917513
70
72
40
0.0
41
0.0
0
VERTEX
5
1DA6
330
1A66
100
AcDbEntity
8
Layer1
62
256
100
AcDbVertex
100
AcDbPolygonMeshVertex
10
410.1108033241
20
-374.691358024691
30
8.23501248247323
70
72
40
0.0
41
0.0
0
VERTEX
5
1DA7
330
1A66
100
AcDbEntity
8
Layer1
62
256
100
AcDbVertex
100
AcDbPolygonMeshVertex
10
410.1108033241
20
-362.839506172839
30
4.70572141855613
70
72
40
0.0
41
0.0
0
VERTEX
5
1DA8
330
1A66
100
AcDbEntity
8
Layer1
62
256
100
AcDbVertex
100
AcDbPolygonMeshVertex
10
410.1108033241
20
-350.0
30
0.0
70
72
40
0.0
41
0.0
0
VERTEX
5
1DA9
330
1A66
100
AcDbEntity
8
Layer1
62
256
100
AcDbVertex
100
AcDbPolygonMeshVertex
10
418.08864265928
20
-450.0
30
0.0
70
72
40
0.0
41
0.0
0
VERTEX
5
1DAA
330
1A66
100
AcDbEntity
8
Layer1
62
256
100
AcDbVertex
100
AcDbPolygonMeshVertex
10
418.08864265928
20
-437.160493827161
30
4.18043158578709
70
72
40
0.0
41
0.0
0
VERTEX
5
1DAB
330
1A66
100
AcDbEntity
8
Layer1
62
256
100
AcDbVertex
100
AcDbPolygonMeshVertex
10
418.08864265928
20
-425.308641975309
30
7.3157552751274
70
72
40
0.0
41
0.0
0
VERTEX
5
1DAC
330
1A66
100
AcDbEntity
8
Layer1
62
256
100
AcDbVertex
100
AcDbPolygonMeshVertex
10
418.08864265928
20
-414.444444444445
30
9.40597106802095
70
72
40
0.0
41
0.0
0
VERTEX
5
1DAD
330
1A66
100
AcDbEntity
8
Layer1
62
256
100
AcDbVertex
100
AcDbPolygonMeshVertex
10
418.08864265928
20
-404.567901234568
30
10.4510789644677
70
72
40
0.0
41
0.0
0
VERTEX
5
1DAE
330
1A66
100
AcDbEntity
8
Layer1
62
256
100
AcDbVertex
100
AcDbPolygonMeshVertex
10
418.08864265928
20
-395.432098765432
30
10.4510789644677
70
72
40
0.0
41
0.0
0
VERTEX
5
1DAF
330
1A66
100
AcDbEntity
8
Layer1
62
256
100
AcDbVertex
100
AcDbPolygonMeshVertex
10
418.08864265928
20
-385.555555555556
30
9.40597106802094
70
72
40
0.0
41
0.0
0
VERTEX
5
1DB0
330
1A66
100
AcDbEntity
8
Layer1
62
256
100
AcDbVertex
100
AcDbPolygonMeshVertex
10
418.08864265928
20
-374.691358024691
30
7.3157552751274
70
72
40
0.0
41
0.0
0
VERTEX
5
1DB1
330
1A66
100
AcDbEntity
8
Layer1
62
256
100
AcDbVertex
100
AcDbPolygonMeshVertex
10
418.08864265928
20
-362.83950617284
30
4.18043158578708
70
72
40
0.0
41
0.0
0
VERTEX
5
1DB2
330
1A66
100
AcDbEntity
8
Layer1
62
256
100
AcDbVertex
100
AcDbPolygonMeshVertex
10
418.08864265928
20
-350.0
30
0.0
70
72
40
0.0
41
0.0
0
VERTEX
5
1DB3
330
1A66
100
AcDbEntity
8
Layer1
62
256
100
AcDbVertex
100
AcDbPolygonMeshVertex
10
427.396121883656
20
-450.0
30
0.0
70
72
40
0.0
41
0.0
0
VERTEX
5
1DB4
330
1A66
100
AcDbEntity
8
Layer1
62
256
100
AcDbVertex
100
AcDbPolygonMeshVertex
10
427.396121883656
20
-437.160493827161
30
1.90417564378785
70
72
40
0.0
41
0.0
0
VERTEX
5
1DB5
330
1A66
100
AcDbEntity
8
Layer1
62
256
100
AcDbVertex
100
AcDbPolygonMeshVertex
10
427.396121883656
20
-425.308641975309
30
3.33230737662874
70
72
40
0.0
41
0.0
0
VERTEX
5
1DB6
330
1A66
100
AcDbEntity
8
Layer1
62
256
100
AcDbVertex
100
AcDbPolygonMeshVertex
10
427.396121883656
20
-414.444444444444
30
4.28439519852267
70
72
40
0.0
41
0.0
0
VERTEX
5
1DB7
330
1A66
100
AcDbEntity
8
Layer1
62
256
100
AcDbVertex
100
AcDbPolygonMeshVertex
10
427.396121883656
20
-404.567901234568
30
4.76043910946963
70
72
40
0.0
41
0.0
0
VERTEX
5
1DB8
330
1A66
100
AcDbEntity
8
Layer1
62
256
100
AcDbVertex
100
AcDbPolygonMeshVertex
10
427.396121883656
20
-395.432098765432
30
4.76043910946963
70
72
40
0.0
41
0.0
0
VERTEX
5
1DB9
330
1A66
100
AcDbEntity
8
Layer1
62
256
100
AcDbVertex
100
AcDbPolygonMeshVertex
10
427.396121883656
20
-385.555555555556
30
4.28439519852267
70
72
40
0.0
41
0.0
0
VERTEX
5
1DBA
330
1A66
100
AcDbEntity
8
Layer1
62
256
100
AcDbVertex
100
AcDbPolygonMeshVertex
10
427.396121883656
20
-374.691358024691
30
3.33230737662874
70
72
40
0.0
41
0.0
0
VERTEX
5
1DBB
330
1A66
100
AcDbEntity
8
Layer1
62
256
100
AcDbVertex
100
AcDbPolygonMeshVertex
10
427.396121883656
20
-362.839506172839
30
1.90417564378785
70
72
40
0.0
41
0.0
0
VERTEX
5
1DBC
330
1A66
100
AcDbEntity
8
Layer1
62
256
100
AcDbVertex
100
AcDbPolygonMeshVertex
10
427.396121883656
20
-350.0
30
0.0
70
72
40
0.0
41
0.0
0
VERTEX
5
1DBD
330
1A66
100
AcDbEntity
8
Layer1
62
256
100
AcDbVertex
100
AcDbPolygonMeshVertex
10
438.03324099723
20
-450.0
30
0.0
70
72
40
0.0
41
0.0
0
VERTEX
5
1DBE
330
1A66
100
AcDbEntity
8
Layer1
62
256
100
AcDbVertex
100
AcDbPolygonMeshVertex
10
438.03324099723
20
-437.160493827161
30
-2.12304640744157
70
72
40
0.0
41
0.0
0
VERTEX
5
1DBF
330
1A66
100
AcDbEntity
8
Layer1
62
256
100
AcDbVertex
100
AcDbPolygonMeshVertex
10
438.03324099723
20
-425.308641975309
30
-3.71533121302275
70
72
40
0.0
41
0.0
0
VERTEX
5
1DC0
330
1A66
100
AcDbEntity
8
Layer1
62
256
100
AcDbVertex
100
AcDbPolygonMeshVertex
10
438.03324099723
20
-414.444444444445
30
-4.77685441674353
70
72
40
0.0
41
0.0
0
VERTEX
5
1DC1
330
1A66
100
AcDbEntity
8
Layer1
62
256
100
AcDbVertex
100
AcDbPolygonMeshVertex
10
438.03324099723
20
-404.567901234568
30
-5.30761601860393
70
72
40
0.0
41
0.0
0
VERTEX
5
1DC2
330
1A66
100
AcDbEntity
8
Layer1
62
256
100
AcDbVertex
100
AcDbPolygonMeshVertex
10
438.03324099723
20
-395.432098765432
30
-5.30761601860393
70
72
40
0.0
41
0.0
0
VERTEX
5
1DC3
330
1A66
100
AcDbEntity
8
Layer1
62
256
100
AcDbVertex
100
AcDbPolygonMeshVertex
10
438.03324099723
20
-385.555555555556
30
-4.77685441674353
70
72
40
0.0
41
0.0
0
VERTEX
5
1DC4
330
1A66
100
AcDbEntity
8
Layer1
62
256
100
AcDbVertex
100
AcDbPolygonMeshVertex
10
438.03324099723
20
-374.691358024691
30
-3.71533121302275
70
72
40
0.0
41
0.0
0
VERTEX
5
1DC5
330
1A66
100
AcDbEntity
8
Layer1
62
256
100
AcDbVertex
100
AcDbPolygonMeshVertex
10
438.03324099723
20
-362.839506172839
30
-2.12304640744157
70
72
40
0.0
41
0.0
0
VERTEX
5
1DC6
330
1A66
100
AcDbEntity
8
Layer1
62
256
100
AcDbVertex
100
AcDbPolygonMeshVertex
10
438.03324099723
20
-350.0
30
0.0
70
72
40
0.0
41
0.0
0
VERTEX
5
1DC7
330
1A66
100
AcDbEntity
8
Layer1
62
256
100
AcDbVertex
100
AcDbPolygonMeshVertex
10
450.0
20
-450.0
30
0.0
70
72
40
0.0
41
0.0
0
VERTEX
5
1DC8
330
1A66
100
AcDbEntity
8
Layer1
62
256
100
AcDbVertex
100
AcDbPolygonMeshVertex
10
450.0
20
-437.160493827161
30
-7.90123456790118
70
72
40
0.0
41
0.0
0
VERTEX
5
1DC9
330
1A66
100
AcDbEntity
8
Layer1
62
256
100
AcDbVertex
100
AcDbPolygonMeshVertex
10
450.0
20
-425.308641975309
30
-13.8271604938271
70
72
40
0.0
41
0.0
0
VERTEX
5
1DCA
330
1A66
100
AcDbEntity
8
Layer1
62
256
100
AcDbVertex
100
AcDbPolygonMeshVertex
10
450.0
20
-414.444444444444
30
-17.7777777777777
70
72
40
0.0
41
0.0
0
VERTEX
5
1DCB
330
1A66
100
AcDbEntity
8
Layer1
62
256
100
AcDbVertex
100
AcDbPolygonMeshVertex
10
450.0
20
-404.567901234568
30
-19.7530864197529
70
72
40
0.0
41
0.0
0
VERTEX
5
1DCC
330
1A66
100
AcDbEntity
8
Layer1
62
256
100
AcDbVertex
100
AcDbPolygonMeshVertex
10
450.0
20
-395.432098765432
30
-19.7530864197529
70
72
40
0.0
41
0.0
0
VERTEX
5
1DCD
330
1A66
100
AcDbEntity
8
Layer1
62
256
100
AcDbVertex
100
AcDbPolygonMeshVertex
10
450.0
20
-385.555555555556
30
-17.7777777777777
70
72
40
0.0
41
0.0
0
VERTEX
5
1DCE
330
1A66
100
AcDbEntity
8
Layer1
62
256
100
AcDbVertex
100
AcDbPolygonMeshVertex
10
450.0
20
-374.691358024691
30
-13.8271604938271
70
72
40
0.0
41
0.0
0
VERTEX
5
1DCF
330
1A66
100
AcDbEntity
8
Layer1
62
256
100
AcDbVertex
100
AcDbPolygonMeshVertex
10
450.0
20
-362.839506172839
30
-7.90123456790117
70
72
40
0.0
41
0.0
0
VERTEX
5
1DD0
330
1A66
100
AcDbEntity
8
Layer1
62
256
100
AcDbVertex
100
AcDbPolygonMeshVertex
10
450.0
20
-350.0
30
0.0
70
72
40
0.0
41
0.0
0
SEQEND
5
1DD1
330
1A66
100
AcDbEntity
8
Layer1
0
POLYLINE
5
1B9A
330
1F
100
AcDbEntity
67
0
8
Layer1
62
256
6
ByLayer
370
-1
48
1.0
60
0
100
AcDb2dPolyline
10
0.0
20
0.0
30
0.0
70
4
75
5
210
0.0
220
0.0
230
1.0
0
VERTEX
5
1DD2
330
1B9A
100
AcDbEntity
8
Layer1
62
256
100
AcDbVertex
100
AcDb2dVertex
10
500.0
20
-450.0
30
0.0
70
16
40
0.0
41
0.0
0
VERTEX
5
1DD3
330
1B9A
100
AcDbEntity
8
Layer1
62
256
100
AcDbVertex
100
AcDb2dVertex
10
550.0
20
-350.0
30
0.0
70
16
40
0.0
41
0.0
0
VERTEX
5
1DD4
330
1B9A
100
AcDbEntity
8
Layer1
62
256
100
AcDbVertex
100
AcDb2dVertex
10
600.0
20
-450.0
30
0.0
70
16
40
0.0
41
0.0
0
VERTEX
5
1DD5
330
1B9A
100
AcDbEntity
8
Layer1
62
256
100
AcDbVertex
100
AcDb2dVertex
10
650.0
20
-350.0
30
0.0
70
16
40
0.0
41
0.0
0
VERTEX
5
1DD6
330
1B9A
100
AcDbEntity
8
Layer1
62
256
100
AcDbVertex
100
AcDb2dVertex
10
500.0
20
-450.0
30
0.0
70
8
40
0.0
41
0.0
0
VERTEX
5
1DD7
330
1B9A
100
AcDbEntity
8
Layer1
62
256
100
AcDbVertex
100
AcDb2dVertex
10
511.418685121107
20
-428.546712802768
30
0.0
70
8
40
0.0
41
0.0
0
VERTEX
5
1DD8
330
1B9A
100
AcDbEntity
8
Layer1
62
256
100
AcDbVertex
100
AcDb2dVertex
10
522.145328719723
20
-411.245674740485
30
0.0
70
8
40
0.0
41
0.0
0
VERTEX
5
1DD9
330
1B9A
100
AcDbEntity
8
Layer1
62
256
100
AcDbVertex
100
AcDb2dVertex
10
532.179930795848
20
-398.096885813149
30
0.0
70
8
40
0.0
41
0.0
0
VERTEX
5
1DDA
330
1B9A
100
AcDbEntity
8
Layer1
62
256
100
AcDbVertex
100
AcDb2dVertex
10
541.522491349481
20
-389.100346020761
30
0.0
70
8
40
0.0
41
0.0
0
VERTEX
5
1DDB
330
1B9A
100
AcDbEntity
8
Layer1
62
256
100
AcDbVertex
100
AcDb2dVertex
10
550.173010380623
20
-384.256055363322
30
0.0
70
8
40
0.0
41
0.0
0
VERTEX
5
1DDC
330
1B9A
100
AcDbEntity
8
Layer1
62
256
100
AcDbVertex
100
AcDb2dVertex
10
558.131487889273
20
-383.56401384083
30
0.0
70
8
40
0.0
41
0.0
0
VERTEX
5
1DDD
330
1B9A
100
AcDbEntity
8
Layer1
62
256
100
AcDbVertex
100
AcDb2dVertex
10
565.397923875433
20
-387.024221453287
30
0.0
70
8
40
0.0
41
0.0
0
VERTEX
5
1DDE
330
1B9A
100
AcDbEntity
8
Layer1
62
256
100
AcDbVertex
100
AcDb2dVertex
10
571.9723183391
20
-394.636678200692
30
0.0
70
8
40
0.0
41
0.0
0
VERTEX
5
1DDF
330
1B9A
100
AcDbEntity
8
Layer1
62
256
100
AcDbVertex
100
AcDb2dVertex
10
578.0276816609
20
-405.363321799308
30
0.0
70
8
40
0.0
41
0.0
0
VERTEX
5
1DE0
330
1B9A
100
AcDbEntity
8
Layer1
62
256
100
AcDbVertex
100
AcDb2dVertex
10
584.602076124567
20
-412.975778546713
30
0.0
70
8
40
0.0
41
0.0
0
VERTEX
5
1DE1
330
1B9A
100
AcDbEntity
8
Layer1
62
256
100
AcDbVertex
100
AcDb2dVertex
10
591.868512110727
20
-416.43598615917
30
0.0
70
8
40
0.0
41
0.0
0
VERTEX
5
1DE2
330
1B9A
100
AcDbEntity
8
Layer1
62
256
100
AcDbVertex
100
AcDb2dVertex
10
599.826989619377
20
-415.743944636678
30
0.0
70
8
40
0.0
41
0.0
0
VERTEX
5
1DE3
330
1B9A
100
AcDbEntity
8
Layer1
62
256
100
AcDbVertex
100
AcDb2dVertex
10
608.477508650519
20
-410.899653979239
30
0.0
70
8
40
0.0
41
0.0
0
VERTEX
5
1DE4
330
1B9A
100
AcDbEntity
8
Layer1
62
256
100
AcDbVertex
100
AcDb2dVertex
10
617.820069204152
20
-401.903114186851
30
0.0
70
8
40
0.0
41
0.0
0
VERTEX
5
1DE5
330
1B9A
100
AcDbEntity
8
Layer1
62
256
100
AcDbVertex
100
AcDb2dVertex
10
627.854671280277
20
-388.754325259516
30
0.0
70
8
40
0.0
41
0.0
0
VERTEX
5
1DE6
330
1B9A
100
AcDbEntity
8
Layer1
62
256
100
AcDbVertex
100
AcDb2dVertex
10
638.581314878893
20
-371.453287197232
30
0.0
70
8
40
0.0
41
0.0
0
VERTEX
5
1DE7
330
1B9A
100
AcDbEntity
8
Layer1
62
256
100
AcDbVertex
100
AcDb2dVertex
10
650.0
20
-350.0
30
0.0
70
8
40
0.0
41
0.0
0
SEQEND
5
1DE8
330
1B9A
100
AcDbEntity
8
Layer1
0
POLYLINE
5
1BBC
330
1F
100
AcDbEntity
67
0
8
Layer2
62
256
6
ByLayer
370
-1
48
1.0
60
0
100
AcDb3dPolyline
10
0.0
20
0.0
30
0.0
70
12
75
6
210
0.0
220
0.0
230
1.0
0
VERTEX
5
1DE9
330
1BBC
100
AcDbEntity
8
Layer2
62
256
100
AcDbVertex
100
AcDb3dPolylineVertex
10
700.0
20
-450.0
30
0.0
70
48
40
0.0
41
0.0
0
VERTEX
5
1DEA
330
1BBC
100
AcDbEntity
8
Layer2
62
256
100
AcDbVertex
100
AcDb3dPolylineVertex
10
790.0
20
-430.0
30
50.0
70
48
40
0.0
41
0.0
0
VERTEX
5
1DEB
330
1BBC
100
AcDbEntity
8
Layer2
62
256
100
AcDbVertex
100
AcDb3dPolylineVertex
10
700.0
20
-400.0
30
30.0
70
48
40
0.0
41
0.0
0
VERTEX
5
1DEC
330
1BBC
100
AcDbEntity
8
Layer2
62
256
100
AcDbVertex
100
AcDb3dPolylineVertex
10
790.0
20
-360.0
30
50.0
70
48
40
0.0
41
0.0
0
VERTEX
5
1DED
330
1BBC
100
AcDbEntity
8
Layer2
62
256
100
AcDbVertex
100
AcDb3dPolylineVertex
10
700.0
20
-350.0
30
0.0
70
48
40
0.0
41
0.0
0
VERTEX
5
1DEE
330
1BBC
100
AcDbEntity
8
Layer2
62
256
100
AcDbVertex
100
AcDb3dPolylineVertex
10
700.0
20
-450.0
30
0.0
70
40
40
0.0
41
0.0
0
VERTEX
5
1DEF
330
1BBC
100
AcDbEntity
8
Layer2
62
256
100
AcDbVertex
100
AcDb3dPolylineVertex
10
720.534231938851
20
-444.891098874003
30
11.7284457960056
70
40
40
0.0
41
0.0
0
VERTEX
5
1DF0
330
1BBC
100
AcDbEntity
8
Layer2
62
256
100
AcDbVertex
100
AcDb3dPolylineVertex
10
735.653817703625
20
-439.979452617737
30
21.0109312073642
70
40
40
0.0
41
0.0
0
VERTEX
5
1DF1
330
1BBC
100
AcDbEntity
8
Layer2
62
256
100
AcDbVertex
100
AcDb3dPolylineVertex
10
746.068874825347
20
-435.23547300074
30
28.1236130516972
70
40
40
0.0
41
0.0
0
VERTEX
5
1DF2
330
1BBC
100
AcDbEntity
8
Layer2
62
256
100
AcDbVertex
100
AcDb3dPolylineVertex
10
752.489520835045
20
-430.629571792554
30
33.3426481466261
70
40
40
0.0
41
0.0
0
VERTEX
5
1DF3
330
1BBC
100
AcDbEntity
8
Layer2
62
256
100
AcDbVertex
100
AcDb3dPolylineVertex
10
755.625873263746
20
-426.132160762719
30
36.9441933097723
70
40
40
0.0
41
0.0
0
VERTEX
5
1DF4
330
1BBC
100
AcDbEntity
8
Layer2
62
256
100
AcDbVertex
100
AcDb3dPolylineVertex
10
756.188049642475
20
-421.713651680776
30
39.2044053587573
70
40
40
0.0
41
0.0
0
VERTEX
5
1DF5
330
1BBC
100
AcDbEntity
8
Layer2
62
256
100
AcDbVertex
100
AcDb3dPolylineVertex
10
754.88616750226
20
-417.344456316265
30
40.3994411112024
70
40
40
0.0
41
0.0
0
VERTEX
5
1DF6
330
1BBC
100
AcDbEntity
8
Layer2
62
256
100
AcDbVertex
100
AcDb3dPolylineVertex
10
752.430344374127
20
-412.994986438728
30
40.8054573847292
70
40
40
0.0
41
0.0
0
VERTEX
5
1DF7
330
1BBC
100
AcDbEntity
8
Layer2
62
256
100
AcDbVertex
100
AcDb3dPolylineVertex
10
749.530697789102
20
-408.635653817704
30
40.698610996959
70
40
40
0.0
41
0.0
0
VERTEX
5
1DF8
330
1BBC
100
AcDbEntity
8
Layer2
62
256
100
AcDbVertex
100
AcDb3dPolylineVertex
10
746.897345278211
20
-404.236870222734
30
40.3550587655133
70
40
40
0.0
41
0.0
0
VERTEX
5
1DF9
330
1BBC
100
AcDbEntity
8
Layer2
62
256
100
AcDbVertex
100
AcDb3dPolylineVertex
10
745.240404372483
20
-399.769047423358
30
40.0509575080135
70
40
40
0.0
41
0.0
0
VERTEX
5
1DFA
330
1BBC
100
AcDbEntity
8
Layer2
62
256
100
AcDbVertex
100
AcDb3dPolylineVertex
10
745.240404372483
20
-395.204240979699
30
40.0509575080135
70
40
40
0.0
41
0.0
0
VERTEX
5
1DFB
330
1BBC
100
AcDbEntity
8
Layer2
62
256
100
AcDbVertex
100
AcDb3dPolylineVertex
10
746.897345278212
20
-390.552313635243
30
40.3550587655133
70
40
40
0.0
41
0.0
0
VERTEX
5
1DFC
330
1BBC
100
AcDbEntity
8
Layer2
62
256
100
AcDbVertex
100
AcDb3dPolylineVertex
10
749.530697789102
20
-385.860935316841
30
40.698610996959
70
40
40
0.0
41
0.0
0
VERTEX
5
1DFD
330
1BBC
100
AcDbEntity
8
Layer2
62
256
100
AcDbVertex
100
AcDb3dPolylineVertex
10
752.430344374127
20
-381.179419741925
30
40.8054573847292
70
40
40
0.0
41
0.0
0
VERTEX
5
1DFE
330
1BBC
100
AcDbEntity
8
Layer2
62
256
100
AcDbVertex
100
AcDb3dPolylineVertex
10
754.88616750226
20
-376.557080627928
30
40.3994411112024
70
40
40
0.0
41
0.0
0
VERTEX
5
1DFF
330
1BBC
100
AcDbEntity
8
Layer2
62
256
100
AcDbVertex
100
AcDb3dPolylineVertex
10
756.188049642476
20
-372.043231692282
30
39.2044053587573
70
40
40
0.0
41
0.0
0
VERTEX
5
1E00
330
1BBC
100
AcDbEntity
8
Layer2
62
256
100
AcDbVertex
100
AcDb3dPolylineVertex
10
755.625873263746
20
-367.687186652421
30
36.9441933097723
70
40
40
0.0
41
0.0
0
VERTEX
5
1E01
330
1BBC
100
AcDbEntity
8
Layer2
62
256
100
AcDbVertex
100
AcDb3dPolylineVertex
10
752.489520835046
20
-363.538259225775
30
33.3426481466261
70
40
40
0.0
41
0.0
0
VERTEX
5
1E02
330
1BBC
100
AcDbEntity
8
Layer2
62
256
100
AcDbVertex
100
AcDb3dPolylineVertex
10
746.068874825347
20
-359.645763129777
30
28.1236130516972
70
40
40
0.0
41
0.0
0
VERTEX
5
1E03
330
1BBC
100
AcDbEntity
8
Layer2
62
256
100
AcDbVertex
100
AcDb3dPolylineVertex
10
735.653817703625
20
-356.059012081861
30
21.0109312073642
70
40
40
0.0
41
0.0
0
VERTEX
5
1E04
330
1BBC
100
AcDbEntity
8
Layer2
62
256
100
AcDbVertex
100
AcDb3dPolylineVertex
10
720.534231938851
20
-352.827319799458
30
11.7284457960056
70
40
40
0.0
41
0.0
0
VERTEX
5
1E05
330
1BBC
100
AcDbEntity
8
Layer2
62
256
100
AcDbVertex
100
AcDb3dPolylineVertex
10
700.0
20
-350.0
30
0.0
70
40
40
0.0
41
0.0
0
SEQEND
5
1E06
330
1BBC
100
AcDbEntity
8
Layer2
0
ARC
5
1BFF
330
1F
100
AcDbEntity
67
0
8
Layer2
62
256
6
ByLayer
370
-1
48
1.0
60
0
100
AcDbCircle
39
0.0
10
840.0
20
-190.0
30
0.0
40
57.359841088878
210
0.0
220
0.0
230
1.0
100
AcDbArc
50
30.0071086347302
51
121.920404429417
0
ENDSEC
0
SECTION
2
OBJECTS
0
DICTIONARY
5
1E0C
330
0
100
AcDbDictionary
280
1
281
1
3
ACAD_GROUP
350
D
3
ACAD_LAYOUT
350
1A
3
ACAD_DGNDEFINITIONS
350
1CDD
3
ACAD_DWFDEFINITIONS
350
1CDE
3
ACAD_PDFDEFINITIONS
350
61F
3
ACAD_MLINESTYLE
350
17
3
ACAD_IMAGE_DICT
350
245
3
ACAD_IMAGE_VARS
350
246
0
DICTIONARY
5
D
330
1E0C
100
AcDbDictionary
280
1
281
1
3
*A1
350
3D4
3
MYNAMEDGROUP
350
3D3
0
DICTIONARY
5
1A
330
1E0C
100
AcDbDictionary
280
1
281
1
3
Layout1
350
D3
3
Model
350
22
0
DICTIONARY
5
1CDD
330
1E0C
100
AcDbDictionary
280
1
281
1
0
DICTIONARY
5
1CDE
330
1E0C
100
AcDbDictionary
280
1
281
1
0
DICTIONARY
5
61F
330
1E0C
100
AcDbDictionary
280
1
281
1
3
sample - 1
350
621
0
DICTIONARY
5
17
330
1E0C
100
AcDbDictionary
280
1
281
1
3
STANDARD
350
18
0
DICTIONARY
5
245
330
1E0C
100
AcDbDictionary
280
1
281
1
3
image
350
247
0
DICTIONARY
5
1CDB
330
2
100
AcDbDictionary
280
1
281
1
3
ACAD_LAYERSTATES
360
1E0D
0
DICTIONARY
5
1E0D
330
1CDB
100
AcDbDictionary
280
1
281
1
3
LayerState1
350
1CDF
3
LayerState2
350
1CE0
0
GROUP
5
3D4
330
D
100
AcDbGroup
300

70
1
71
1
340
3D1
340
3D0
0
GROUP
5
3D3
330
D
100
AcDbGroup
300

70
0
71
1
340
3CF
340
3CE
340
3CD
0
LAYOUT
5
D3
330
1A
100
AcDbPlotSettings
1

2
none_device
4
ISO_A4_(210.00_x_297.00_MM)
6

40
7.5
41
20.0
42
7.5
43
20.0
44
210.0
45
297.0
46
0.0
47
0.0
48
0.0
49
0.0
140
0.0
141
0.0
142
1.0
143
1.0
70
688
72
1
73
1
74
5
7

75
16
76
0
77
2
78
300
147
1.0
148
0.0
149
0.0
100
AcDbLayout
1
Layout1
71
1
10
-20.0
20
-7.5
11
277.0
21
202.5
12
0.0
22
0.0
32
0.0
14
25.7
24
19.5
34
0.0
15
231.3
25
175.5
35
0.0
146
0.0
13
0.0
23
0.0
33
0.0
16
1.0
26
0.0
36
0.0
17
0.0
27
1.0
37
0.0
76
0
330
D2
1001
ACAD_PSEXT
1000
None
1000
None
1000
Not applicable
1000
The layout will not be plotted unless a new plotter configuration name is selected.
1070
0
0
LAYOUT
5
22
330
1A
100
AcDbPlotSettings
1

2
none_device
4
ISO_A4_(210.00_x_297.00_MM)
6

40
7.5
41
20.0
42
7.5
43
20.0
44
210.0
45
297.0
46
11.5499992370605
47
-13.6500000953674
48
0.0
49
0.0
140
0.0
141
0.0
142
1.0
143
8.70408475473981
70
11952
72
1
73
0
74
0
7

75
0
76
0
77
2
78
300
147
0.11488858716081
148
0.0
149
0.0
100
AcDbLayout
1
Model
71
2
10
0.0
20
0.0
11
12.0
21
9.0
12
0.0
22
0.0
32
0.0
14
0.0
24
0.0
34
0.0
15
0.0
25
0.0
35
0.0
146
0.0
13
0.0
23
0.0
33
0.0
16
1.0
26
0.0
36
0.0
17
0.0
27
1.0
37
0.0
76
0
330
1F
1001
ACAD_PSEXT
1000
None
1000
None
1000
Not applicable
1000
The layout will not be plotted unless a new plotter configuration name is selected.
1070
0
0
MLINESTYLE
5
18
330
17
100
AcDbMlineStyle
2
STANDARD
70
0
3

62
256
51
90.0
52
90.0
71
2
49
0.5
62
256
6
ByLayer
49
-0.5
62
256
6
ByLayer
0
PDFDEFINITION
5
621
102
{ACAD_REACTORS
330
622
102
}
330
61F
100
AcDbUnderlayDefinition
1
.\sample.pdf
2
1
0
RASTERVARIABLES
5
246
330
245
100
AcDbRasterVariables
90
0
70
1
71
1
72
1
0
IMAGEDEF_REACTOR
5
1E0B
330
249
100
AcDbRasterImageDefReactor
90
2
330
249
0
IMAGEDEF
5
247
102
{ACAD_REACTORS
330
245
330
1E0B
102
}
330
245
100
AcDbRasterImageDef
1
.\image.jpg
10
260.0
20
260.0
11
0.001
21
0.001
280
1
281
0
0
XRECORD
5
1CDF
102
{ACAD_REACTORS
330
1E0D
102
}
330
1E0D
100
AcDbXrecord
280
1
91
2047
301
Description for LayerState1
290
0
302
0
330
451
90
8
62
252
370
35
331
452
440
0
330
3D2
90
8
62
132
370
-3
331
16
440
0
330
2B0
90
8
62
161
370
-3
331
16
440
0
330
2A0
90
8
62
65
370
-3
331
16
440
0
330
29D
90
8
62
40
370
-3
331
16
440
0
330
22D
90
0
62
7
370
-3
331
16
440
0
330
10
90
8
62
7
370
-3
331
16
440
0
0
XRECORD
5
1CE0
102
{ACAD_REACTORS
330
1E0D
102
}
330
1E0D
100
AcDbXrecord
280
1
91
2047
301
Description for LayerState2
290
0
302
0
330
451
90
9
62
252
370
35
331
452
440
0
330
3D2
90
9
62
132
370
-3
331
16
440
0
330
2B0
90
9
62
161
370
-3
331
16
440
0
330
2A0
90
8
62
65
370
-3
331
16
440
0
330
29D
90
8
62
40
370
-3
331
16
440
0
330
22D
90
1
62
7
370
-3
331
16
440
0
330
10
90
8
62
7
370
-3
331
16
440
0
0
ENDSEC
0
EOF
